#N canvas 328 252 1112 835 10;
#X msg 244 443 disconnect;
#X obj 118 506 tgl 30 0 empty empty 1=connected 34 15 0 12 -4034 -258113
-1 1 1;
#X obj 118 477 mrpeach/udpsend;
#X obj 130 410 mrpeach/packOSC;
#X msg 257 410 connect 127.0.0.1 4243;
#X obj 54 53 bng 50 250 50 0 empty empty empty 17 7 0 10 -99865 -258113
-1;
#X obj 225 592 print debug;
#X obj 82 161 midipacker 1 13 29 49 77 41 73 1;
#X obj 94 183 midipacker 2 14 30 50 78 42 74 1;
#X obj 156 240 midipacker 3 15 31 51 79 43 75 1;
#X obj 158 260 midipacker 4 16 32 52 80 44 76 1;
#X obj 328 301 midipacker 5 17 33 53 81 45 77 1;
#X obj 332 321 midipacker 6 18 34 54 82 46 78 1;
#X obj 457 360 midipacker 7 19 35 55 83 47 79 1;
#X obj 462 382 midipacker 8 20 36 56 84 48 80 1;
#X obj 684 604 dac~ 1 2;
#X obj 425 582 vu 15 120 empty empty -1 -8 0 10 -66577 -1 1 0;
#X obj 431 499 env~ 128;
#X obj 423 544 - 100;
#X connect 0 0 2 0;
#X connect 2 0 1 0;
#X connect 3 0 2 0;
#X connect 4 0 2 0;
#X connect 5 0 7 1;
#X connect 7 0 3 0;
#X connect 8 0 3 0;
#X connect 9 0 3 0;
#X connect 10 0 3 0;
#X connect 11 0 3 0;
#X connect 12 0 3 0;
#X connect 13 0 3 0;
#X connect 14 0 3 0;
#X connect 17 0 18 0;
#X connect 18 0 16 0;
