#N canvas 2291 338 940 647 10;
#X msg 244 443 disconnect;
#X obj 118 506 tgl 30 0 empty empty 1=connected 34 15 0 12 -4034 -258113
-1 1 1;
#X obj 118 477 mrpeach/udpsend;
#X obj 130 410 mrpeach/packOSC;
#X msg 257 410 connect 127.0.0.1 4243;
#X obj 113 97 bng 50 250 50 0 empty empty empty 17 7 0 10 -99865 -258113
-1;
#X obj 319 118;
#X obj 225 592 print debug;
#X obj 94 164 midipacker 1 13 29 49 77 41 73;
#X obj 129 194 midipacker 2 14 30 50 78 42 74;
#X obj 161 221 midipacker 3 15 31 51 78 43 75;
#X obj 185 248 midipacker 4 16 32 52 79 44 76;
#X obj 206 274 midipacker 5 17 33 53 80 45 77;
#X obj 230 298 midipacker 6 18 34 54 81 46 78;
#X obj 251 326 midipacker 7 19 35 55 82 47 79;
#X obj 274 352 midipacker 8 20 36 56 83 48 80;
#X connect 0 0 2 0;
#X connect 2 0 1 0;
#X connect 3 0 2 0;
#X connect 4 0 2 0;
#X connect 5 0 8 0;
#X connect 8 0 3 0;
#X connect 9 0 3 0;
#X connect 10 0 3 0;
#X connect 11 0 3 0;
#X connect 12 0 3 0;
#X connect 13 0 3 0;
#X connect 14 0 3 0;
#X connect 15 0 3 0;
