#N canvas 910 142 929 1035 12;
#X msg 224 133 \; pd dsp 1;
#X obj 304 217 abl_link~ 1 0 4 120;
#X obj 305 164 tgl 15 0 empty empty empty 17 7 0 10 -262144 -1 -1 1
1;
#X msg 305 185 connect \$1;
#X floatatom 398 268 5 0 0 0 - - -;
#X obj 321 96 loadbang;
#X msg 308 137 1;
#X floatatom 301 255 5 0 0 0 - - -;
#N canvas 0 23 922 910 randomnote 0;
#X obj 55 59 bng 15 250 50 0 empty empty empty 17 7 0 10 -262144 -1
-1;
#X floatatom 96 167 5 0 0 0 - - -;
#X obj 48 88 random 30;
#X obj 96 114 + 60;
#X floatatom 122 88 5 0 0 0 - - -;
#X obj 96 139 clip 0 127;
#X obj 110 220 makenote;
#X floatatom 224 169 5 0 0 0 - - -;
#X obj 176 90 random 30;
#X floatatom 250 90 5 0 0 0 - - -;
#X obj 224 141 clip 0 127;
#X obj 224 116 + 97;
#X floatatom 350 168 5 0 0 0 - - -;
#X floatatom 376 89 5 0 0 0 - - -;
#X obj 350 115 + 150;
#X obj 300 89 random 500;
#X obj 350 140 clip 150 650;
#X obj 59 27 inlet;
#X obj 108 261 outlet;
#X obj 159 260 outlet;
#X connect 0 0 2 0;
#X connect 0 0 8 0;
#X connect 0 0 15 0;
#X connect 1 0 6 0;
#X connect 2 0 3 0;
#X connect 3 0 5 0;
#X connect 4 0 3 1;
#X connect 5 0 1 0;
#X connect 6 0 18 0;
#X connect 6 1 19 0;
#X connect 7 0 6 1;
#X connect 8 0 11 0;
#X connect 9 0 11 1;
#X connect 10 0 7 0;
#X connect 11 0 10 0;
#X connect 12 0 6 2;
#X connect 13 0 14 1;
#X connect 14 0 16 0;
#X connect 15 0 14 0;
#X connect 16 0 12 0;
#X connect 17 0 0 0;
#X restore 76 367 pd randomnote;
#N canvas 0 23 922 910 randomnote 0;
#X obj 55 59 bng 15 250 50 0 empty empty empty 17 7 0 10 -262144 -1
-1;
#X floatatom 96 167 5 0 0 0 - - -;
#X obj 48 88 random 30;
#X obj 96 114 + 60;
#X floatatom 122 88 5 0 0 0 - - -;
#X obj 96 139 clip 0 127;
#X obj 110 220 makenote;
#X floatatom 224 169 5 0 0 0 - - -;
#X obj 176 90 random 30;
#X floatatom 250 90 5 0 0 0 - - -;
#X obj 224 141 clip 0 127;
#X obj 224 116 + 97;
#X floatatom 350 168 5 0 0 0 - - -;
#X floatatom 376 89 5 0 0 0 - - -;
#X obj 350 115 + 150;
#X obj 300 89 random 500;
#X obj 350 140 clip 150 650;
#X obj 59 27 inlet;
#X obj 108 261 outlet;
#X obj 159 260 outlet;
#X connect 0 0 2 0;
#X connect 0 0 8 0;
#X connect 0 0 15 0;
#X connect 1 0 6 0;
#X connect 2 0 3 0;
#X connect 3 0 5 0;
#X connect 4 0 3 1;
#X connect 5 0 1 0;
#X connect 6 0 18 0;
#X connect 6 1 19 0;
#X connect 7 0 6 1;
#X connect 8 0 11 0;
#X connect 9 0 11 1;
#X connect 10 0 7 0;
#X connect 11 0 10 0;
#X connect 12 0 6 2;
#X connect 13 0 14 1;
#X connect 14 0 16 0;
#X connect 15 0 14 0;
#X connect 16 0 12 0;
#X connect 17 0 0 0;
#X restore 185 368 pd randomnote;
#X obj 76 402 noteout 1;
#X obj 202 401 noteout 2;
#N canvas 0 23 922 910 randomnote 0;
#X obj 55 59 bng 15 250 50 0 empty empty empty 17 7 0 10 -262144 -1
-1;
#X floatatom 96 167 5 0 0 0 - - -;
#X obj 48 88 random 30;
#X obj 96 114 + 60;
#X floatatom 122 88 5 0 0 0 - - -;
#X obj 96 139 clip 0 127;
#X obj 110 220 makenote;
#X floatatom 224 169 5 0 0 0 - - -;
#X obj 176 90 random 30;
#X floatatom 250 90 5 0 0 0 - - -;
#X obj 224 141 clip 0 127;
#X obj 224 116 + 97;
#X floatatom 350 168 5 0 0 0 - - -;
#X floatatom 376 89 5 0 0 0 - - -;
#X obj 350 115 + 150;
#X obj 300 89 random 500;
#X obj 350 140 clip 150 650;
#X obj 59 27 inlet;
#X obj 108 261 outlet;
#X obj 159 260 outlet;
#X connect 0 0 2 0;
#X connect 0 0 8 0;
#X connect 0 0 15 0;
#X connect 1 0 6 0;
#X connect 2 0 3 0;
#X connect 3 0 5 0;
#X connect 4 0 3 1;
#X connect 5 0 1 0;
#X connect 6 0 18 0;
#X connect 6 1 19 0;
#X connect 7 0 6 1;
#X connect 8 0 11 0;
#X connect 9 0 11 1;
#X connect 10 0 7 0;
#X connect 11 0 10 0;
#X connect 12 0 6 2;
#X connect 13 0 14 1;
#X connect 14 0 16 0;
#X connect 15 0 14 0;
#X connect 16 0 12 0;
#X connect 17 0 0 0;
#X restore 299 371 pd randomnote;
#N canvas 37 88 922 910 randomnote 0;
#X obj 55 59 bng 15 250 50 0 empty empty empty 17 7 0 10 -262144 -1
-1;
#X floatatom 96 167 5 0 0 0 - - -;
#X obj 48 88 random 30;
#X obj 96 114 + 60;
#X floatatom 122 88 5 0 0 0 - - -;
#X obj 96 139 clip 0 127;
#X obj 110 220 makenote;
#X floatatom 224 169 5 0 0 0 - - -;
#X obj 176 90 random 30;
#X floatatom 250 90 5 0 0 0 - - -;
#X obj 224 141 clip 0 127;
#X obj 224 116 + 97;
#X floatatom 350 168 5 0 0 0 - - -;
#X floatatom 376 89 5 0 0 0 - - -;
#X obj 350 115 + 150;
#X obj 300 89 random 500;
#X obj 350 140 clip 150 650;
#X obj 59 27 inlet;
#X obj 108 261 outlet;
#X obj 159 260 outlet;
#X connect 0 0 2 0;
#X connect 0 0 8 0;
#X connect 0 0 15 0;
#X connect 1 0 6 0;
#X connect 2 0 3 0;
#X connect 3 0 5 0;
#X connect 4 0 3 1;
#X connect 5 0 1 0;
#X connect 6 0 18 0;
#X connect 6 1 19 0;
#X connect 7 0 6 1;
#X connect 8 0 11 0;
#X connect 9 0 11 1;
#X connect 10 0 7 0;
#X connect 11 0 10 0;
#X connect 12 0 6 2;
#X connect 13 0 14 1;
#X connect 14 0 16 0;
#X connect 15 0 14 0;
#X connect 16 0 12 0;
#X connect 17 0 0 0;
#X restore 415 371 pd randomnote;
#X obj 308 401 noteout 3;
#X obj 439 397 noteout 4;
#X obj 302 299 spigot;
#X obj 341 277 tgl 15 0 empty empty empty 17 7 0 10 -262144 -1 -1 0
1;
#X msg 453 136 tempo \$1;
#X floatatom 459 98 5 0 0 2 tempo - -;
#X floatatom 341 255 5 0 0 0 - - -;
#N canvas 0 23 922 910 randomnote 0;
#X obj 50 323 bng 15 250 50 0 empty empty empty 17 7 0 10 -262144 -1
-1;
#X floatatom 92 455 5 0 0 0 - - -;
#X obj 44 376 random 30;
#X obj 92 402 + 60;
#X floatatom 118 376 5 0 0 0 - - -;
#X obj 92 427 clip 0 127;
#X obj 106 508 makenote;
#X floatatom 220 457 5 0 0 0 - - -;
#X obj 172 378 random 30;
#X floatatom 246 378 5 0 0 0 - - -;
#X obj 220 429 clip 0 127;
#X obj 220 404 + 97;
#X floatatom 346 456 5 0 0 0 - - -;
#X floatatom 372 377 5 0 0 0 - - -;
#X obj 346 403 + 150;
#X obj 296 377 random 500;
#X obj 346 428 clip 150 650;
#X obj 59 27 inlet;
#X obj 104 549 outlet;
#X obj 155 548 outlet;
#X obj 57 178 random 8;
#X obj 55 263 > 3;
#X obj 65 58 bng 15 250 50 0 empty empty empty 17 7 0 10 -262144 -1
-1;
#X obj 52 290 select 1;
#X obj 57 124 pipe 120;
#X obj 93 83 random 120;
#X obj 56 151 bng 15 250 50 0 empty empty empty 17 7 0 10 -262144 -1
-1;
#X connect 0 0 2 0;
#X connect 0 0 8 0;
#X connect 0 0 15 0;
#X connect 1 0 6 0;
#X connect 2 0 3 0;
#X connect 3 0 5 0;
#X connect 4 0 3 1;
#X connect 5 0 1 0;
#X connect 6 0 18 0;
#X connect 6 1 19 0;
#X connect 7 0 6 1;
#X connect 8 0 11 0;
#X connect 9 0 11 1;
#X connect 10 0 7 0;
#X connect 11 0 10 0;
#X connect 12 0 6 2;
#X connect 13 0 14 1;
#X connect 14 0 16 0;
#X connect 15 0 14 0;
#X connect 16 0 12 0;
#X connect 17 0 22 0;
#X connect 20 0 21 0;
#X connect 21 0 23 0;
#X connect 22 0 25 0;
#X connect 22 0 24 0;
#X connect 23 0 0 0;
#X connect 24 0 26 0;
#X connect 25 0 24 1;
#X connect 26 0 20 0;
#X restore 69 553 pd randomnote;
#N canvas 0 23 922 910 randomnote 0;
#X obj 59 337 bng 15 250 50 0 empty empty empty 17 7 0 10 -262144 -1
-1;
#X floatatom 94 448 5 0 0 0 - - -;
#X obj 52 366 random 30;
#X obj 94 395 + 60;
#X floatatom 120 369 5 0 0 0 - - -;
#X obj 94 420 clip 0 127;
#X obj 108 501 makenote;
#X floatatom 222 450 5 0 0 0 - - -;
#X obj 174 371 random 30;
#X floatatom 248 371 5 0 0 0 - - -;
#X obj 222 422 clip 0 127;
#X obj 222 397 + 97;
#X floatatom 348 449 5 0 0 0 - - -;
#X floatatom 374 370 5 0 0 0 - - -;
#X obj 348 396 + 150;
#X obj 298 370 random 500;
#X obj 348 421 clip 150 650;
#X obj 59 27 inlet;
#X obj 106 542 outlet;
#X obj 157 541 outlet;
#X floatatom 62 260 5 0 0 0 - - -;
#X obj 60 288 > 3;
#X obj 59 312 select 1;
#X obj 56 187 random 8;
#X obj 65 58 bng 15 250 50 0 empty empty empty 17 7 0 10 -262144 -1
-1;
#X obj 57 124 pipe 120;
#X obj 93 83 random 120;
#X obj 59 162 bng 15 250 50 0 empty empty empty 17 7 0 10 -262144 -1
-1;
#X connect 0 0 2 0;
#X connect 0 0 8 0;
#X connect 0 0 15 0;
#X connect 1 0 6 0;
#X connect 2 0 3 0;
#X connect 3 0 5 0;
#X connect 4 0 3 1;
#X connect 5 0 1 0;
#X connect 6 0 18 0;
#X connect 6 1 19 0;
#X connect 7 0 6 1;
#X connect 8 0 11 0;
#X connect 9 0 11 1;
#X connect 10 0 7 0;
#X connect 11 0 10 0;
#X connect 12 0 6 2;
#X connect 13 0 14 1;
#X connect 14 0 16 0;
#X connect 15 0 14 0;
#X connect 16 0 12 0;
#X connect 17 0 24 0;
#X connect 20 0 21 0;
#X connect 21 0 22 0;
#X connect 22 0 0 0;
#X connect 23 0 20 0;
#X connect 24 0 26 0;
#X connect 24 0 25 0;
#X connect 25 0 27 0;
#X connect 26 0 25 1;
#X connect 27 0 23 0;
#X restore 178 554 pd randomnote;
#N canvas 0 23 922 910 randomnote 0;
#X obj 65 371 bng 15 250 50 0 empty empty empty 17 7 0 10 -262144 -1
-1;
#X floatatom 106 479 5 0 0 0 - - -;
#X obj 58 400 random 30;
#X obj 106 426 + 60;
#X floatatom 132 400 5 0 0 0 - - -;
#X obj 106 451 clip 0 127;
#X obj 120 532 makenote;
#X floatatom 234 481 5 0 0 0 - - -;
#X obj 186 402 random 30;
#X floatatom 260 402 5 0 0 0 - - -;
#X obj 234 453 clip 0 127;
#X obj 234 428 + 97;
#X floatatom 360 480 5 0 0 0 - - -;
#X floatatom 386 401 5 0 0 0 - - -;
#X obj 360 427 + 150;
#X obj 310 401 random 500;
#X obj 360 452 clip 150 650;
#X obj 59 27 inlet;
#X obj 118 573 outlet;
#X obj 169 572 outlet;
#X floatatom 68 285 5 0 0 0 - - -;
#X obj 66 313 > 3;
#X obj 63 340 select 1;
#X obj 71 211 random 8;
#X obj 80 81 bng 15 250 50 0 empty empty empty 17 7 0 10 -262144 -1
-1;
#X obj 70 141 pipe 120;
#X obj 108 106 random 120;
#X obj 70 185 bng 15 250 50 0 empty empty empty 17 7 0 10 -262144 -1
-1;
#X connect 0 0 2 0;
#X connect 0 0 8 0;
#X connect 0 0 15 0;
#X connect 1 0 6 0;
#X connect 2 0 3 0;
#X connect 3 0 5 0;
#X connect 4 0 3 1;
#X connect 5 0 1 0;
#X connect 6 0 18 0;
#X connect 6 1 19 0;
#X connect 7 0 6 1;
#X connect 8 0 11 0;
#X connect 9 0 11 1;
#X connect 10 0 7 0;
#X connect 11 0 10 0;
#X connect 12 0 6 2;
#X connect 13 0 14 1;
#X connect 14 0 16 0;
#X connect 15 0 14 0;
#X connect 16 0 12 0;
#X connect 17 0 24 0;
#X connect 20 0 21 0;
#X connect 21 0 22 0;
#X connect 22 0 0 0;
#X connect 23 0 20 0;
#X connect 24 0 26 0;
#X connect 24 0 25 0;
#X connect 25 0 27 0;
#X connect 26 0 25 1;
#X connect 27 0 23 0;
#X restore 292 557 pd randomnote;
#N canvas 0 23 922 910 randomnote 0;
#X obj 64 324 bng 15 250 50 0 empty empty empty 17 7 0 10 -262144 -1
-1;
#X floatatom 105 432 5 0 0 0 - - -;
#X obj 57 353 random 30;
#X obj 105 379 + 60;
#X floatatom 131 353 5 0 0 0 - - -;
#X obj 105 404 clip 0 127;
#X obj 119 485 makenote;
#X floatatom 233 434 5 0 0 0 - - -;
#X obj 185 355 random 30;
#X floatatom 259 355 5 0 0 0 - - -;
#X obj 233 406 clip 0 127;
#X obj 233 381 + 97;
#X floatatom 359 433 5 0 0 0 - - -;
#X floatatom 385 354 5 0 0 0 - - -;
#X obj 359 380 + 150;
#X obj 309 354 random 500;
#X obj 359 405 clip 150 650;
#X obj 59 27 inlet;
#X obj 117 526 outlet;
#X obj 168 525 outlet;
#X obj 66 207 random 8;
#X floatatom 68 233 5 0 0 0 - - -;
#X obj 66 261 > 3;
#X obj 67 182 bng 15 250 50 0 empty empty empty 17 7 0 10 -262144 -1
-1;
#X obj 63 288 select 1;
#X obj 66 71 bng 15 250 50 0 empty empty empty 17 7 0 10 -262144 -1
-1;
#X obj 58 137 pipe 120;
#X obj 94 96 random 120;
#X connect 0 0 2 0;
#X connect 0 0 8 0;
#X connect 0 0 15 0;
#X connect 1 0 6 0;
#X connect 2 0 3 0;
#X connect 3 0 5 0;
#X connect 4 0 3 1;
#X connect 5 0 1 0;
#X connect 6 0 18 0;
#X connect 6 1 19 0;
#X connect 7 0 6 1;
#X connect 8 0 11 0;
#X connect 9 0 11 1;
#X connect 10 0 7 0;
#X connect 11 0 10 0;
#X connect 12 0 6 2;
#X connect 13 0 14 1;
#X connect 14 0 16 0;
#X connect 15 0 14 0;
#X connect 16 0 12 0;
#X connect 17 0 25 0;
#X connect 20 0 21 0;
#X connect 21 0 22 0;
#X connect 22 0 24 0;
#X connect 23 0 20 0;
#X connect 24 0 0 0;
#X connect 25 0 27 0;
#X connect 25 0 26 0;
#X connect 26 0 23 0;
#X connect 27 0 26 1;
#X restore 408 557 pd randomnote;
#X obj 69 588 noteout 5;
#X obj 195 587 noteout 6;
#X obj 301 586 noteout 7;
#X obj 432 583 noteout 8;
#X obj 289 485 spigot;
#X obj 328 459 tgl 15 0 empty empty empty 17 7 0 10 -262144 -1 -1 1
1;
#N canvas 0 23 922 910 randomnote 1;
#X obj 53 142 bng 15 250 50 0 empty empty empty 17 7 0 10 -262144 -1
-1;
#X floatatom 94 250 5 0 0 0 - - -;
#X obj 46 171 random 30;
#X obj 94 197 + 60;
#X floatatom 120 171 5 0 0 0 - - -;
#X obj 94 222 clip 0 127;
#X obj 108 303 makenote;
#X floatatom 222 252 5 0 0 0 - - -;
#X obj 174 173 random 30;
#X floatatom 248 173 5 0 0 0 - - -;
#X obj 222 224 clip 0 127;
#X obj 222 199 + 97;
#X floatatom 348 251 5 0 0 0 - - -;
#X floatatom 392 173 5 0 0 0 - - -;
#X obj 348 198 + 150;
#X obj 59 27 inlet;
#X obj 106 344 outlet;
#X obj 157 343 outlet;
#X obj 298 172 random 1500;
#X obj 348 223 clip 150 1650;
#X obj 56 93 select 1;
#X connect 0 0 2 0;
#X connect 0 0 8 0;
#X connect 0 0 18 0;
#X connect 1 0 6 0;
#X connect 2 0 3 0;
#X connect 3 0 5 0;
#X connect 4 0 3 1;
#X connect 5 0 1 0;
#X connect 6 0 16 0;
#X connect 6 1 17 0;
#X connect 7 0 6 1;
#X connect 8 0 11 0;
#X connect 9 0 11 1;
#X connect 10 0 7 0;
#X connect 11 0 10 0;
#X connect 12 0 6 2;
#X connect 13 0 14 1;
#X connect 14 0 19 0;
#X connect 15 0 20 0;
#X connect 18 0 14 0;
#X connect 19 0 12 0;
#X connect 20 0 0 0;
#X restore 70 860 pd randomnote;
#N canvas 86 354 922 910 randomnote 1;
#X obj 55 59 bng 15 250 50 0 empty empty empty 17 7 0 10 -262144 -1
-1;
#X floatatom 96 167 5 0 0 0 - - -;
#X obj 48 88 random 30;
#X obj 96 114 + 60;
#X floatatom 122 88 5 0 0 0 - - -;
#X obj 96 139 clip 0 127;
#X obj 110 220 makenote;
#X floatatom 224 169 5 0 0 0 - - -;
#X obj 176 90 random 30;
#X floatatom 250 90 5 0 0 0 - - -;
#X obj 224 141 clip 0 127;
#X obj 224 116 + 97;
#X floatatom 350 168 5 0 0 0 - - -;
#X floatatom 376 89 5 0 0 0 - - -;
#X obj 350 115 + 150;
#X obj 59 27 inlet;
#X obj 108 261 outlet;
#X obj 159 260 outlet;
#X obj 300 89 random 6500;
#X obj 347 140 clip 5000 8750;
#X connect 0 0 2 0;
#X connect 0 0 8 0;
#X connect 0 0 18 0;
#X connect 1 0 6 0;
#X connect 2 0 3 0;
#X connect 3 0 5 0;
#X connect 4 0 3 1;
#X connect 5 0 1 0;
#X connect 6 0 16 0;
#X connect 6 1 17 0;
#X connect 7 0 6 1;
#X connect 8 0 11 0;
#X connect 9 0 11 1;
#X connect 10 0 7 0;
#X connect 11 0 10 0;
#X connect 12 0 6 2;
#X connect 13 0 14 1;
#X connect 14 0 19 0;
#X connect 15 0 0 0;
#X connect 18 0 14 0;
#X connect 19 0 12 0;
#X restore 179 861 pd randomnote;
#N canvas 0 23 922 910 randomnote 0;
#X obj 55 59 bng 15 250 50 0 empty empty empty 17 7 0 10 -262144 -1
-1;
#X floatatom 96 167 5 0 0 0 - - -;
#X obj 48 88 random 30;
#X obj 96 114 + 60;
#X floatatom 122 88 5 0 0 0 - - -;
#X obj 96 139 clip 0 127;
#X obj 110 220 makenote;
#X floatatom 224 169 5 0 0 0 - - -;
#X obj 176 90 random 30;
#X floatatom 250 90 5 0 0 0 - - -;
#X obj 224 141 clip 0 127;
#X obj 224 116 + 97;
#X floatatom 350 168 5 0 0 0 - - -;
#X floatatom 376 89 5 0 0 0 - - -;
#X obj 350 115 + 150;
#X obj 300 89 random 500;
#X obj 350 140 clip 150 650;
#X obj 59 27 inlet;
#X obj 108 261 outlet;
#X obj 159 260 outlet;
#X connect 0 0 2 0;
#X connect 0 0 8 0;
#X connect 0 0 15 0;
#X connect 1 0 6 0;
#X connect 2 0 3 0;
#X connect 3 0 5 0;
#X connect 4 0 3 1;
#X connect 5 0 1 0;
#X connect 6 0 18 0;
#X connect 6 1 19 0;
#X connect 7 0 6 1;
#X connect 8 0 11 0;
#X connect 9 0 11 1;
#X connect 10 0 7 0;
#X connect 11 0 10 0;
#X connect 12 0 6 2;
#X connect 13 0 14 1;
#X connect 14 0 16 0;
#X connect 15 0 14 0;
#X connect 16 0 12 0;
#X connect 17 0 0 0;
#X restore 293 864 pd randomnote;
#N canvas 0 23 922 910 randomnote 0;
#X obj 55 59 bng 15 250 50 0 empty empty empty 17 7 0 10 -262144 -1
-1;
#X floatatom 96 167 5 0 0 0 - - -;
#X obj 48 88 random 30;
#X obj 96 114 + 60;
#X floatatom 122 88 5 0 0 0 - - -;
#X obj 96 139 clip 0 127;
#X obj 110 220 makenote;
#X floatatom 224 169 5 0 0 0 - - -;
#X obj 176 90 random 30;
#X floatatom 250 90 5 0 0 0 - - -;
#X obj 224 141 clip 0 127;
#X obj 224 116 + 97;
#X floatatom 350 168 5 0 0 0 - - -;
#X floatatom 376 89 5 0 0 0 - - -;
#X obj 350 115 + 150;
#X obj 300 89 random 500;
#X obj 350 140 clip 150 650;
#X obj 59 27 inlet;
#X obj 108 261 outlet;
#X obj 159 260 outlet;
#X connect 0 0 2 0;
#X connect 0 0 8 0;
#X connect 0 0 15 0;
#X connect 1 0 6 0;
#X connect 2 0 3 0;
#X connect 3 0 5 0;
#X connect 4 0 3 1;
#X connect 5 0 1 0;
#X connect 6 0 18 0;
#X connect 6 1 19 0;
#X connect 7 0 6 1;
#X connect 8 0 11 0;
#X connect 9 0 11 1;
#X connect 10 0 7 0;
#X connect 11 0 10 0;
#X connect 12 0 6 2;
#X connect 13 0 14 1;
#X connect 14 0 16 0;
#X connect 15 0 14 0;
#X connect 16 0 12 0;
#X connect 17 0 0 0;
#X restore 409 864 pd randomnote;
#X obj 290 792 spigot;
#X obj 329 766 tgl 15 0 empty empty empty 17 7 0 10 -262144 -1 -1 0
1;
#N canvas 0 23 922 910 randomnote 0;
#X obj 55 59 bng 15 250 50 0 empty empty empty 17 7 0 10 -262144 -1
-1;
#X floatatom 96 167 5 0 0 0 - - -;
#X obj 48 88 random 30;
#X obj 96 114 + 60;
#X floatatom 122 88 5 0 0 0 - - -;
#X obj 96 139 clip 0 127;
#X obj 110 220 makenote;
#X floatatom 224 169 5 0 0 0 - - -;
#X obj 176 90 random 30;
#X floatatom 250 90 5 0 0 0 - - -;
#X obj 224 141 clip 0 127;
#X obj 224 116 + 97;
#X floatatom 350 168 5 0 0 0 - - -;
#X floatatom 376 89 5 0 0 0 - - -;
#X obj 350 115 + 150;
#X obj 300 89 random 500;
#X obj 350 140 clip 150 650;
#X obj 59 27 inlet;
#X obj 108 261 outlet;
#X obj 159 260 outlet;
#X connect 0 0 2 0;
#X connect 0 0 8 0;
#X connect 0 0 15 0;
#X connect 1 0 6 0;
#X connect 2 0 3 0;
#X connect 3 0 5 0;
#X connect 4 0 3 1;
#X connect 5 0 1 0;
#X connect 6 0 18 0;
#X connect 6 1 19 0;
#X connect 7 0 6 1;
#X connect 8 0 11 0;
#X connect 9 0 11 1;
#X connect 10 0 7 0;
#X connect 11 0 10 0;
#X connect 12 0 6 2;
#X connect 13 0 14 1;
#X connect 14 0 16 0;
#X connect 15 0 14 0;
#X connect 16 0 12 0;
#X connect 17 0 0 0;
#X restore 298 698 pd randomnote;
#X obj 295 656 spigot;
#X obj 334 630 tgl 15 0 empty empty empty 17 7 0 10 -262144 -1 -1 0
1;
#X obj 307 727 noteout 9;
#X obj 70 895 noteout 10;
#X obj 196 894 noteout 11;
#X obj 302 893 noteout 12;
#X obj 433 890 noteout 13;
#X obj 558 295 bng 100 250 50 0 empty empty DAGO_DRUM 17 7 0 10 -4034
-1 -1;
#X msg 523 299 1;
#X obj 673 298 bng 100 250 50 0 empty empty DAGO_DRUM 17 7 0 10 -258113
-1 -1;
#X msg 522 322 0;
#X obj 556 477 bng 100 250 50 0 empty empty violen 17 7 0 10 -4034
-1 -1;
#X msg 521 481 1;
#X obj 671 480 bng 100 250 50 0 empty empty violen 17 7 0 10 -258113
-1 -1;
#X msg 520 504 0;
#X obj 560 773 bng 100 250 50 0 empty empty EWI 17 7 0 10 -4034 -1
-1;
#X msg 525 777 1;
#X obj 672 773 bng 100 250 50 0 empty empty EWI 17 7 0 10 -258113 -1
-1;
#X msg 524 800 0;
#X obj 59 1199 ctlout 2 10;
#X obj 55 1024 select 127;
#X msg 104 955 0 0;
#X obj 55 986 line 0 15;
#X obj 55 1052 bng 15 250 50 0 empty empty empty 17 7 0 10 -262144
-1 -1;
#X obj 121 1050 bng 15 250 50 0 empty empty empty 17 7 0 10 -262144
-1 -1;
#X obj 316 1023 select 127;
#X msg 356 962 0 0;
#X msg 291 959 127 250;
#X obj 313 991 line 0 15;
#X obj 316 1051 bng 15 250 50 0 empty empty empty 17 7 0 10 -262144
-1 -1;
#X obj 382 1049 bng 15 250 50 0 empty empty empty 17 7 0 10 -262144
-1 -1;
#X obj 311 1079 ctlout 2 11;
#X obj 23 909 bng 15 250 50 0 empty empty empty 17 7 0 10 -262144 -1
-1;
#X obj 166 927 bng 15 250 50 0 empty empty empty 17 7 0 10 -262144
-1 -1;
#X msg 33 954 127 1250;
#X obj 163 1027 pipe 1500;
#X obj 157 1070 tgl 15 0 empty empty empty 17 7 0 10 -262144 -1 -1
0 1;
#X obj 162 970 random 3500;
#X obj 213 997 + 500;
#X obj 61 1106 random 127;
#X obj 59 1138 spigot;
#X obj 429 337 bng 15 250 50 0 empty empty empty 17 7 0 10 -262144
-1 -1;
#X connect 1 0 7 0;
#X connect 1 3 4 0;
#X connect 2 0 3 0;
#X connect 3 0 1 0;
#X connect 5 0 0 0;
#X connect 5 0 6 0;
#X connect 6 0 2 0;
#X connect 7 0 16 0;
#X connect 7 0 29 0;
#X connect 7 0 38 0;
#X connect 7 0 35 0;
#X connect 8 0 10 0;
#X connect 8 1 10 1;
#X connect 9 0 11 0;
#X connect 9 1 11 1;
#X connect 12 0 14 0;
#X connect 12 1 14 1;
#X connect 13 0 15 0;
#X connect 13 1 15 1;
#X connect 16 0 8 0;
#X connect 16 0 9 0;
#X connect 16 0 12 0;
#X connect 16 0 13 0;
#X connect 17 0 16 1;
#X connect 18 0 1 0;
#X connect 19 0 18 0;
#X connect 21 0 25 0;
#X connect 21 1 25 1;
#X connect 22 0 26 0;
#X connect 22 1 26 1;
#X connect 23 0 27 0;
#X connect 23 1 27 1;
#X connect 24 0 28 0;
#X connect 24 1 28 1;
#X connect 29 0 21 0;
#X connect 29 0 22 0;
#X connect 29 0 23 0;
#X connect 29 0 24 0;
#X connect 30 0 29 1;
#X connect 31 0 41 0;
#X connect 31 0 70 0;
#X connect 31 1 41 1;
#X connect 32 0 42 0;
#X connect 32 0 71 0;
#X connect 32 1 42 1;
#X connect 33 0 43 0;
#X connect 33 1 43 1;
#X connect 34 0 44 0;
#X connect 34 1 44 1;
#X connect 35 0 31 0;
#X connect 35 0 32 0;
#X connect 35 0 33 0;
#X connect 35 0 34 0;
#X connect 36 0 35 1;
#X connect 37 0 40 0;
#X connect 37 1 40 1;
#X connect 38 0 37 0;
#X connect 39 0 38 1;
#X connect 45 0 46 0;
#X connect 46 0 17 0;
#X connect 47 0 48 0;
#X connect 48 0 17 0;
#X connect 49 0 50 0;
#X connect 50 0 30 0;
#X connect 51 0 52 0;
#X connect 52 0 30 0;
#X connect 53 0 54 0;
#X connect 54 0 36 0;
#X connect 55 0 56 0;
#X connect 56 0 36 0;
#X connect 58 0 61 0;
#X connect 58 1 62 0;
#X connect 59 0 60 0;
#X connect 60 0 58 0;
#X connect 61 0 59 0;
#X connect 62 0 77 0;
#X connect 63 0 67 0;
#X connect 63 1 68 0;
#X connect 64 0 66 0;
#X connect 65 0 66 0;
#X connect 66 0 63 0;
#X connect 66 0 69 0;
#X connect 67 0 64 0;
#X connect 70 0 72 0;
#X connect 70 0 73 0;
#X connect 70 0 74 0;
#X connect 70 0 75 0;
#X connect 71 0 65 0;
#X connect 72 0 60 0;
#X connect 73 0 74 0;
#X connect 74 0 78 1;
#X connect 75 0 76 0;
#X connect 76 0 73 1;
#X connect 77 0 78 0;
#X connect 78 0 57 0;
#X connect 79 0 13 0;
