#N canvas 86 23 1770 1094 10;
#X msg 306 939 disconnect;
#X obj 180 1002 tgl 30 0 empty empty 1=connected 34 15 0 12 -4034 -258113
-1 1 1;
#X obj 180 973 mrpeach/udpsend;
#X obj 192 906 mrpeach/packOSC;
#X msg 319 906 connect 127.0.0.1 4243;
#X obj 598 139 channelAnalyser;
#X obj 735 303 pack f f f f;
#X msg 577 332 sendtyped /ch1attack i 1;
#X msg 99 242 sendtyped /ch2 ffi \$1 \$2 \$3;
#X obj 165 50 metro 500;
#X obj 180 16 tgl 15 0 empty empty empty 17 7 0 10 -262144 -1 -1 0
1;
#X obj 77 153 random 127;
#X obj 104 203 pack i i i;
#X obj 146 155 random 127;
#X obj 222 157 random 127;
#X obj 156 79 bng 15 250 50 0 empty empty empty 17 7 0 10 -262144 -1
-1;
#X msg 301 107 sendtyped /ch2attack i 1;
#X floatatom 226 14 5 0 0 0 - - -;
#X msg 107 386 \; pd dsp 1;
#X obj 187 470 abl_link~ 1 0 4 120;
#X obj 188 417 tgl 15 0 empty empty empty 17 7 0 10 -262144 -1 -1 1
1;
#X msg 188 438 connect \$1;
#X floatatom 281 521 5 0 0 0 - - -;
#X obj 204 349 loadbang;
#X msg 191 390 1;
#X floatatom 184 508 5 0 0 0 - - -;
#X obj 185 552 spigot;
#X obj 224 530 tgl 15 0 empty empty empty 17 7 0 10 -262144 -1 -1 0
1;
#X floatatom 356 513 5 0 0 0 - - -;
#X msg 281 392 tempo \$1;
#X floatatom 287 354 5 0 0 2 tempo - -;
#X floatatom 224 508 5 0 0 0 - - -;
#X msg 738 332 sendtyped /ch1 ffi \$1 \$2 \$3;
#X msg 122 594 sendtyped /measure i \$1;
#N canvas 0 23 674 564 nornmalize 0;
#X obj 107 35 inlet;
#X obj 292 30 inlet;
#X obj 134 269 f;
#X obj 97 242 > 0;
#X obj 128 242 spigot;
#X floatatom 135 307 5 0 0 0 - - -;
#X obj 163 216 tgl 15 0 empty empty empty 17 7 0 10 -262144 -1 -1 0
1;
#X msg 111 212 0;
#X obj 254 268 f;
#X obj 248 242 spigot;
#X obj 193 242 < 100;
#X obj 270 209 tgl 15 0 empty empty empty 17 7 0 10 -262144 -1 -1 0
1;
#X floatatom 248 307 5 0 0 0 - - -;
#X msg 218 212 100;
#X obj 113 111 bng 15 250 50 0 empty empty empty 17 7 0 10 -262144
-1 -1;
#X obj 243 423 -;
#X obj 331 422 -;
#X obj 294 342 t b f;
#X obj 269 466 /;
#X floatatom 380 517 5 0 0 0 - - -;
#X obj 269 543 outlet;
#X obj 117 135 hsl 50 15 0 1 0 0 empty empty empty -2 -8 0 10 -262144
-1 -1 3282 1;
#X text 138 113 reset;
#X connect 0 0 3 0;
#X connect 0 0 10 0;
#X connect 0 0 4 0;
#X connect 0 0 9 0;
#X connect 0 0 15 0;
#X connect 1 0 14 0;
#X connect 2 0 5 0;
#X connect 2 0 16 0;
#X connect 3 0 6 0;
#X connect 4 0 2 0;
#X connect 4 0 3 1;
#X connect 6 0 4 1;
#X connect 7 0 3 1;
#X connect 8 0 12 0;
#X connect 8 0 15 1;
#X connect 9 0 8 0;
#X connect 9 0 10 1;
#X connect 9 0 17 0;
#X connect 10 0 11 0;
#X connect 11 0 9 1;
#X connect 13 0 10 1;
#X connect 14 0 7 0;
#X connect 14 0 13 0;
#X connect 15 0 18 0;
#X connect 16 0 18 1;
#X connect 17 0 16 0;
#X connect 17 1 16 1;
#X connect 18 0 19 0;
#X connect 18 0 20 0;
#X connect 19 0 21 0;
#X coords 0 -1 1 1 85 60 1 100 100;
#X restore 727 225 pd nornmalize;
#N canvas 0 23 674 564 nornmalize 0;
#X obj 107 35 inlet;
#X obj 292 30 inlet;
#X obj 134 269 f;
#X obj 97 242 > 0;
#X obj 128 242 spigot;
#X floatatom 135 307 5 0 0 0 - - -;
#X obj 163 216 tgl 15 0 empty empty empty 17 7 0 10 -262144 -1 -1 0
1;
#X msg 111 212 0;
#X obj 254 268 f;
#X obj 248 242 spigot;
#X obj 193 242 < 100;
#X obj 270 209 tgl 15 0 empty empty empty 17 7 0 10 -262144 -1 -1 0
1;
#X floatatom 248 307 5 0 0 0 - - -;
#X msg 218 212 100;
#X obj 113 111 bng 15 250 50 0 empty empty empty 17 7 0 10 -262144
-1 -1;
#X obj 243 423 -;
#X obj 331 422 -;
#X obj 294 342 t b f;
#X obj 269 466 /;
#X floatatom 380 517 5 0 0 0 - - -;
#X obj 269 543 outlet;
#X obj 117 135 hsl 50 15 0 1 0 0 empty empty empty -2 -8 0 10 -262144
-1 -1 261 1;
#X text 138 113 reset;
#X connect 0 0 3 0;
#X connect 0 0 10 0;
#X connect 0 0 4 0;
#X connect 0 0 9 0;
#X connect 0 0 15 0;
#X connect 1 0 14 0;
#X connect 2 0 5 0;
#X connect 2 0 16 0;
#X connect 3 0 6 0;
#X connect 4 0 2 0;
#X connect 4 0 3 1;
#X connect 6 0 4 1;
#X connect 7 0 3 1;
#X connect 8 0 12 0;
#X connect 8 0 15 1;
#X connect 9 0 8 0;
#X connect 9 0 10 1;
#X connect 9 0 17 0;
#X connect 10 0 11 0;
#X connect 11 0 9 1;
#X connect 13 0 10 1;
#X connect 14 0 7 0;
#X connect 14 0 13 0;
#X connect 15 0 18 0;
#X connect 16 0 18 1;
#X connect 17 0 16 0;
#X connect 17 1 16 1;
#X connect 18 0 19 0;
#X connect 18 0 20 0;
#X connect 19 0 21 0;
#X coords 0 -1 1 1 85 60 1 100 100;
#X restore 596 227 pd nornmalize;
#X obj 612 75 adc~ 1;
#X floatatom 291 580 5 0 0 0 - - -;
#X obj 575 428 spigot;
#X obj 608 405 tgl 15 0 empty empty empty 17 7 0 10 -262144 -1 -1 1
1;
#X obj 609 367 loadbang;
#X obj 608 387 f 1;
#X obj 598 532 channelAnalyser;
#X obj 735 696 pack f f f f;
#N canvas 0 23 674 564 nornmalize 0;
#X obj 107 35 inlet;
#X obj 292 30 inlet;
#X obj 134 269 f;
#X obj 97 242 > 0;
#X obj 128 242 spigot;
#X floatatom 135 307 5 0 0 0 - - -;
#X obj 163 216 tgl 15 0 empty empty empty 17 7 0 10 -262144 -1 -1 0
1;
#X msg 111 212 0;
#X obj 254 268 f;
#X obj 248 242 spigot;
#X obj 193 242 < 100;
#X obj 270 209 tgl 15 0 empty empty empty 17 7 0 10 -262144 -1 -1 0
1;
#X floatatom 248 307 5 0 0 0 - - -;
#X msg 218 212 100;
#X obj 113 111 bng 15 250 50 0 empty empty empty 17 7 0 10 -262144
-1 -1;
#X obj 243 423 -;
#X obj 331 422 -;
#X obj 294 342 t b f;
#X obj 269 466 /;
#X floatatom 380 517 5 0 0 0 - - -;
#X obj 269 543 outlet;
#X obj 117 135 hsl 50 15 0 1 0 0 empty empty empty -2 -8 0 10 -262144
-1 -1 4071 1;
#X text 138 113 reset;
#X connect 0 0 3 0;
#X connect 0 0 10 0;
#X connect 0 0 4 0;
#X connect 0 0 9 0;
#X connect 0 0 15 0;
#X connect 1 0 14 0;
#X connect 2 0 5 0;
#X connect 2 0 16 0;
#X connect 3 0 6 0;
#X connect 4 0 2 0;
#X connect 4 0 3 1;
#X connect 6 0 4 1;
#X connect 7 0 3 1;
#X connect 8 0 12 0;
#X connect 8 0 15 1;
#X connect 9 0 8 0;
#X connect 9 0 10 1;
#X connect 9 0 17 0;
#X connect 10 0 11 0;
#X connect 11 0 9 1;
#X connect 13 0 10 1;
#X connect 14 0 7 0;
#X connect 14 0 13 0;
#X connect 15 0 18 0;
#X connect 16 0 18 1;
#X connect 17 0 16 0;
#X connect 17 1 16 1;
#X connect 18 0 19 0;
#X connect 18 0 20 0;
#X connect 19 0 21 0;
#X coords 0 -1 1 1 85 60 1 100 100;
#X restore 727 618 pd nornmalize;
#N canvas 0 23 674 564 nornmalize 0;
#X obj 107 35 inlet;
#X obj 292 30 inlet;
#X obj 134 269 f;
#X obj 97 242 > 0;
#X obj 128 242 spigot;
#X floatatom 135 307 5 0 0 0 - - -;
#X obj 163 216 tgl 15 0 empty empty empty 17 7 0 10 -262144 -1 -1 0
1;
#X msg 111 212 0;
#X obj 254 268 f;
#X obj 248 242 spigot;
#X obj 193 242 < 100;
#X obj 270 209 tgl 15 0 empty empty empty 17 7 0 10 -262144 -1 -1 0
1;
#X floatatom 248 307 5 0 0 0 - - -;
#X msg 218 212 100;
#X obj 113 111 bng 15 250 50 0 empty empty empty 17 7 0 10 -262144
-1 -1;
#X obj 243 423 -;
#X obj 331 422 -;
#X obj 294 342 t b f;
#X obj 269 466 /;
#X floatatom 380 517 5 0 0 0 - - -;
#X obj 269 543 outlet;
#X obj 117 135 hsl 50 15 0 1 0 0 empty empty empty -2 -8 0 10 -262144
-1 -1 0 1;
#X text 138 113 reset;
#X connect 0 0 3 0;
#X connect 0 0 10 0;
#X connect 0 0 4 0;
#X connect 0 0 9 0;
#X connect 0 0 15 0;
#X connect 1 0 14 0;
#X connect 2 0 5 0;
#X connect 2 0 16 0;
#X connect 3 0 6 0;
#X connect 4 0 2 0;
#X connect 4 0 3 1;
#X connect 6 0 4 1;
#X connect 7 0 3 1;
#X connect 8 0 12 0;
#X connect 8 0 15 1;
#X connect 9 0 8 0;
#X connect 9 0 10 1;
#X connect 9 0 17 0;
#X connect 10 0 11 0;
#X connect 11 0 9 1;
#X connect 13 0 10 1;
#X connect 14 0 7 0;
#X connect 14 0 13 0;
#X connect 15 0 18 0;
#X connect 16 0 18 1;
#X connect 17 0 16 0;
#X connect 17 1 16 1;
#X connect 18 0 19 0;
#X connect 18 0 20 0;
#X connect 19 0 21 0;
#X coords 0 -1 1 1 85 60 1 100 100;
#X restore 596 620 pd nornmalize;
#X obj 575 821 spigot;
#X obj 608 798 tgl 15 0 empty empty empty 17 7 0 10 -262144 -1 -1 1
1;
#X obj 609 760 loadbang;
#X obj 608 780 f 1;
#X msg 577 725 sendtyped /ch2attack i 1;
#X msg 738 725 sendtyped /ch2 ffi \$1 \$2 \$3;
#X obj 1010 136 channelAnalyser;
#X obj 1147 300 pack f f f f;
#N canvas 0 23 674 564 nornmalize 0;
#X obj 107 35 inlet;
#X obj 292 30 inlet;
#X obj 134 269 f;
#X obj 97 242 > 0;
#X obj 128 242 spigot;
#X floatatom 135 307 5 0 0 0 - - -;
#X obj 163 216 tgl 15 0 empty empty empty 17 7 0 10 -262144 -1 -1 0
1;
#X msg 111 212 0;
#X obj 254 268 f;
#X obj 248 242 spigot;
#X obj 193 242 < 100;
#X obj 270 209 tgl 15 0 empty empty empty 17 7 0 10 -262144 -1 -1 0
1;
#X floatatom 248 307 5 0 0 0 - - -;
#X msg 218 212 100;
#X obj 113 111 bng 15 250 50 0 empty empty empty 17 7 0 10 -262144
-1 -1;
#X obj 243 423 -;
#X obj 331 422 -;
#X obj 294 342 t b f;
#X obj 269 466 /;
#X floatatom 380 517 5 0 0 0 - - -;
#X obj 269 543 outlet;
#X obj 117 135 hsl 50 15 0 1 0 0 empty empty empty -2 -8 0 10 -262144
-1 -1 2879 1;
#X text 138 113 reset;
#X connect 0 0 3 0;
#X connect 0 0 10 0;
#X connect 0 0 4 0;
#X connect 0 0 9 0;
#X connect 0 0 15 0;
#X connect 1 0 14 0;
#X connect 2 0 5 0;
#X connect 2 0 16 0;
#X connect 3 0 6 0;
#X connect 4 0 2 0;
#X connect 4 0 3 1;
#X connect 6 0 4 1;
#X connect 7 0 3 1;
#X connect 8 0 12 0;
#X connect 8 0 15 1;
#X connect 9 0 8 0;
#X connect 9 0 10 1;
#X connect 9 0 17 0;
#X connect 10 0 11 0;
#X connect 11 0 9 1;
#X connect 13 0 10 1;
#X connect 14 0 7 0;
#X connect 14 0 13 0;
#X connect 15 0 18 0;
#X connect 16 0 18 1;
#X connect 17 0 16 0;
#X connect 17 1 16 1;
#X connect 18 0 19 0;
#X connect 18 0 20 0;
#X connect 19 0 21 0;
#X coords 0 -1 1 1 85 60 1 100 100;
#X restore 1139 222 pd nornmalize;
#N canvas 0 23 674 564 nornmalize 0;
#X obj 107 35 inlet;
#X obj 292 30 inlet;
#X obj 134 269 f;
#X obj 97 242 > 0;
#X obj 128 242 spigot;
#X floatatom 135 307 5 0 0 0 - - -;
#X obj 163 216 tgl 15 0 empty empty empty 17 7 0 10 -262144 -1 -1 0
1;
#X msg 111 212 0;
#X obj 254 268 f;
#X obj 248 242 spigot;
#X obj 193 242 < 100;
#X obj 270 209 tgl 15 0 empty empty empty 17 7 0 10 -262144 -1 -1 0
1;
#X floatatom 248 307 5 0 0 0 - - -;
#X msg 218 212 100;
#X obj 113 111 bng 15 250 50 0 empty empty empty 17 7 0 10 -262144
-1 -1;
#X obj 243 423 -;
#X obj 331 422 -;
#X obj 294 342 t b f;
#X obj 269 466 /;
#X floatatom 380 517 5 0 0 0 - - -;
#X obj 269 543 outlet;
#X obj 117 135 hsl 50 15 0 1 0 0 empty empty empty -2 -8 0 10 -262144
-1 -1 381 1;
#X text 138 113 reset;
#X connect 0 0 3 0;
#X connect 0 0 10 0;
#X connect 0 0 4 0;
#X connect 0 0 9 0;
#X connect 0 0 15 0;
#X connect 1 0 14 0;
#X connect 2 0 5 0;
#X connect 2 0 16 0;
#X connect 3 0 6 0;
#X connect 4 0 2 0;
#X connect 4 0 3 1;
#X connect 6 0 4 1;
#X connect 7 0 3 1;
#X connect 8 0 12 0;
#X connect 8 0 15 1;
#X connect 9 0 8 0;
#X connect 9 0 10 1;
#X connect 9 0 17 0;
#X connect 10 0 11 0;
#X connect 11 0 9 1;
#X connect 13 0 10 1;
#X connect 14 0 7 0;
#X connect 14 0 13 0;
#X connect 15 0 18 0;
#X connect 16 0 18 1;
#X connect 17 0 16 0;
#X connect 17 1 16 1;
#X connect 18 0 19 0;
#X connect 18 0 20 0;
#X connect 19 0 21 0;
#X coords 0 -1 1 1 85 60 1 100 100;
#X restore 1008 224 pd nornmalize;
#X obj 1024 72 adc~ 1;
#X obj 987 425 spigot;
#X obj 1020 402 tgl 15 0 empty empty empty 17 7 0 10 -262144 -1 -1
1 1;
#X obj 1021 364 loadbang;
#X obj 1020 384 f 1;
#X obj 1010 529 channelAnalyser;
#X obj 1147 693 pack f f f f;
#N canvas 0 23 674 564 nornmalize 0;
#X obj 107 35 inlet;
#X obj 292 30 inlet;
#X obj 134 269 f;
#X obj 97 242 > 0;
#X obj 128 242 spigot;
#X floatatom 135 307 5 0 0 0 - - -;
#X obj 163 216 tgl 15 0 empty empty empty 17 7 0 10 -262144 -1 -1 0
1;
#X msg 111 212 0;
#X obj 254 268 f;
#X obj 248 242 spigot;
#X obj 193 242 < 100;
#X obj 270 209 tgl 15 0 empty empty empty 17 7 0 10 -262144 -1 -1 0
1;
#X floatatom 248 307 5 0 0 0 - - -;
#X msg 218 212 100;
#X obj 113 111 bng 15 250 50 0 empty empty empty 17 7 0 10 -262144
-1 -1;
#X obj 243 423 -;
#X obj 331 422 -;
#X obj 294 342 t b f;
#X obj 269 466 /;
#X floatatom 380 517 5 0 0 0 - - -;
#X obj 269 543 outlet;
#X obj 117 135 hsl 50 15 0 1 0 0 empty empty empty -2 -8 0 10 -262144
-1 -1 4056 1;
#X text 138 113 reset;
#X connect 0 0 3 0;
#X connect 0 0 10 0;
#X connect 0 0 4 0;
#X connect 0 0 9 0;
#X connect 0 0 15 0;
#X connect 1 0 14 0;
#X connect 2 0 5 0;
#X connect 2 0 16 0;
#X connect 3 0 6 0;
#X connect 4 0 2 0;
#X connect 4 0 3 1;
#X connect 6 0 4 1;
#X connect 7 0 3 1;
#X connect 8 0 12 0;
#X connect 8 0 15 1;
#X connect 9 0 8 0;
#X connect 9 0 10 1;
#X connect 9 0 17 0;
#X connect 10 0 11 0;
#X connect 11 0 9 1;
#X connect 13 0 10 1;
#X connect 14 0 7 0;
#X connect 14 0 13 0;
#X connect 15 0 18 0;
#X connect 16 0 18 1;
#X connect 17 0 16 0;
#X connect 17 1 16 1;
#X connect 18 0 19 0;
#X connect 18 0 20 0;
#X connect 19 0 21 0;
#X coords 0 -1 1 1 85 60 1 100 100;
#X restore 1139 615 pd nornmalize;
#N canvas 0 23 674 564 nornmalize 0;
#X obj 107 35 inlet;
#X obj 292 30 inlet;
#X obj 134 269 f;
#X obj 97 242 > 0;
#X obj 128 242 spigot;
#X floatatom 135 307 5 0 0 0 - - -;
#X obj 163 216 tgl 15 0 empty empty empty 17 7 0 10 -262144 -1 -1 0
1;
#X msg 111 212 0;
#X obj 254 268 f;
#X obj 248 242 spigot;
#X obj 193 242 < 100;
#X obj 270 209 tgl 15 0 empty empty empty 17 7 0 10 -262144 -1 -1 0
1;
#X floatatom 248 307 5 0 0 0 - - -;
#X msg 218 212 100;
#X obj 113 111 bng 15 250 50 0 empty empty empty 17 7 0 10 -262144
-1 -1;
#X obj 243 423 -;
#X obj 331 422 -;
#X obj 294 342 t b f;
#X obj 269 466 /;
#X floatatom 380 517 5 0 0 0 - - -;
#X obj 269 543 outlet;
#X obj 117 135 hsl 50 15 0 1 0 0 empty empty empty -2 -8 0 10 -262144
-1 -1 381 1;
#X text 138 113 reset;
#X connect 0 0 3 0;
#X connect 0 0 10 0;
#X connect 0 0 4 0;
#X connect 0 0 9 0;
#X connect 0 0 15 0;
#X connect 1 0 14 0;
#X connect 2 0 5 0;
#X connect 2 0 16 0;
#X connect 3 0 6 0;
#X connect 4 0 2 0;
#X connect 4 0 3 1;
#X connect 6 0 4 1;
#X connect 7 0 3 1;
#X connect 8 0 12 0;
#X connect 8 0 15 1;
#X connect 9 0 8 0;
#X connect 9 0 10 1;
#X connect 9 0 17 0;
#X connect 10 0 11 0;
#X connect 11 0 9 1;
#X connect 13 0 10 1;
#X connect 14 0 7 0;
#X connect 14 0 13 0;
#X connect 15 0 18 0;
#X connect 16 0 18 1;
#X connect 17 0 16 0;
#X connect 17 1 16 1;
#X connect 18 0 19 0;
#X connect 18 0 20 0;
#X connect 19 0 21 0;
#X coords 0 -1 1 1 85 60 1 100 100;
#X restore 1008 617 pd nornmalize;
#X obj 987 818 spigot;
#X obj 1020 795 tgl 15 0 empty empty empty 17 7 0 10 -262144 -1 -1
1 1;
#X obj 1021 757 loadbang;
#X obj 1020 777 f 1;
#X obj 975 908 channelAnalyser;
#X obj 1112 1072 pack f f f f;
#N canvas 0 23 674 564 nornmalize 0;
#X obj 107 35 inlet;
#X obj 292 30 inlet;
#X obj 134 269 f;
#X obj 97 242 > 0;
#X obj 128 242 spigot;
#X floatatom 135 307 5 0 0 0 - - -;
#X obj 163 216 tgl 15 0 empty empty empty 17 7 0 10 -262144 -1 -1 0
1;
#X msg 111 212 0;
#X obj 254 268 f;
#X obj 248 242 spigot;
#X obj 193 242 < 100;
#X obj 270 209 tgl 15 0 empty empty empty 17 7 0 10 -262144 -1 -1 0
1;
#X floatatom 248 307 5 0 0 0 - - -;
#X msg 218 212 100;
#X obj 113 111 bng 15 250 50 0 empty empty empty 17 7 0 10 -262144
-1 -1;
#X obj 243 423 -;
#X obj 331 422 -;
#X obj 294 342 t b f;
#X obj 269 466 /;
#X floatatom 380 517 5 0 0 0 - - -;
#X obj 269 543 outlet;
#X obj 117 135 hsl 50 15 0 1 0 0 empty empty empty -2 -8 0 10 -262144
-1 -1 2869 1;
#X text 138 113 reset;
#X connect 0 0 3 0;
#X connect 0 0 10 0;
#X connect 0 0 4 0;
#X connect 0 0 9 0;
#X connect 0 0 15 0;
#X connect 1 0 14 0;
#X connect 2 0 5 0;
#X connect 2 0 16 0;
#X connect 3 0 6 0;
#X connect 4 0 2 0;
#X connect 4 0 3 1;
#X connect 6 0 4 1;
#X connect 7 0 3 1;
#X connect 8 0 12 0;
#X connect 8 0 15 1;
#X connect 9 0 8 0;
#X connect 9 0 10 1;
#X connect 9 0 17 0;
#X connect 10 0 11 0;
#X connect 11 0 9 1;
#X connect 13 0 10 1;
#X connect 14 0 7 0;
#X connect 14 0 13 0;
#X connect 15 0 18 0;
#X connect 16 0 18 1;
#X connect 17 0 16 0;
#X connect 17 1 16 1;
#X connect 18 0 19 0;
#X connect 18 0 20 0;
#X connect 19 0 21 0;
#X coords 0 -1 1 1 85 60 1 100 100;
#X restore 1104 994 pd nornmalize;
#N canvas 0 23 674 564 nornmalize 0;
#X obj 107 35 inlet;
#X obj 292 30 inlet;
#X obj 134 269 f;
#X obj 97 242 > 0;
#X obj 128 242 spigot;
#X floatatom 135 307 5 0 0 0 - - -;
#X obj 163 216 tgl 15 0 empty empty empty 17 7 0 10 -262144 -1 -1 0
1;
#X msg 111 212 0;
#X obj 254 268 f;
#X obj 248 242 spigot;
#X obj 193 242 < 100;
#X obj 270 209 tgl 15 0 empty empty empty 17 7 0 10 -262144 -1 -1 0
1;
#X floatatom 248 307 5 0 0 0 - - -;
#X msg 218 212 100;
#X obj 113 111 bng 15 250 50 0 empty empty empty 17 7 0 10 -262144
-1 -1;
#X obj 243 423 -;
#X obj 331 422 -;
#X obj 294 342 t b f;
#X obj 269 466 /;
#X floatatom 380 517 5 0 0 0 - - -;
#X obj 269 543 outlet;
#X obj 117 135 hsl 50 15 0 1 0 0 empty empty empty -2 -8 0 10 -262144
-1 -1 594 1;
#X text 138 113 reset;
#X connect 0 0 3 0;
#X connect 0 0 10 0;
#X connect 0 0 4 0;
#X connect 0 0 9 0;
#X connect 0 0 15 0;
#X connect 1 0 14 0;
#X connect 2 0 5 0;
#X connect 2 0 16 0;
#X connect 3 0 6 0;
#X connect 4 0 2 0;
#X connect 4 0 3 1;
#X connect 6 0 4 1;
#X connect 7 0 3 1;
#X connect 8 0 12 0;
#X connect 8 0 15 1;
#X connect 9 0 8 0;
#X connect 9 0 10 1;
#X connect 9 0 17 0;
#X connect 10 0 11 0;
#X connect 11 0 9 1;
#X connect 13 0 10 1;
#X connect 14 0 7 0;
#X connect 14 0 13 0;
#X connect 15 0 18 0;
#X connect 16 0 18 1;
#X connect 17 0 16 0;
#X connect 17 1 16 1;
#X connect 18 0 19 0;
#X connect 18 0 20 0;
#X connect 19 0 21 0;
#X coords 0 -1 1 1 85 60 1 100 100;
#X restore 973 996 pd nornmalize;
#X obj 989 844 adc~ 1;
#X obj 952 1197 spigot;
#X obj 985 1174 tgl 15 0 empty empty empty 17 7 0 10 -262144 -1 -1
1 1;
#X obj 986 1136 loadbang;
#X obj 985 1156 f 1;
#X obj 975 1301 channelAnalyser;
#X obj 1112 1465 pack f f f f;
#N canvas 0 23 674 564 nornmalize 0;
#X obj 107 35 inlet;
#X obj 292 30 inlet;
#X obj 134 269 f;
#X obj 97 242 > 0;
#X obj 128 242 spigot;
#X floatatom 135 307 5 0 0 0 - - -;
#X obj 163 216 tgl 15 0 empty empty empty 17 7 0 10 -262144 -1 -1 0
1;
#X msg 111 212 0;
#X obj 254 268 f;
#X obj 248 242 spigot;
#X obj 193 242 < 100;
#X obj 270 209 tgl 15 0 empty empty empty 17 7 0 10 -262144 -1 -1 0
1;
#X floatatom 248 307 5 0 0 0 - - -;
#X msg 218 212 100;
#X obj 113 111 bng 15 250 50 0 empty empty empty 17 7 0 10 -262144
-1 -1;
#X obj 243 423 -;
#X obj 331 422 -;
#X obj 294 342 t b f;
#X obj 269 466 /;
#X floatatom 380 517 5 0 0 0 - - -;
#X obj 269 543 outlet;
#X obj 117 135 hsl 50 15 0 1 0 0 empty empty empty -2 -8 0 10 -262144
-1 -1 4049 1;
#X text 138 113 reset;
#X connect 0 0 3 0;
#X connect 0 0 10 0;
#X connect 0 0 4 0;
#X connect 0 0 9 0;
#X connect 0 0 15 0;
#X connect 1 0 14 0;
#X connect 2 0 5 0;
#X connect 2 0 16 0;
#X connect 3 0 6 0;
#X connect 4 0 2 0;
#X connect 4 0 3 1;
#X connect 6 0 4 1;
#X connect 7 0 3 1;
#X connect 8 0 12 0;
#X connect 8 0 15 1;
#X connect 9 0 8 0;
#X connect 9 0 10 1;
#X connect 9 0 17 0;
#X connect 10 0 11 0;
#X connect 11 0 9 1;
#X connect 13 0 10 1;
#X connect 14 0 7 0;
#X connect 14 0 13 0;
#X connect 15 0 18 0;
#X connect 16 0 18 1;
#X connect 17 0 16 0;
#X connect 17 1 16 1;
#X connect 18 0 19 0;
#X connect 18 0 20 0;
#X connect 19 0 21 0;
#X coords 0 -1 1 1 85 60 1 100 100;
#X restore 1104 1387 pd nornmalize;
#N canvas 0 23 674 564 nornmalize 0;
#X obj 107 35 inlet;
#X obj 292 30 inlet;
#X obj 134 269 f;
#X obj 97 242 > 0;
#X obj 128 242 spigot;
#X floatatom 135 307 5 0 0 0 - - -;
#X obj 163 216 tgl 15 0 empty empty empty 17 7 0 10 -262144 -1 -1 0
1;
#X msg 111 212 0;
#X obj 254 268 f;
#X obj 248 242 spigot;
#X obj 193 242 < 100;
#X obj 270 209 tgl 15 0 empty empty empty 17 7 0 10 -262144 -1 -1 0
1;
#X floatatom 248 307 5 0 0 0 - - -;
#X msg 218 212 100;
#X obj 113 111 bng 15 250 50 0 empty empty empty 17 7 0 10 -262144
-1 -1;
#X obj 243 423 -;
#X obj 331 422 -;
#X obj 294 342 t b f;
#X obj 269 466 /;
#X floatatom 380 517 5 0 0 0 - - -;
#X obj 269 543 outlet;
#X obj 117 135 hsl 50 15 0 1 0 0 empty empty empty -2 -8 0 10 -262144
-1 -1 594 1;
#X text 138 113 reset;
#X connect 0 0 3 0;
#X connect 0 0 10 0;
#X connect 0 0 4 0;
#X connect 0 0 9 0;
#X connect 0 0 15 0;
#X connect 1 0 14 0;
#X connect 2 0 5 0;
#X connect 2 0 16 0;
#X connect 3 0 6 0;
#X connect 4 0 2 0;
#X connect 4 0 3 1;
#X connect 6 0 4 1;
#X connect 7 0 3 1;
#X connect 8 0 12 0;
#X connect 8 0 15 1;
#X connect 9 0 8 0;
#X connect 9 0 10 1;
#X connect 9 0 17 0;
#X connect 10 0 11 0;
#X connect 11 0 9 1;
#X connect 13 0 10 1;
#X connect 14 0 7 0;
#X connect 14 0 13 0;
#X connect 15 0 18 0;
#X connect 16 0 18 1;
#X connect 17 0 16 0;
#X connect 17 1 16 1;
#X connect 18 0 19 0;
#X connect 18 0 20 0;
#X connect 19 0 21 0;
#X coords 0 -1 1 1 85 60 1 100 100;
#X restore 973 1389 pd nornmalize;
#X obj 952 1590 spigot;
#X obj 985 1567 tgl 15 0 empty empty empty 17 7 0 10 -262144 -1 -1
1 1;
#X obj 986 1529 loadbang;
#X obj 985 1549 f 1;
#X obj 1426 130 channelAnalyser;
#X obj 1563 294 pack f f f f;
#N canvas 0 23 674 564 nornmalize 0;
#X obj 107 35 inlet;
#X obj 292 30 inlet;
#X obj 134 269 f;
#X obj 97 242 > 0;
#X obj 128 242 spigot;
#X floatatom 135 307 5 0 0 0 - - -;
#X obj 163 216 tgl 15 0 empty empty empty 17 7 0 10 -262144 -1 -1 0
1;
#X msg 111 212 0;
#X obj 254 268 f;
#X obj 248 242 spigot;
#X obj 193 242 < 100;
#X obj 270 209 tgl 15 0 empty empty empty 17 7 0 10 -262144 -1 -1 0
1;
#X floatatom 248 307 5 0 0 0 - - -;
#X msg 218 212 100;
#X obj 113 111 bng 15 250 50 0 empty empty empty 17 7 0 10 -262144
-1 -1;
#X obj 243 423 -;
#X obj 331 422 -;
#X obj 294 342 t b f;
#X obj 269 466 /;
#X floatatom 380 517 5 0 0 0 - - -;
#X obj 269 543 outlet;
#X obj 117 135 hsl 50 15 0 1 0 0 empty empty empty -2 -8 0 10 -262144
-1 -1 2879 1;
#X text 138 113 reset;
#X connect 0 0 3 0;
#X connect 0 0 10 0;
#X connect 0 0 4 0;
#X connect 0 0 9 0;
#X connect 0 0 15 0;
#X connect 1 0 14 0;
#X connect 2 0 5 0;
#X connect 2 0 16 0;
#X connect 3 0 6 0;
#X connect 4 0 2 0;
#X connect 4 0 3 1;
#X connect 6 0 4 1;
#X connect 7 0 3 1;
#X connect 8 0 12 0;
#X connect 8 0 15 1;
#X connect 9 0 8 0;
#X connect 9 0 10 1;
#X connect 9 0 17 0;
#X connect 10 0 11 0;
#X connect 11 0 9 1;
#X connect 13 0 10 1;
#X connect 14 0 7 0;
#X connect 14 0 13 0;
#X connect 15 0 18 0;
#X connect 16 0 18 1;
#X connect 17 0 16 0;
#X connect 17 1 16 1;
#X connect 18 0 19 0;
#X connect 18 0 20 0;
#X connect 19 0 21 0;
#X coords 0 -1 1 1 85 60 1 100 100;
#X restore 1555 216 pd nornmalize;
#N canvas 0 23 674 564 nornmalize 0;
#X obj 107 35 inlet;
#X obj 292 30 inlet;
#X obj 134 269 f;
#X obj 97 242 > 0;
#X obj 128 242 spigot;
#X floatatom 135 307 5 0 0 0 - - -;
#X obj 163 216 tgl 15 0 empty empty empty 17 7 0 10 -262144 -1 -1 0
1;
#X msg 111 212 0;
#X obj 254 268 f;
#X obj 248 242 spigot;
#X obj 193 242 < 100;
#X obj 270 209 tgl 15 0 empty empty empty 17 7 0 10 -262144 -1 -1 0
1;
#X floatatom 248 307 5 0 0 0 - - -;
#X msg 218 212 100;
#X obj 113 111 bng 15 250 50 0 empty empty empty 17 7 0 10 -262144
-1 -1;
#X obj 243 423 -;
#X obj 331 422 -;
#X obj 294 342 t b f;
#X obj 269 466 /;
#X floatatom 380 517 5 0 0 0 - - -;
#X obj 269 543 outlet;
#X obj 117 135 hsl 50 15 0 1 0 0 empty empty empty -2 -8 0 10 -262144
-1 -1 381 1;
#X text 138 113 reset;
#X connect 0 0 3 0;
#X connect 0 0 10 0;
#X connect 0 0 4 0;
#X connect 0 0 9 0;
#X connect 0 0 15 0;
#X connect 1 0 14 0;
#X connect 2 0 5 0;
#X connect 2 0 16 0;
#X connect 3 0 6 0;
#X connect 4 0 2 0;
#X connect 4 0 3 1;
#X connect 6 0 4 1;
#X connect 7 0 3 1;
#X connect 8 0 12 0;
#X connect 8 0 15 1;
#X connect 9 0 8 0;
#X connect 9 0 10 1;
#X connect 9 0 17 0;
#X connect 10 0 11 0;
#X connect 11 0 9 1;
#X connect 13 0 10 1;
#X connect 14 0 7 0;
#X connect 14 0 13 0;
#X connect 15 0 18 0;
#X connect 16 0 18 1;
#X connect 17 0 16 0;
#X connect 17 1 16 1;
#X connect 18 0 19 0;
#X connect 18 0 20 0;
#X connect 19 0 21 0;
#X coords 0 -1 1 1 85 60 1 100 100;
#X restore 1424 218 pd nornmalize;
#X obj 1440 66 adc~ 1;
#X obj 1403 419 spigot;
#X obj 1436 396 tgl 15 0 empty empty empty 17 7 0 10 -262144 -1 -1
1 1;
#X obj 1437 358 loadbang;
#X obj 1436 378 f 1;
#X obj 1426 523 channelAnalyser;
#X obj 1563 687 pack f f f f;
#N canvas 0 23 674 564 nornmalize 0;
#X obj 107 35 inlet;
#X obj 292 30 inlet;
#X obj 134 269 f;
#X obj 97 242 > 0;
#X obj 128 242 spigot;
#X floatatom 135 307 5 0 0 0 - - -;
#X obj 163 216 tgl 15 0 empty empty empty 17 7 0 10 -262144 -1 -1 0
1;
#X msg 111 212 0;
#X obj 254 268 f;
#X obj 248 242 spigot;
#X obj 193 242 < 100;
#X obj 270 209 tgl 15 0 empty empty empty 17 7 0 10 -262144 -1 -1 0
1;
#X floatatom 248 307 5 0 0 0 - - -;
#X msg 218 212 100;
#X obj 113 111 bng 15 250 50 0 empty empty empty 17 7 0 10 -262144
-1 -1;
#X obj 243 423 -;
#X obj 331 422 -;
#X obj 294 342 t b f;
#X obj 269 466 /;
#X floatatom 380 517 5 0 0 0 - - -;
#X obj 269 543 outlet;
#X obj 117 135 hsl 50 15 0 1 0 0 empty empty empty -2 -8 0 10 -262144
-1 -1 0 1;
#X text 138 113 reset;
#X connect 0 0 3 0;
#X connect 0 0 10 0;
#X connect 0 0 4 0;
#X connect 0 0 9 0;
#X connect 0 0 15 0;
#X connect 1 0 14 0;
#X connect 2 0 5 0;
#X connect 2 0 16 0;
#X connect 3 0 6 0;
#X connect 4 0 2 0;
#X connect 4 0 3 1;
#X connect 6 0 4 1;
#X connect 7 0 3 1;
#X connect 8 0 12 0;
#X connect 8 0 15 1;
#X connect 9 0 8 0;
#X connect 9 0 10 1;
#X connect 9 0 17 0;
#X connect 10 0 11 0;
#X connect 11 0 9 1;
#X connect 13 0 10 1;
#X connect 14 0 7 0;
#X connect 14 0 13 0;
#X connect 15 0 18 0;
#X connect 16 0 18 1;
#X connect 17 0 16 0;
#X connect 17 1 16 1;
#X connect 18 0 19 0;
#X connect 18 0 20 0;
#X connect 19 0 21 0;
#X coords 0 -1 1 1 85 60 1 100 100;
#X restore 1555 609 pd nornmalize;
#N canvas 0 23 674 564 nornmalize 0;
#X obj 107 35 inlet;
#X obj 292 30 inlet;
#X obj 134 269 f;
#X obj 97 242 > 0;
#X obj 128 242 spigot;
#X floatatom 135 307 5 0 0 0 - - -;
#X obj 163 216 tgl 15 0 empty empty empty 17 7 0 10 -262144 -1 -1 0
1;
#X msg 111 212 0;
#X obj 254 268 f;
#X obj 248 242 spigot;
#X obj 193 242 < 100;
#X obj 270 209 tgl 15 0 empty empty empty 17 7 0 10 -262144 -1 -1 0
1;
#X floatatom 248 307 5 0 0 0 - - -;
#X msg 218 212 100;
#X obj 113 111 bng 15 250 50 0 empty empty empty 17 7 0 10 -262144
-1 -1;
#X obj 243 423 -;
#X obj 331 422 -;
#X obj 294 342 t b f;
#X obj 269 466 /;
#X floatatom 380 517 5 0 0 0 - - -;
#X obj 269 543 outlet;
#X obj 117 135 hsl 50 15 0 1 0 0 empty empty empty -2 -8 0 10 -262144
-1 -1 0 1;
#X text 138 113 reset;
#X connect 0 0 3 0;
#X connect 0 0 10 0;
#X connect 0 0 4 0;
#X connect 0 0 9 0;
#X connect 0 0 15 0;
#X connect 1 0 14 0;
#X connect 2 0 5 0;
#X connect 2 0 16 0;
#X connect 3 0 6 0;
#X connect 4 0 2 0;
#X connect 4 0 3 1;
#X connect 6 0 4 1;
#X connect 7 0 3 1;
#X connect 8 0 12 0;
#X connect 8 0 15 1;
#X connect 9 0 8 0;
#X connect 9 0 10 1;
#X connect 9 0 17 0;
#X connect 10 0 11 0;
#X connect 11 0 9 1;
#X connect 13 0 10 1;
#X connect 14 0 7 0;
#X connect 14 0 13 0;
#X connect 15 0 18 0;
#X connect 16 0 18 1;
#X connect 17 0 16 0;
#X connect 17 1 16 1;
#X connect 18 0 19 0;
#X connect 18 0 20 0;
#X connect 19 0 21 0;
#X coords 0 -1 1 1 85 60 1 100 100;
#X restore 1424 611 pd nornmalize;
#X obj 1403 812 spigot;
#X obj 1436 789 tgl 15 0 empty empty empty 17 7 0 10 -262144 -1 -1
1 1;
#X obj 1437 751 loadbang;
#X obj 1436 771 f 1;
#X obj 1440 459 adc~ 2;
#X obj 612 468 adc~ 1;
#X obj 1024 465 adc~ 1;
#X obj 989 1237 adc~ 1;
#X msg 989 329 sendtyped /ch4attack i 1;
#X msg 1150 329 sendtyped /ch4 ffi \$1 \$2 \$3;
#X msg 989 722 sendtyped /ch5attack i 1;
#X msg 1150 722 sendtyped /ch5 ffi \$1 \$2 \$3;
#X msg 1115 1101 sendtyped /ch6 ffi \$1 \$2 \$3;
#X msg 954 1101 sendtyped /ch6attack i 1;
#X msg 954 1494 sendtyped /ch7attack i 1;
#X msg 1115 1494 sendtyped /ch7 ffi \$1 \$2 \$3;
#X msg 1405 323 sendtyped /ch8attack i 1;
#X msg 1566 323 sendtyped /ch8 ffi \$1 \$2 \$3;
#X msg 1405 716 sendtyped /ch9attack i 1;
#X msg 1566 716 sendtyped /ch9 ffi \$1 \$2 \$3;
#X msg 662 30 0;
#X msg 691 32 1;
#X connect 0 0 2 0;
#X connect 2 0 1 0;
#X connect 3 0 2 0;
#X connect 4 0 2 0;
#X connect 5 0 35 0;
#X connect 5 1 6 0;
#X connect 5 1 7 0;
#X connect 5 2 34 0;
#X connect 5 3 6 2;
#X connect 6 0 32 0;
#X connect 7 0 38 0;
#X connect 8 0 3 0;
#X connect 9 0 11 0;
#X connect 9 0 13 0;
#X connect 9 0 14 0;
#X connect 9 0 15 0;
#X connect 10 0 9 0;
#X connect 11 0 12 0;
#X connect 12 0 8 0;
#X connect 13 0 12 1;
#X connect 14 0 12 2;
#X connect 15 0 16 0;
#X connect 16 0 3 0;
#X connect 17 0 9 1;
#X connect 19 0 25 0;
#X connect 19 1 28 0;
#X connect 19 2 37 0;
#X connect 19 3 22 0;
#X connect 20 0 21 0;
#X connect 21 0 19 0;
#X connect 23 0 18 0;
#X connect 23 0 24 0;
#X connect 24 0 20 0;
#X connect 25 0 26 0;
#X connect 25 0 33 0;
#X connect 27 0 26 1;
#X connect 29 0 19 0;
#X connect 30 0 29 0;
#X connect 32 0 38 0;
#X connect 33 0 3 0;
#X connect 34 0 6 1;
#X connect 35 0 6 0;
#X connect 36 0 5 0;
#X connect 38 0 3 0;
#X connect 39 0 38 1;
#X connect 40 0 41 0;
#X connect 41 0 39 0;
#X connect 42 0 45 0;
#X connect 42 1 43 0;
#X connect 42 1 50 0;
#X connect 42 2 44 0;
#X connect 42 3 43 2;
#X connect 43 0 51 0;
#X connect 44 0 43 1;
#X connect 45 0 43 0;
#X connect 46 0 3 0;
#X connect 47 0 46 1;
#X connect 48 0 49 0;
#X connect 49 0 47 0;
#X connect 50 0 46 0;
#X connect 51 0 46 0;
#X connect 52 0 55 0;
#X connect 52 1 53 0;
#X connect 52 1 107 0;
#X connect 52 2 54 0;
#X connect 52 3 53 2;
#X connect 53 0 108 0;
#X connect 54 0 53 1;
#X connect 55 0 53 0;
#X connect 56 0 52 0;
#X connect 57 0 3 0;
#X connect 58 0 57 1;
#X connect 59 0 60 0;
#X connect 60 0 58 0;
#X connect 61 0 64 0;
#X connect 61 1 62 0;
#X connect 61 1 109 0;
#X connect 61 2 63 0;
#X connect 61 3 62 2;
#X connect 62 0 110 0;
#X connect 63 0 62 1;
#X connect 64 0 62 0;
#X connect 65 0 3 0;
#X connect 66 0 65 1;
#X connect 67 0 68 0;
#X connect 68 0 66 0;
#X connect 69 0 72 0;
#X connect 69 1 70 0;
#X connect 69 1 112 0;
#X connect 69 2 71 0;
#X connect 69 3 70 2;
#X connect 70 0 111 0;
#X connect 71 0 70 1;
#X connect 72 0 70 0;
#X connect 73 0 69 0;
#X connect 74 0 3 0;
#X connect 75 0 74 1;
#X connect 76 0 77 0;
#X connect 77 0 75 0;
#X connect 78 0 81 0;
#X connect 78 1 79 0;
#X connect 78 1 113 0;
#X connect 78 2 80 0;
#X connect 78 3 79 2;
#X connect 79 0 114 0;
#X connect 80 0 79 1;
#X connect 81 0 79 0;
#X connect 82 0 3 0;
#X connect 83 0 82 1;
#X connect 84 0 85 0;
#X connect 85 0 83 0;
#X connect 86 0 89 0;
#X connect 86 1 87 0;
#X connect 86 1 115 0;
#X connect 86 2 88 0;
#X connect 86 3 87 2;
#X connect 87 0 116 0;
#X connect 88 0 87 1;
#X connect 89 0 87 0;
#X connect 90 0 86 0;
#X connect 91 0 3 0;
#X connect 92 0 91 1;
#X connect 93 0 94 0;
#X connect 94 0 92 0;
#X connect 95 0 98 0;
#X connect 95 1 96 0;
#X connect 95 1 117 0;
#X connect 95 2 97 0;
#X connect 95 3 96 2;
#X connect 96 0 118 0;
#X connect 97 0 96 1;
#X connect 98 0 96 0;
#X connect 100 0 99 1;
#X connect 101 0 102 0;
#X connect 102 0 100 0;
#X connect 103 0 95 0;
#X connect 104 0 42 0;
#X connect 105 0 61 0;
#X connect 106 0 78 0;
#X connect 107 0 57 0;
#X connect 108 0 57 0;
#X connect 109 0 65 0;
#X connect 110 0 65 0;
#X connect 111 0 74 0;
#X connect 112 0 74 0;
#X connect 113 0 82 0;
#X connect 114 0 82 0;
#X connect 115 0 91 0;
#X connect 116 0 91 0;
#X connect 117 0 99 0;
#X connect 118 0 99 0;
#X connect 119 0 39 0;
#X connect 119 0 47 0;
#X connect 119 0 58 0;
#X connect 119 0 66 0;
#X connect 119 0 75 0;
#X connect 119 0 83 0;
#X connect 119 0 92 0;
#X connect 119 0 100 0;
#X connect 120 0 39 0;
#X connect 120 0 47 0;
#X connect 120 0 58 0;
#X connect 120 0 66 0;
#X connect 120 0 75 0;
#X connect 120 0 83 0;
#X connect 120 0 92 0;
#X connect 120 0 100 0;
