#N canvas 29 23 1330 1154 10;
#X msg 24 -340 disconnect;
#X obj 107 -241 tgl 30 0 empty empty 1=connected 34 15 0 12 -4034 -258113
-1 0 1;
#X obj 107 -270 mrpeach/udpsend;
#X obj 119 -337 mrpeach/packOSC;
#X msg 246 -337 connect 127.0.0.1 4243;
#X obj 613 -265 channelAnalyser;
#X obj 750 -101 pack f f f f;
#X msg 533 -81 sendtyped /ch1attack i 1;
#X msg 199 895 sendtyped /ch2 ffi \$1 \$2 \$3;
#X obj 265 703 metro 500;
#X obj 280 669 tgl 15 0 empty empty empty 17 7 0 10 -262144 -1 -1 0
1;
#X obj 177 806 random 127;
#X obj 204 856 pack i i i;
#X obj 246 808 random 127;
#X obj 322 810 random 127;
#X obj 256 732 bng 15 250 50 0 empty empty empty 17 7 0 10 -262144
-1 -1;
#X msg 401 760 sendtyped /ch2attack i 1;
#X floatatom 326 667 5 0 0 0 - - -;
#X msg 115 16 \; pd dsp 1;
#X obj 195 100 abl_link~ 1 0 4 120;
#X obj 196 47 tgl 15 0 empty empty empty 17 7 0 10 -262144 -1 -1 1
1;
#X msg 196 68 connect \$1;
#X floatatom 289 151 5 0 0 0 - - -;
#X obj 212 -21 loadbang;
#X msg 199 20 1;
#X floatatom 192 138 5 0 0 0 - - -;
#X obj 193 182 spigot;
#X obj 232 160 tgl 15 0 empty empty empty 17 7 0 10 -262144 -1 -1 0
1;
#X floatatom 364 143 5 0 0 0 - - -;
#X msg 289 22 tempo \$1;
#X floatatom 295 -16 5 0 0 2 tempo - -;
#X floatatom 232 138 5 0 0 0 - - -;
#X msg 725 -39 sendtyped /ch1 ffi \$1 \$2 \$3;
#X msg 130 224 sendtyped /measure i \$1;
#N canvas 0 23 674 564 nornmalize 0;
#X obj 107 35 inlet;
#X obj 292 30 inlet;
#X obj 134 269 f;
#X obj 97 242 > 0;
#X obj 128 242 spigot;
#X floatatom 135 307 5 0 0 0 - - -;
#X obj 163 216 tgl 15 0 empty empty empty 17 7 0 10 -262144 -1 -1 0
1;
#X msg 111 212 0;
#X obj 254 268 f;
#X obj 248 242 spigot;
#X obj 193 242 < 100;
#X obj 270 209 tgl 15 0 empty empty empty 17 7 0 10 -262144 -1 -1 0
1;
#X floatatom 248 307 5 0 0 0 - - -;
#X msg 218 212 100;
#X obj 113 111 bng 15 250 50 0 empty empty empty 17 7 0 10 -262144
-1 -1;
#X obj 243 423 -;
#X obj 331 422 -;
#X obj 294 342 t b f;
#X obj 269 466 /;
#X floatatom 380 517 5 0 0 0 - - -;
#X obj 269 543 outlet;
#X obj 117 135 hsl 50 15 0 1 0 0 empty empty empty -2 -8 0 10 -262144
-1 -1 0 1;
#X text 138 113 reset;
#X connect 0 0 3 0;
#X connect 0 0 10 0;
#X connect 0 0 4 0;
#X connect 0 0 9 0;
#X connect 0 0 15 0;
#X connect 1 0 14 0;
#X connect 2 0 5 0;
#X connect 2 0 16 0;
#X connect 3 0 6 0;
#X connect 4 0 2 0;
#X connect 4 0 3 1;
#X connect 6 0 4 1;
#X connect 7 0 3 1;
#X connect 8 0 12 0;
#X connect 8 0 15 1;
#X connect 9 0 8 0;
#X connect 9 0 10 1;
#X connect 9 0 17 0;
#X connect 10 0 11 0;
#X connect 11 0 9 1;
#X connect 13 0 10 1;
#X connect 14 0 7 0;
#X connect 14 0 13 0;
#X connect 15 0 18 0;
#X connect 16 0 18 1;
#X connect 17 0 16 0;
#X connect 17 1 16 1;
#X connect 18 0 19 0;
#X connect 18 0 20 0;
#X connect 19 0 21 0;
#X coords 0 -1 1 1 85 60 1 100 100;
#X restore 747 -175 pd nornmalize;
#N canvas 0 23 674 564 nornmalize 0;
#X obj 107 35 inlet;
#X obj 292 30 inlet;
#X obj 134 269 f;
#X obj 97 242 > 0;
#X obj 128 242 spigot;
#X floatatom 135 307 5 0 0 0 - - -;
#X obj 163 216 tgl 15 0 empty empty empty 17 7 0 10 -262144 -1 -1 0
1;
#X msg 111 212 0;
#X obj 254 268 f;
#X obj 248 242 spigot;
#X obj 193 242 < 100;
#X obj 270 209 tgl 15 0 empty empty empty 17 7 0 10 -262144 -1 -1 0
1;
#X floatatom 248 307 5 0 0 0 - - -;
#X msg 218 212 100;
#X obj 113 111 bng 15 250 50 0 empty empty empty 17 7 0 10 -262144
-1 -1;
#X obj 243 423 -;
#X obj 331 422 -;
#X obj 294 342 t b f;
#X obj 269 466 /;
#X floatatom 380 517 5 0 0 0 - - -;
#X obj 269 543 outlet;
#X obj 117 135 hsl 50 15 0 1 0 0 empty empty empty -2 -8 0 10 -262144
-1 -1 4900 1;
#X text 138 113 reset;
#X connect 0 0 3 0;
#X connect 0 0 10 0;
#X connect 0 0 4 0;
#X connect 0 0 9 0;
#X connect 0 0 15 0;
#X connect 1 0 14 0;
#X connect 2 0 5 0;
#X connect 2 0 16 0;
#X connect 3 0 6 0;
#X connect 4 0 2 0;
#X connect 4 0 3 1;
#X connect 6 0 4 1;
#X connect 7 0 3 1;
#X connect 8 0 12 0;
#X connect 8 0 15 1;
#X connect 9 0 8 0;
#X connect 9 0 10 1;
#X connect 9 0 17 0;
#X connect 10 0 11 0;
#X connect 11 0 9 1;
#X connect 13 0 10 1;
#X connect 14 0 7 0;
#X connect 14 0 13 0;
#X connect 15 0 18 0;
#X connect 16 0 18 1;
#X connect 17 0 16 0;
#X connect 17 1 16 1;
#X connect 18 0 19 0;
#X connect 18 0 20 0;
#X connect 19 0 21 0;
#X coords 0 -1 1 1 85 60 1 100 100;
#X restore 611 -167 pd nornmalize;
#X floatatom 299 210 5 0 0 0 - - -;
#X obj 590 24 spigot;
#X obj 623 1 tgl 15 0 empty empty empty 17 7 0 10 -262144 -1 -1 1 1
;
#X obj 624 -37 loadbang;
#X obj 623 -17 f 1;
#X obj 613 128 channelAnalyser;
#X obj 750 292 pack f f f f;
#N canvas 0 23 674 564 nornmalize 0;
#X obj 107 35 inlet;
#X obj 292 30 inlet;
#X obj 134 269 f;
#X obj 97 242 > 0;
#X obj 128 242 spigot;
#X floatatom 135 307 5 0 0 0 - - -;
#X obj 163 216 tgl 15 0 empty empty empty 17 7 0 10 -262144 -1 -1 0
1;
#X msg 111 212 0;
#X obj 254 268 f;
#X obj 248 242 spigot;
#X obj 193 242 < 100;
#X obj 270 209 tgl 15 0 empty empty empty 17 7 0 10 -262144 -1 -1 0
1;
#X floatatom 248 307 5 0 0 0 - - -;
#X msg 218 212 100;
#X obj 113 111 bng 15 250 50 0 empty empty empty 17 7 0 10 -262144
-1 -1;
#X obj 243 423 -;
#X obj 331 422 -;
#X obj 294 342 t b f;
#X obj 269 466 /;
#X floatatom 380 517 5 0 0 0 - - -;
#X obj 269 543 outlet;
#X obj 117 135 hsl 50 15 0 1 0 0 empty empty empty -2 -8 0 10 -262144
-1 -1 0 1;
#X text 138 113 reset;
#X connect 0 0 3 0;
#X connect 0 0 10 0;
#X connect 0 0 4 0;
#X connect 0 0 9 0;
#X connect 0 0 15 0;
#X connect 1 0 14 0;
#X connect 2 0 5 0;
#X connect 2 0 16 0;
#X connect 3 0 6 0;
#X connect 4 0 2 0;
#X connect 4 0 3 1;
#X connect 6 0 4 1;
#X connect 7 0 3 1;
#X connect 8 0 12 0;
#X connect 8 0 15 1;
#X connect 9 0 8 0;
#X connect 9 0 10 1;
#X connect 9 0 17 0;
#X connect 10 0 11 0;
#X connect 11 0 9 1;
#X connect 13 0 10 1;
#X connect 14 0 7 0;
#X connect 14 0 13 0;
#X connect 15 0 18 0;
#X connect 16 0 18 1;
#X connect 17 0 16 0;
#X connect 17 1 16 1;
#X connect 18 0 19 0;
#X connect 18 0 20 0;
#X connect 19 0 21 0;
#X coords 0 -1 1 1 85 60 1 100 100;
#X restore 742 214 pd nornmalize;
#N canvas 0 23 674 564 nornmalize 0;
#X obj 107 35 inlet;
#X obj 292 30 inlet;
#X obj 134 269 f;
#X obj 97 242 > 0;
#X obj 128 242 spigot;
#X floatatom 135 307 5 0 0 0 - - -;
#X obj 163 216 tgl 15 0 empty empty empty 17 7 0 10 -262144 -1 -1 0
1;
#X msg 111 212 0;
#X obj 254 268 f;
#X obj 248 242 spigot;
#X obj 193 242 < 100;
#X obj 270 209 tgl 15 0 empty empty empty 17 7 0 10 -262144 -1 -1 0
1;
#X floatatom 248 307 5 0 0 0 - - -;
#X msg 218 212 100;
#X obj 113 111 bng 15 250 50 0 empty empty empty 17 7 0 10 -262144
-1 -1;
#X obj 243 423 -;
#X obj 331 422 -;
#X obj 294 342 t b f;
#X obj 269 466 /;
#X floatatom 380 517 5 0 0 0 - - -;
#X obj 269 543 outlet;
#X obj 117 135 hsl 50 15 0 1 0 0 empty empty empty -2 -8 0 10 -262144
-1 -1 4900 1;
#X text 138 113 reset;
#X connect 0 0 3 0;
#X connect 0 0 10 0;
#X connect 0 0 4 0;
#X connect 0 0 9 0;
#X connect 0 0 15 0;
#X connect 1 0 14 0;
#X connect 2 0 5 0;
#X connect 2 0 16 0;
#X connect 3 0 6 0;
#X connect 4 0 2 0;
#X connect 4 0 3 1;
#X connect 6 0 4 1;
#X connect 7 0 3 1;
#X connect 8 0 12 0;
#X connect 8 0 15 1;
#X connect 9 0 8 0;
#X connect 9 0 10 1;
#X connect 9 0 17 0;
#X connect 10 0 11 0;
#X connect 11 0 9 1;
#X connect 13 0 10 1;
#X connect 14 0 7 0;
#X connect 14 0 13 0;
#X connect 15 0 18 0;
#X connect 16 0 18 1;
#X connect 17 0 16 0;
#X connect 17 1 16 1;
#X connect 18 0 19 0;
#X connect 18 0 20 0;
#X connect 19 0 21 0;
#X coords 0 -1 1 1 85 60 1 100 100;
#X restore 611 216 pd nornmalize;
#X obj 586 428 spigot;
#X obj 623 394 tgl 15 0 empty empty empty 17 7 0 10 -262144 -1 -1 1
1;
#X obj 624 356 loadbang;
#X obj 623 376 f 1;
#X msg 591 319 sendtyped /ch2attack i 1;
#X msg 748 319 sendtyped /ch2 ffi \$1 \$2 \$3;
#X obj 1010 136 channelAnalyser;
#X obj 1147 300 pack f f f f;
#N canvas 0 23 674 564 nornmalize 0;
#X obj 107 35 inlet;
#X obj 292 30 inlet;
#X obj 134 269 f;
#X obj 97 242 > 0;
#X obj 128 242 spigot;
#X floatatom 135 307 5 0 0 0 - - -;
#X obj 163 216 tgl 15 0 empty empty empty 17 7 0 10 -262144 -1 -1 0
1;
#X msg 111 212 0;
#X obj 254 268 f;
#X obj 248 242 spigot;
#X obj 193 242 < 100;
#X obj 270 209 tgl 15 0 empty empty empty 17 7 0 10 -262144 -1 -1 0
1;
#X floatatom 248 307 5 0 0 0 - - -;
#X msg 218 212 100;
#X obj 113 111 bng 15 250 50 0 empty empty empty 17 7 0 10 -262144
-1 -1;
#X obj 243 423 -;
#X obj 331 422 -;
#X obj 294 342 t b f;
#X obj 269 466 /;
#X floatatom 380 517 5 0 0 0 - - -;
#X obj 269 543 outlet;
#X obj 117 135 hsl 50 15 0 1 0 0 empty empty empty -2 -8 0 10 -262144
-1 -1 1507 1;
#X text 138 113 reset;
#X connect 0 0 3 0;
#X connect 0 0 10 0;
#X connect 0 0 4 0;
#X connect 0 0 9 0;
#X connect 0 0 15 0;
#X connect 1 0 14 0;
#X connect 2 0 5 0;
#X connect 2 0 16 0;
#X connect 3 0 6 0;
#X connect 4 0 2 0;
#X connect 4 0 3 1;
#X connect 6 0 4 1;
#X connect 7 0 3 1;
#X connect 8 0 12 0;
#X connect 8 0 15 1;
#X connect 9 0 8 0;
#X connect 9 0 10 1;
#X connect 9 0 17 0;
#X connect 10 0 11 0;
#X connect 11 0 9 1;
#X connect 13 0 10 1;
#X connect 14 0 7 0;
#X connect 14 0 13 0;
#X connect 15 0 18 0;
#X connect 16 0 18 1;
#X connect 17 0 16 0;
#X connect 17 1 16 1;
#X connect 18 0 19 0;
#X connect 18 0 20 0;
#X connect 19 0 21 0;
#X coords 0 -1 1 1 85 60 1 100 100;
#X restore 1139 222 pd nornmalize;
#N canvas 0 23 674 564 nornmalize 0;
#X obj 107 35 inlet;
#X obj 292 30 inlet;
#X obj 134 269 f;
#X obj 97 242 > 0;
#X obj 128 242 spigot;
#X floatatom 135 307 5 0 0 0 - - -;
#X obj 163 216 tgl 15 0 empty empty empty 17 7 0 10 -262144 -1 -1 0
1;
#X msg 111 212 0;
#X obj 254 268 f;
#X obj 248 242 spigot;
#X obj 193 242 < 100;
#X obj 270 209 tgl 15 0 empty empty empty 17 7 0 10 -262144 -1 -1 0
1;
#X floatatom 248 307 5 0 0 0 - - -;
#X msg 218 212 100;
#X obj 113 111 bng 15 250 50 0 empty empty empty 17 7 0 10 -262144
-1 -1;
#X obj 243 423 -;
#X obj 331 422 -;
#X obj 294 342 t b f;
#X obj 269 466 /;
#X floatatom 380 517 5 0 0 0 - - -;
#X obj 269 543 outlet;
#X obj 117 135 hsl 50 15 0 1 0 0 empty empty empty -2 -8 0 10 -262144
-1 -1 390 1;
#X text 138 113 reset;
#X connect 0 0 3 0;
#X connect 0 0 10 0;
#X connect 0 0 4 0;
#X connect 0 0 9 0;
#X connect 0 0 15 0;
#X connect 1 0 14 0;
#X connect 2 0 5 0;
#X connect 2 0 16 0;
#X connect 3 0 6 0;
#X connect 4 0 2 0;
#X connect 4 0 3 1;
#X connect 6 0 4 1;
#X connect 7 0 3 1;
#X connect 8 0 12 0;
#X connect 8 0 15 1;
#X connect 9 0 8 0;
#X connect 9 0 10 1;
#X connect 9 0 17 0;
#X connect 10 0 11 0;
#X connect 11 0 9 1;
#X connect 13 0 10 1;
#X connect 14 0 7 0;
#X connect 14 0 13 0;
#X connect 15 0 18 0;
#X connect 16 0 18 1;
#X connect 17 0 16 0;
#X connect 17 1 16 1;
#X connect 18 0 19 0;
#X connect 18 0 20 0;
#X connect 19 0 21 0;
#X coords 0 -1 1 1 85 60 1 100 100;
#X restore 1008 224 pd nornmalize;
#X obj 987 425 spigot;
#X obj 1020 402 tgl 15 0 empty empty empty 17 7 0 10 -262144 -1 -1
1 1;
#X obj 1021 364 loadbang;
#X obj 1020 384 f 1;
#X obj 1010 529 channelAnalyser;
#X obj 1147 693 pack f f f f;
#N canvas 0 23 674 564 nornmalize 0;
#X obj 107 35 inlet;
#X obj 292 30 inlet;
#X obj 134 269 f;
#X obj 97 242 > 0;
#X obj 128 242 spigot;
#X floatatom 135 307 5 0 0 0 - - -;
#X obj 163 216 tgl 15 0 empty empty empty 17 7 0 10 -262144 -1 -1 0
1;
#X msg 111 212 0;
#X obj 254 268 f;
#X obj 248 242 spigot;
#X obj 193 242 < 100;
#X obj 270 209 tgl 15 0 empty empty empty 17 7 0 10 -262144 -1 -1 0
1;
#X floatatom 248 307 5 0 0 0 - - -;
#X msg 218 212 100;
#X obj 113 111 bng 15 250 50 0 empty empty empty 17 7 0 10 -262144
-1 -1;
#X obj 243 423 -;
#X obj 331 422 -;
#X obj 294 342 t b f;
#X obj 269 466 /;
#X floatatom 380 517 5 0 0 0 - - -;
#X obj 269 543 outlet;
#X obj 117 135 hsl 50 15 0 1 0 0 empty empty empty -2 -8 0 10 -262144
-1 -1 1322 1;
#X text 138 113 reset;
#X connect 0 0 3 0;
#X connect 0 0 10 0;
#X connect 0 0 4 0;
#X connect 0 0 9 0;
#X connect 0 0 15 0;
#X connect 1 0 14 0;
#X connect 2 0 5 0;
#X connect 2 0 16 0;
#X connect 3 0 6 0;
#X connect 4 0 2 0;
#X connect 4 0 3 1;
#X connect 6 0 4 1;
#X connect 7 0 3 1;
#X connect 8 0 12 0;
#X connect 8 0 15 1;
#X connect 9 0 8 0;
#X connect 9 0 10 1;
#X connect 9 0 17 0;
#X connect 10 0 11 0;
#X connect 11 0 9 1;
#X connect 13 0 10 1;
#X connect 14 0 7 0;
#X connect 14 0 13 0;
#X connect 15 0 18 0;
#X connect 16 0 18 1;
#X connect 17 0 16 0;
#X connect 17 1 16 1;
#X connect 18 0 19 0;
#X connect 18 0 20 0;
#X connect 19 0 21 0;
#X coords 0 -1 1 1 85 60 1 100 100;
#X restore 1139 615 pd nornmalize;
#N canvas 0 23 674 564 nornmalize 0;
#X obj 107 35 inlet;
#X obj 292 30 inlet;
#X obj 134 269 f;
#X obj 97 242 > 0;
#X obj 128 242 spigot;
#X floatatom 135 307 5 0 0 0 - - -;
#X obj 163 216 tgl 15 0 empty empty empty 17 7 0 10 -262144 -1 -1 0
1;
#X msg 111 212 0;
#X obj 254 268 f;
#X obj 248 242 spigot;
#X obj 193 242 < 100;
#X obj 270 209 tgl 15 0 empty empty empty 17 7 0 10 -262144 -1 -1 0
1;
#X floatatom 248 307 5 0 0 0 - - -;
#X msg 218 212 100;
#X obj 113 111 bng 15 250 50 0 empty empty empty 17 7 0 10 -262144
-1 -1;
#X obj 243 423 -;
#X obj 331 422 -;
#X obj 294 342 t b f;
#X obj 269 466 /;
#X floatatom 380 517 5 0 0 0 - - -;
#X obj 269 543 outlet;
#X obj 117 135 hsl 50 15 0 1 0 0 empty empty empty -2 -8 0 10 -262144
-1 -1 279 1;
#X text 138 113 reset;
#X connect 0 0 3 0;
#X connect 0 0 10 0;
#X connect 0 0 4 0;
#X connect 0 0 9 0;
#X connect 0 0 15 0;
#X connect 1 0 14 0;
#X connect 2 0 5 0;
#X connect 2 0 16 0;
#X connect 3 0 6 0;
#X connect 4 0 2 0;
#X connect 4 0 3 1;
#X connect 6 0 4 1;
#X connect 7 0 3 1;
#X connect 8 0 12 0;
#X connect 8 0 15 1;
#X connect 9 0 8 0;
#X connect 9 0 10 1;
#X connect 9 0 17 0;
#X connect 10 0 11 0;
#X connect 11 0 9 1;
#X connect 13 0 10 1;
#X connect 14 0 7 0;
#X connect 14 0 13 0;
#X connect 15 0 18 0;
#X connect 16 0 18 1;
#X connect 17 0 16 0;
#X connect 17 1 16 1;
#X connect 18 0 19 0;
#X connect 18 0 20 0;
#X connect 19 0 21 0;
#X coords 0 -1 1 1 85 60 1 100 100;
#X restore 1008 617 pd nornmalize;
#X obj 987 818 spigot;
#X obj 1020 795 tgl 15 0 empty empty empty 17 7 0 10 -262144 -1 -1
1 1;
#X obj 1021 757 loadbang;
#X obj 1020 777 f 1;
#X obj 975 908 channelAnalyser;
#X obj 1112 1072 pack f f f f;
#N canvas 0 23 674 564 nornmalize 0;
#X obj 107 35 inlet;
#X obj 292 30 inlet;
#X obj 134 269 f;
#X obj 97 242 > 0;
#X obj 128 242 spigot;
#X floatatom 135 307 5 0 0 0 - - -;
#X obj 163 216 tgl 15 0 empty empty empty 17 7 0 10 -262144 -1 -1 0
1;
#X msg 111 212 0;
#X obj 254 268 f;
#X obj 248 242 spigot;
#X obj 193 242 < 100;
#X obj 270 209 tgl 15 0 empty empty empty 17 7 0 10 -262144 -1 -1 0
1;
#X floatatom 248 307 5 0 0 0 - - -;
#X msg 218 212 100;
#X obj 113 111 bng 15 250 50 0 empty empty empty 17 7 0 10 -262144
-1 -1;
#X obj 243 423 -;
#X obj 331 422 -;
#X obj 294 342 t b f;
#X obj 269 466 /;
#X floatatom 380 517 5 0 0 0 - - -;
#X obj 269 543 outlet;
#X obj 117 135 hsl 50 15 0 1 0 0 empty empty empty -2 -8 0 10 -262144
-1 -1 788 1;
#X text 138 113 reset;
#X connect 0 0 3 0;
#X connect 0 0 10 0;
#X connect 0 0 4 0;
#X connect 0 0 9 0;
#X connect 0 0 15 0;
#X connect 1 0 14 0;
#X connect 2 0 5 0;
#X connect 2 0 16 0;
#X connect 3 0 6 0;
#X connect 4 0 2 0;
#X connect 4 0 3 1;
#X connect 6 0 4 1;
#X connect 7 0 3 1;
#X connect 8 0 12 0;
#X connect 8 0 15 1;
#X connect 9 0 8 0;
#X connect 9 0 10 1;
#X connect 9 0 17 0;
#X connect 10 0 11 0;
#X connect 11 0 9 1;
#X connect 13 0 10 1;
#X connect 14 0 7 0;
#X connect 14 0 13 0;
#X connect 15 0 18 0;
#X connect 16 0 18 1;
#X connect 17 0 16 0;
#X connect 17 1 16 1;
#X connect 18 0 19 0;
#X connect 18 0 20 0;
#X connect 19 0 21 0;
#X coords 0 -1 1 1 85 60 1 100 100;
#X restore 1104 994 pd nornmalize;
#N canvas 0 23 674 564 nornmalize 0;
#X obj 107 35 inlet;
#X obj 292 30 inlet;
#X obj 134 269 f;
#X obj 97 242 > 0;
#X obj 128 242 spigot;
#X floatatom 135 307 5 0 0 0 - - -;
#X obj 163 216 tgl 15 0 empty empty empty 17 7 0 10 -262144 -1 -1 0
1;
#X msg 111 212 0;
#X obj 254 268 f;
#X obj 248 242 spigot;
#X obj 193 242 < 100;
#X obj 270 209 tgl 15 0 empty empty empty 17 7 0 10 -262144 -1 -1 0
1;
#X floatatom 248 307 5 0 0 0 - - -;
#X msg 218 212 100;
#X obj 113 111 bng 15 250 50 0 empty empty empty 17 7 0 10 -262144
-1 -1;
#X obj 243 423 -;
#X obj 331 422 -;
#X obj 294 342 t b f;
#X obj 269 466 /;
#X floatatom 380 517 5 0 0 0 - - -;
#X obj 269 543 outlet;
#X obj 117 135 hsl 50 15 0 1 0 0 empty empty empty -2 -8 0 10 -262144
-1 -1 105 1;
#X text 138 113 reset;
#X connect 0 0 3 0;
#X connect 0 0 10 0;
#X connect 0 0 4 0;
#X connect 0 0 9 0;
#X connect 0 0 15 0;
#X connect 1 0 14 0;
#X connect 2 0 5 0;
#X connect 2 0 16 0;
#X connect 3 0 6 0;
#X connect 4 0 2 0;
#X connect 4 0 3 1;
#X connect 6 0 4 1;
#X connect 7 0 3 1;
#X connect 8 0 12 0;
#X connect 8 0 15 1;
#X connect 9 0 8 0;
#X connect 9 0 10 1;
#X connect 9 0 17 0;
#X connect 10 0 11 0;
#X connect 11 0 9 1;
#X connect 13 0 10 1;
#X connect 14 0 7 0;
#X connect 14 0 13 0;
#X connect 15 0 18 0;
#X connect 16 0 18 1;
#X connect 17 0 16 0;
#X connect 17 1 16 1;
#X connect 18 0 19 0;
#X connect 18 0 20 0;
#X connect 19 0 21 0;
#X coords 0 -1 1 1 85 60 1 100 100;
#X restore 973 996 pd nornmalize;
#X obj 952 1197 spigot;
#X obj 985 1174 tgl 15 0 empty empty empty 17 7 0 10 -262144 -1 -1
1 1;
#X obj 986 1136 loadbang;
#X obj 985 1156 f 1;
#X obj 1416 -283 channelAnalyser;
#X obj 1553 -119 pack f f f f;
#N canvas 0 23 674 564 nornmalize 0;
#X obj 107 35 inlet;
#X obj 292 30 inlet;
#X obj 134 269 f;
#X obj 97 242 > 0;
#X obj 128 242 spigot;
#X floatatom 135 307 5 0 0 0 - - -;
#X obj 163 216 tgl 15 0 empty empty empty 17 7 0 10 -262144 -1 -1 0
1;
#X msg 111 212 0;
#X obj 254 268 f;
#X obj 248 242 spigot;
#X obj 193 242 < 100;
#X obj 270 209 tgl 15 0 empty empty empty 17 7 0 10 -262144 -1 -1 0
1;
#X floatatom 248 307 5 0 0 0 - - -;
#X msg 218 212 100;
#X obj 113 111 bng 15 250 50 0 empty empty empty 17 7 0 10 -262144
-1 -1;
#X obj 243 423 -;
#X obj 331 422 -;
#X obj 294 342 t b f;
#X obj 269 466 /;
#X floatatom 380 517 5 0 0 0 - - -;
#X obj 269 543 outlet;
#X obj 117 135 hsl 50 15 0 1 0 0 empty empty empty -2 -8 0 10 -262144
-1 -1 0 1;
#X text 138 113 reset;
#X connect 0 0 3 0;
#X connect 0 0 10 0;
#X connect 0 0 4 0;
#X connect 0 0 9 0;
#X connect 0 0 15 0;
#X connect 1 0 14 0;
#X connect 2 0 5 0;
#X connect 2 0 16 0;
#X connect 3 0 6 0;
#X connect 4 0 2 0;
#X connect 4 0 3 1;
#X connect 6 0 4 1;
#X connect 7 0 3 1;
#X connect 8 0 12 0;
#X connect 8 0 15 1;
#X connect 9 0 8 0;
#X connect 9 0 10 1;
#X connect 9 0 17 0;
#X connect 10 0 11 0;
#X connect 11 0 9 1;
#X connect 13 0 10 1;
#X connect 14 0 7 0;
#X connect 14 0 13 0;
#X connect 15 0 18 0;
#X connect 16 0 18 1;
#X connect 17 0 16 0;
#X connect 17 1 16 1;
#X connect 18 0 19 0;
#X connect 18 0 20 0;
#X connect 19 0 21 0;
#X coords 0 -1 1 1 85 60 1 100 100;
#X restore 1545 -197 pd nornmalize;
#N canvas 0 23 674 564 nornmalize 0;
#X obj 107 35 inlet;
#X obj 292 30 inlet;
#X obj 134 269 f;
#X obj 97 242 > 0;
#X obj 128 242 spigot;
#X floatatom 135 307 5 0 0 0 - - -;
#X obj 163 216 tgl 15 0 empty empty empty 17 7 0 10 -262144 -1 -1 0
1;
#X msg 111 212 0;
#X obj 254 268 f;
#X obj 248 242 spigot;
#X obj 193 242 < 100;
#X obj 270 209 tgl 15 0 empty empty empty 17 7 0 10 -262144 -1 -1 0
1;
#X floatatom 248 307 5 0 0 0 - - -;
#X msg 218 212 100;
#X obj 113 111 bng 15 250 50 0 empty empty empty 17 7 0 10 -262144
-1 -1;
#X obj 243 423 -;
#X obj 331 422 -;
#X obj 294 342 t b f;
#X obj 269 466 /;
#X floatatom 380 517 5 0 0 0 - - -;
#X obj 269 543 outlet;
#X obj 117 135 hsl 50 15 0 1 0 0 empty empty empty -2 -8 0 10 -262144
-1 -1 159 1;
#X text 138 113 reset;
#X connect 0 0 3 0;
#X connect 0 0 10 0;
#X connect 0 0 4 0;
#X connect 0 0 9 0;
#X connect 0 0 15 0;
#X connect 1 0 14 0;
#X connect 2 0 5 0;
#X connect 2 0 16 0;
#X connect 3 0 6 0;
#X connect 4 0 2 0;
#X connect 4 0 3 1;
#X connect 6 0 4 1;
#X connect 7 0 3 1;
#X connect 8 0 12 0;
#X connect 8 0 15 1;
#X connect 9 0 8 0;
#X connect 9 0 10 1;
#X connect 9 0 17 0;
#X connect 10 0 11 0;
#X connect 11 0 9 1;
#X connect 13 0 10 1;
#X connect 14 0 7 0;
#X connect 14 0 13 0;
#X connect 15 0 18 0;
#X connect 16 0 18 1;
#X connect 17 0 16 0;
#X connect 17 1 16 1;
#X connect 18 0 19 0;
#X connect 18 0 20 0;
#X connect 19 0 21 0;
#X coords 0 -1 1 1 85 60 1 100 100;
#X restore 1414 -195 pd nornmalize;
#X obj 1393 6 spigot;
#X obj 1426 -17 tgl 15 0 empty empty empty 17 7 0 10 -262144 -1 -1
1 1;
#X obj 1427 -55 loadbang;
#X obj 1426 -35 f 1;
#X obj 1426 130 channelAnalyser;
#X obj 1563 294 pack f f f f;
#N canvas 0 23 674 564 nornmalize 0;
#X obj 107 35 inlet;
#X obj 292 30 inlet;
#X obj 134 269 f;
#X obj 97 242 > 0;
#X obj 128 242 spigot;
#X floatatom 135 307 5 0 0 0 - - -;
#X obj 163 216 tgl 15 0 empty empty empty 17 7 0 10 -262144 -1 -1 0
1;
#X msg 111 212 0;
#X obj 254 268 f;
#X obj 248 242 spigot;
#X obj 193 242 < 100;
#X obj 270 209 tgl 15 0 empty empty empty 17 7 0 10 -262144 -1 -1 0
1;
#X floatatom 248 307 5 0 0 0 - - -;
#X msg 218 212 100;
#X obj 113 111 bng 15 250 50 0 empty empty empty 17 7 0 10 -262144
-1 -1;
#X obj 243 423 -;
#X obj 331 422 -;
#X obj 294 342 t b f;
#X obj 269 466 /;
#X floatatom 380 517 5 0 0 0 - - -;
#X obj 269 543 outlet;
#X obj 117 135 hsl 50 15 0 1 0 0 empty empty empty -2 -8 0 10 -262144
-1 -1 0 1;
#X text 138 113 reset;
#X connect 0 0 3 0;
#X connect 0 0 10 0;
#X connect 0 0 4 0;
#X connect 0 0 9 0;
#X connect 0 0 15 0;
#X connect 1 0 14 0;
#X connect 2 0 5 0;
#X connect 2 0 16 0;
#X connect 3 0 6 0;
#X connect 4 0 2 0;
#X connect 4 0 3 1;
#X connect 6 0 4 1;
#X connect 7 0 3 1;
#X connect 8 0 12 0;
#X connect 8 0 15 1;
#X connect 9 0 8 0;
#X connect 9 0 10 1;
#X connect 9 0 17 0;
#X connect 10 0 11 0;
#X connect 11 0 9 1;
#X connect 13 0 10 1;
#X connect 14 0 7 0;
#X connect 14 0 13 0;
#X connect 15 0 18 0;
#X connect 16 0 18 1;
#X connect 17 0 16 0;
#X connect 17 1 16 1;
#X connect 18 0 19 0;
#X connect 18 0 20 0;
#X connect 19 0 21 0;
#X coords 0 -1 1 1 85 60 1 100 100;
#X restore 1555 216 pd nornmalize;
#N canvas 0 23 674 564 nornmalize 0;
#X obj 107 35 inlet;
#X obj 292 30 inlet;
#X obj 134 269 f;
#X obj 97 242 > 0;
#X obj 128 242 spigot;
#X floatatom 135 307 5 0 0 0 - - -;
#X obj 163 216 tgl 15 0 empty empty empty 17 7 0 10 -262144 -1 -1 0
1;
#X msg 111 212 0;
#X obj 254 268 f;
#X obj 248 242 spigot;
#X obj 193 242 < 100;
#X obj 270 209 tgl 15 0 empty empty empty 17 7 0 10 -262144 -1 -1 0
1;
#X floatatom 248 307 5 0 0 0 - - -;
#X msg 218 212 100;
#X obj 113 111 bng 15 250 50 0 empty empty empty 17 7 0 10 -262144
-1 -1;
#X obj 243 423 -;
#X obj 331 422 -;
#X obj 294 342 t b f;
#X obj 269 466 /;
#X floatatom 380 517 5 0 0 0 - - -;
#X obj 269 543 outlet;
#X obj 117 135 hsl 50 15 0 1 0 0 empty empty empty -2 -8 0 10 -262144
-1 -1 0 1;
#X text 138 113 reset;
#X connect 0 0 3 0;
#X connect 0 0 10 0;
#X connect 0 0 4 0;
#X connect 0 0 9 0;
#X connect 0 0 15 0;
#X connect 1 0 14 0;
#X connect 2 0 5 0;
#X connect 2 0 16 0;
#X connect 3 0 6 0;
#X connect 4 0 2 0;
#X connect 4 0 3 1;
#X connect 6 0 4 1;
#X connect 7 0 3 1;
#X connect 8 0 12 0;
#X connect 8 0 15 1;
#X connect 9 0 8 0;
#X connect 9 0 10 1;
#X connect 9 0 17 0;
#X connect 10 0 11 0;
#X connect 11 0 9 1;
#X connect 13 0 10 1;
#X connect 14 0 7 0;
#X connect 14 0 13 0;
#X connect 15 0 18 0;
#X connect 16 0 18 1;
#X connect 17 0 16 0;
#X connect 17 1 16 1;
#X connect 18 0 19 0;
#X connect 18 0 20 0;
#X connect 19 0 21 0;
#X coords 0 -1 1 1 85 60 1 100 100;
#X restore 1424 218 pd nornmalize;
#X obj 1403 419 spigot;
#X obj 1436 396 tgl 15 0 empty empty empty 17 7 0 10 -262144 -1 -1
1 1;
#X obj 1437 358 loadbang;
#X obj 1436 378 f 1;
#X msg 989 329 sendtyped /ch4attack i 1;
#X msg 1150 329 sendtyped /ch4 ffi \$1 \$2 \$3;
#X msg 989 722 sendtyped /ch5attack i 1;
#X msg 1150 722 sendtyped /ch5 ffi \$1 \$2 \$3;
#X msg 1115 1101 sendtyped /ch6 ffi \$1 \$2 \$3;
#X msg 954 1101 sendtyped /ch6attack i 1;
#X msg 1395 -90 sendtyped /ch7attack i 1;
#X msg 1556 -90 sendtyped /ch7 ffi \$1 \$2 \$3;
#X msg 1405 323 sendtyped /ch8attack i 1;
#X msg 1566 323 sendtyped /ch8 ffi \$1 \$2 \$3;
#X msg 263 -265 0;
#X msg 296 -266 1;
#X obj 563 -293 *~;
#X obj 617 -310 / 127;
#X obj 617 106 *~;
#X obj 630 82 / 127;
#X obj 1007 103 *~;
#X obj 1023 83 / 127;
#X obj 976 61 adc~ 4;
#X obj 1011 500 *~;
#X obj 1027 480 / 127;
#X obj 980 458 adc~ 5;
#X obj 980 885 *~;
#X obj 996 865 / 127;
#X obj 949 843 adc~ 6;
#X obj 1415 -306 *~;
#X obj 1431 -326 / 127;
#X obj 1384 -348 adc~ 7;
#X obj 1433 104 *~;
#X obj 1449 84 / 127;
#X obj 1402 62 adc~ 8;
#X obj 584 60 adc~ 2;
#X obj 1015 -318 channelAnalyser;
#X obj 1152 -154 pack f f f f;
#N canvas 0 23 674 564 nornmalize 0;
#X obj 107 35 inlet;
#X obj 292 30 inlet;
#X obj 134 269 f;
#X obj 97 242 > 0;
#X obj 128 242 spigot;
#X floatatom 135 307 5 0 0 0 - - -;
#X obj 163 216 tgl 15 0 empty empty empty 17 7 0 10 -262144 -1 -1 0
1;
#X msg 111 212 0;
#X obj 254 268 f;
#X obj 248 242 spigot;
#X obj 193 242 < 100;
#X obj 270 209 tgl 15 0 empty empty empty 17 7 0 10 -262144 -1 -1 0
1;
#X floatatom 248 307 5 0 0 0 - - -;
#X msg 218 212 100;
#X obj 113 111 bng 15 250 50 0 empty empty empty 17 7 0 10 -262144
-1 -1;
#X obj 243 423 -;
#X obj 331 422 -;
#X obj 294 342 t b f;
#X obj 269 466 /;
#X floatatom 380 517 5 0 0 0 - - -;
#X obj 269 543 outlet;
#X obj 117 135 hsl 50 15 0 1 0 0 empty empty empty -2 -8 0 10 -262144
-1 -1 1654 1;
#X text 138 113 reset;
#X connect 0 0 3 0;
#X connect 0 0 10 0;
#X connect 0 0 4 0;
#X connect 0 0 9 0;
#X connect 0 0 15 0;
#X connect 1 0 14 0;
#X connect 2 0 5 0;
#X connect 2 0 16 0;
#X connect 3 0 6 0;
#X connect 4 0 2 0;
#X connect 4 0 3 1;
#X connect 6 0 4 1;
#X connect 7 0 3 1;
#X connect 8 0 12 0;
#X connect 8 0 15 1;
#X connect 9 0 8 0;
#X connect 9 0 10 1;
#X connect 9 0 17 0;
#X connect 10 0 11 0;
#X connect 11 0 9 1;
#X connect 13 0 10 1;
#X connect 14 0 7 0;
#X connect 14 0 13 0;
#X connect 15 0 18 0;
#X connect 16 0 18 1;
#X connect 17 0 16 0;
#X connect 17 1 16 1;
#X connect 18 0 19 0;
#X connect 18 0 20 0;
#X connect 19 0 21 0;
#X coords 0 -1 1 1 85 60 1 100 100;
#X restore 1144 -232 pd nornmalize;
#N canvas 0 23 674 564 nornmalize 0;
#X obj 107 35 inlet;
#X obj 292 30 inlet;
#X obj 134 269 f;
#X obj 97 242 > 0;
#X obj 128 242 spigot;
#X floatatom 135 307 5 0 0 0 - - -;
#X obj 163 216 tgl 15 0 empty empty empty 17 7 0 10 -262144 -1 -1 0
1;
#X msg 111 212 0;
#X obj 254 268 f;
#X obj 248 242 spigot;
#X obj 193 242 < 100;
#X obj 270 209 tgl 15 0 empty empty empty 17 7 0 10 -262144 -1 -1 0
1;
#X floatatom 248 307 5 0 0 0 - - -;
#X msg 218 212 100;
#X obj 113 111 bng 15 250 50 0 empty empty empty 17 7 0 10 -262144
-1 -1;
#X obj 243 423 -;
#X obj 331 422 -;
#X obj 294 342 t b f;
#X obj 269 466 /;
#X floatatom 380 517 5 0 0 0 - - -;
#X obj 269 543 outlet;
#X obj 117 135 hsl 50 15 0 1 0 0 empty empty empty -2 -8 0 10 -262144
-1 -1 1571 1;
#X text 138 113 reset;
#X connect 0 0 3 0;
#X connect 0 0 10 0;
#X connect 0 0 4 0;
#X connect 0 0 9 0;
#X connect 0 0 15 0;
#X connect 1 0 14 0;
#X connect 2 0 5 0;
#X connect 2 0 16 0;
#X connect 3 0 6 0;
#X connect 4 0 2 0;
#X connect 4 0 3 1;
#X connect 6 0 4 1;
#X connect 7 0 3 1;
#X connect 8 0 12 0;
#X connect 8 0 15 1;
#X connect 9 0 8 0;
#X connect 9 0 10 1;
#X connect 9 0 17 0;
#X connect 10 0 11 0;
#X connect 11 0 9 1;
#X connect 13 0 10 1;
#X connect 14 0 7 0;
#X connect 14 0 13 0;
#X connect 15 0 18 0;
#X connect 16 0 18 1;
#X connect 17 0 16 0;
#X connect 17 1 16 1;
#X connect 18 0 19 0;
#X connect 18 0 20 0;
#X connect 19 0 21 0;
#X coords 0 -1 1 1 85 60 1 100 100;
#X restore 1013 -230 pd nornmalize;
#X obj 988 -18 spigot;
#X obj 1025 -52 tgl 15 0 empty empty empty 17 7 0 10 -262144 -1 -1
1 1;
#X obj 1026 -90 loadbang;
#X obj 1025 -70 f 1;
#X obj 1019 -340 *~;
#X obj 1032 -364 / 127;
#X obj 986 -386 adc~ 3;
#X msg 385 -387 bang resety normalize;
#X obj 328 -419 bng 50 250 50 0 empty empty empty 17 7 0 10 -4032 -1
-1;
#X msg 993 -127 sendtyped /ch3attack i 1;
#X msg 1150 -127 sendtyped /ch3 ffi \$1 \$2 \$3;
#X obj 570 -332 adc~ 1;
#X obj 240 -412 loadbang;
#X obj 154 -179 select 0;
#X obj 183 -136 pipe 1000;
#X obj 678 -381 ctlin 49 14;
#X obj 629 62 ctlin 50 14;
#X obj 1047 -390 ctlin 51 14;
#X obj 1022 63 ctlin 52 14;
#X obj 1026 460 ctlin 53 14;
#X obj 995 846 ctlin 54 14;
#X obj 1430 -346 ctlin 55 14;
#X obj 1448 64 ctlin 56 14;
#X msg 140 -401 0;
#X floatatom 101 -402 5 0 127 0 global_volume - -;
#X connect 0 0 2 0;
#X connect 1 0 140 0;
#X connect 2 0 1 0;
#X connect 3 0 2 0;
#X connect 4 0 2 0;
#X connect 5 0 35 0;
#X connect 5 1 6 0;
#X connect 5 1 7 0;
#X connect 5 2 34 0;
#X connect 5 3 6 2;
#X connect 6 0 32 0;
#X connect 7 0 37 0;
#X connect 8 0 3 0;
#X connect 9 0 11 0;
#X connect 9 0 13 0;
#X connect 9 0 14 0;
#X connect 9 0 15 0;
#X connect 10 0 9 0;
#X connect 11 0 12 0;
#X connect 12 0 8 0;
#X connect 13 0 12 1;
#X connect 14 0 12 2;
#X connect 15 0 16 0;
#X connect 16 0 3 0;
#X connect 17 0 9 1;
#X connect 19 0 25 0;
#X connect 19 1 28 0;
#X connect 19 2 36 0;
#X connect 19 3 22 0;
#X connect 20 0 21 0;
#X connect 21 0 19 0;
#X connect 23 0 18 0;
#X connect 23 0 24 0;
#X connect 24 0 20 0;
#X connect 25 0 26 0;
#X connect 25 0 33 0;
#X connect 27 0 26 1;
#X connect 29 0 19 0;
#X connect 30 0 29 0;
#X connect 32 0 37 0;
#X connect 33 0 3 0;
#X connect 34 0 6 1;
#X connect 35 0 6 0;
#X connect 37 0 3 0;
#X connect 38 0 37 1;
#X connect 39 0 40 0;
#X connect 40 0 38 0;
#X connect 41 0 44 0;
#X connect 41 1 42 0;
#X connect 41 1 49 0;
#X connect 41 2 43 0;
#X connect 41 3 42 2;
#X connect 42 0 50 0;
#X connect 43 0 42 1;
#X connect 44 0 42 0;
#X connect 45 0 3 0;
#X connect 46 0 45 1;
#X connect 47 0 48 0;
#X connect 48 0 46 0;
#X connect 49 0 45 0;
#X connect 50 0 45 0;
#X connect 51 0 54 0;
#X connect 51 1 52 0;
#X connect 51 1 91 0;
#X connect 51 2 53 0;
#X connect 51 3 52 2;
#X connect 52 0 92 0;
#X connect 53 0 52 1;
#X connect 54 0 52 0;
#X connect 55 0 3 0;
#X connect 56 0 55 1;
#X connect 57 0 58 0;
#X connect 58 0 56 0;
#X connect 59 0 62 0;
#X connect 59 1 60 0;
#X connect 59 1 93 0;
#X connect 59 2 61 0;
#X connect 59 3 60 2;
#X connect 60 0 94 0;
#X connect 61 0 60 1;
#X connect 62 0 60 0;
#X connect 63 0 3 0;
#X connect 64 0 63 1;
#X connect 65 0 66 0;
#X connect 66 0 64 0;
#X connect 67 0 70 0;
#X connect 67 1 68 0;
#X connect 67 1 96 0;
#X connect 67 2 69 0;
#X connect 67 3 68 2;
#X connect 68 0 95 0;
#X connect 69 0 68 1;
#X connect 70 0 68 0;
#X connect 71 0 3 0;
#X connect 72 0 71 1;
#X connect 73 0 74 0;
#X connect 74 0 72 0;
#X connect 75 0 78 0;
#X connect 75 1 76 0;
#X connect 75 1 97 0;
#X connect 75 2 77 0;
#X connect 75 3 76 2;
#X connect 76 0 98 0;
#X connect 77 0 76 1;
#X connect 78 0 76 0;
#X connect 79 0 3 0;
#X connect 80 0 79 1;
#X connect 81 0 82 0;
#X connect 82 0 80 0;
#X connect 83 0 86 0;
#X connect 83 1 84 0;
#X connect 83 1 99 0;
#X connect 83 2 85 0;
#X connect 83 3 84 2;
#X connect 84 0 100 0;
#X connect 85 0 84 1;
#X connect 86 0 84 0;
#X connect 87 0 3 0;
#X connect 88 0 87 1;
#X connect 89 0 90 0;
#X connect 90 0 88 0;
#X connect 91 0 55 0;
#X connect 92 0 55 0;
#X connect 93 0 63 0;
#X connect 94 0 63 0;
#X connect 95 0 71 0;
#X connect 96 0 71 0;
#X connect 97 0 79 0;
#X connect 98 0 79 0;
#X connect 99 0 87 0;
#X connect 100 0 87 0;
#X connect 101 0 38 0;
#X connect 101 0 46 0;
#X connect 101 0 56 0;
#X connect 101 0 64 0;
#X connect 101 0 72 0;
#X connect 101 0 80 0;
#X connect 101 0 88 0;
#X connect 101 0 128 0;
#X connect 102 0 38 0;
#X connect 102 0 46 0;
#X connect 102 0 56 0;
#X connect 102 0 64 0;
#X connect 102 0 72 0;
#X connect 102 0 80 0;
#X connect 102 0 88 0;
#X connect 102 0 128 0;
#X connect 103 0 5 0;
#X connect 104 0 103 1;
#X connect 105 0 41 0;
#X connect 106 0 105 1;
#X connect 107 0 51 0;
#X connect 108 0 107 1;
#X connect 109 0 107 0;
#X connect 110 0 59 0;
#X connect 111 0 110 1;
#X connect 112 0 110 0;
#X connect 113 0 67 0;
#X connect 114 0 113 1;
#X connect 115 0 113 0;
#X connect 116 0 75 0;
#X connect 117 0 116 1;
#X connect 118 0 116 0;
#X connect 119 0 83 0;
#X connect 120 0 119 1;
#X connect 121 0 119 0;
#X connect 122 0 105 0;
#X connect 123 0 126 0;
#X connect 123 1 124 0;
#X connect 123 1 136 0;
#X connect 123 2 125 0;
#X connect 123 3 124 2;
#X connect 124 0 137 0;
#X connect 125 0 124 1;
#X connect 126 0 124 0;
#X connect 127 0 3 0;
#X connect 128 0 127 1;
#X connect 129 0 130 0;
#X connect 130 0 128 0;
#X connect 131 0 123 0;
#X connect 132 0 131 1;
#X connect 133 0 131 0;
#X connect 134 0 135 0;
#X connect 135 0 54 1;
#X connect 135 0 53 1;
#X connect 135 0 62 1;
#X connect 135 0 61 1;
#X connect 135 0 70 1;
#X connect 135 0 69 1;
#X connect 135 0 78 1;
#X connect 135 0 77 1;
#X connect 135 0 86 1;
#X connect 135 0 85 1;
#X connect 135 0 126 1;
#X connect 135 0 34 1;
#X connect 135 0 35 1;
#X connect 135 0 43 1;
#X connect 135 0 44 1;
#X connect 135 0 125 1;
#X connect 136 0 127 0;
#X connect 137 0 127 0;
#X connect 138 0 103 0;
#X connect 139 0 4 0;
#X connect 139 0 135 0;
#X connect 139 0 150 0;
#X connect 139 0 102 0;
#X connect 140 0 141 0;
#X connect 141 0 4 0;
#X connect 142 0 104 0;
#X connect 143 0 106 0;
#X connect 144 0 132 0;
#X connect 145 0 108 0;
#X connect 146 0 111 0;
#X connect 147 0 114 0;
#X connect 148 0 117 0;
#X connect 149 0 120 0;
#X connect 150 0 104 0;
#X connect 150 0 106 0;
#X connect 150 0 108 0;
#X connect 150 0 111 0;
#X connect 150 0 114 0;
#X connect 150 0 117 0;
#X connect 150 0 120 0;
#X connect 150 0 132 0;
#X connect 151 0 104 0;
#X connect 151 0 106 0;
#X connect 151 0 132 0;
#X connect 151 0 108 0;
#X connect 151 0 111 0;
#X connect 151 0 114 0;
#X connect 151 0 117 0;
#X connect 151 0 120 0;
