#N canvas 184 92 1467 997 10;
#X msg 530 586 disconnect;
#X obj 404 649 tgl 30 0 empty empty 1=connected 34 15 0 12 -4034 -258113
-1 0 1;
#X obj 404 620 mrpeach/udpsend;
#X obj 416 553 mrpeach/packOSC;
#X msg 543 553 connect 127.0.0.1 4243;
#X obj 598 139 channelAnalyser;
#X obj 735 303 pack f f f f;
#X msg 577 332 sendtyped /ch1attack i 1;
#X msg 109 448 sendtyped /ch2 ffi \$1 \$2 \$3;
#X obj 175 256 metro 500;
#X obj 190 222 tgl 15 0 empty empty empty 17 7 0 10 -262144 -1 -1 0
1;
#X obj 87 359 random 127;
#X obj 114 409 pack i i i;
#X obj 156 361 random 127;
#X obj 232 363 random 127;
#X obj 166 285 bng 15 250 50 0 empty empty empty 17 7 0 10 -262144
-1 -1;
#X msg 102 314 sendtyped /ch2attack i 1;
#X floatatom 236 220 5 0 0 0 - - -;
#X msg 1275 527 \; pd dsp 1;
#X obj 1355 611 abl_link~ 1 0 4 120;
#X obj 1356 558 tgl 15 0 empty empty empty 17 7 0 10 -262144 -1 -1
1 1;
#X msg 1356 579 connect \$1;
#X floatatom 1449 662 5 0 0 0 - - -;
#X obj 1372 490 loadbang;
#X msg 1359 531 1;
#X floatatom 1352 649 5 0 0 0 - - -;
#X obj 1353 693 spigot;
#X obj 1392 671 tgl 15 0 empty empty empty 17 7 0 10 -262144 -1 -1
0 1;
#X floatatom 1524 654 5 0 0 0 - - -;
#X msg 1449 533 tempo \$1;
#X floatatom 1455 495 5 0 0 2 tempo - -;
#X floatatom 1392 649 5 0 0 0 - - -;
#X msg 738 332 sendtyped /ch1 ffi \$1 \$2 \$3;
#X msg 1290 735 sendtyped /measure i \$1;
#N canvas 0 23 674 564 nornmalize 0;
#X obj 107 35 inlet;
#X obj 292 30 inlet;
#X obj 134 269 f;
#X obj 97 242 > 0;
#X obj 128 242 spigot;
#X floatatom 135 307 5 0 0 0 - - -;
#X obj 163 216 tgl 15 0 empty empty empty 17 7 0 10 -262144 -1 -1 0
1;
#X msg 111 212 0;
#X obj 254 268 f;
#X obj 248 242 spigot;
#X obj 193 242 < 100;
#X obj 270 209 tgl 15 0 empty empty empty 17 7 0 10 -262144 -1 -1 0
1;
#X floatatom 248 307 5 0 0 0 - - -;
#X msg 218 212 100;
#X obj 113 111 bng 15 250 50 0 empty empty empty 17 7 0 10 -262144
-1 -1;
#X obj 243 423 -;
#X obj 331 422 -;
#X obj 294 342 t b f;
#X obj 269 466 /;
#X floatatom 380 517 5 0 0 0 - - -;
#X obj 269 543 outlet;
#X obj 117 135 hsl 50 15 0 1 0 0 empty empty empty -2 -8 0 10 -262144
-1 -1 3916 1;
#X text 138 113 reset;
#X connect 0 0 3 0;
#X connect 0 0 10 0;
#X connect 0 0 4 0;
#X connect 0 0 9 0;
#X connect 0 0 15 0;
#X connect 1 0 14 0;
#X connect 2 0 5 0;
#X connect 2 0 16 0;
#X connect 3 0 6 0;
#X connect 4 0 2 0;
#X connect 4 0 3 1;
#X connect 6 0 4 1;
#X connect 7 0 3 1;
#X connect 8 0 12 0;
#X connect 8 0 15 1;
#X connect 9 0 8 0;
#X connect 9 0 10 1;
#X connect 9 0 17 0;
#X connect 10 0 11 0;
#X connect 11 0 9 1;
#X connect 13 0 10 1;
#X connect 14 0 7 0;
#X connect 14 0 13 0;
#X connect 15 0 18 0;
#X connect 16 0 18 1;
#X connect 17 0 16 0;
#X connect 17 1 16 1;
#X connect 18 0 19 0;
#X connect 18 0 20 0;
#X connect 19 0 21 0;
#X coords 0 -1 1 1 85 60 1 100 100;
#X restore 727 225 pd nornmalize;
#N canvas 0 23 674 564 nornmalize 0;
#X obj 107 35 inlet;
#X obj 292 30 inlet;
#X obj 134 269 f;
#X obj 97 242 > 0;
#X obj 128 242 spigot;
#X floatatom 135 307 5 0 0 0 - - -;
#X obj 163 216 tgl 15 0 empty empty empty 17 7 0 10 -262144 -1 -1 0
1;
#X msg 111 212 0;
#X obj 254 268 f;
#X obj 248 242 spigot;
#X obj 193 242 < 100;
#X obj 270 209 tgl 15 0 empty empty empty 17 7 0 10 -262144 -1 -1 0
1;
#X floatatom 248 307 5 0 0 0 - - -;
#X msg 218 212 100;
#X obj 113 111 bng 15 250 50 0 empty empty empty 17 7 0 10 -262144
-1 -1;
#X obj 243 423 -;
#X obj 331 422 -;
#X obj 294 342 t b f;
#X obj 269 466 /;
#X floatatom 380 517 5 0 0 0 - - -;
#X obj 269 543 outlet;
#X obj 117 135 hsl 50 15 0 1 0 0 empty empty empty -2 -8 0 10 -262144
-1 -1 66 1;
#X text 138 113 reset;
#X connect 0 0 3 0;
#X connect 0 0 10 0;
#X connect 0 0 4 0;
#X connect 0 0 9 0;
#X connect 0 0 15 0;
#X connect 1 0 14 0;
#X connect 2 0 5 0;
#X connect 2 0 16 0;
#X connect 3 0 6 0;
#X connect 4 0 2 0;
#X connect 4 0 3 1;
#X connect 6 0 4 1;
#X connect 7 0 3 1;
#X connect 8 0 12 0;
#X connect 8 0 15 1;
#X connect 9 0 8 0;
#X connect 9 0 10 1;
#X connect 9 0 17 0;
#X connect 10 0 11 0;
#X connect 11 0 9 1;
#X connect 13 0 10 1;
#X connect 14 0 7 0;
#X connect 14 0 13 0;
#X connect 15 0 18 0;
#X connect 16 0 18 1;
#X connect 17 0 16 0;
#X connect 17 1 16 1;
#X connect 18 0 19 0;
#X connect 18 0 20 0;
#X connect 19 0 21 0;
#X coords 0 -1 1 1 85 60 1 100 100;
#X restore 596 227 pd nornmalize;
#X obj 968 137 channelAnalyser;
#X obj 1105 301 pack f f f f;
#N canvas 0 23 674 564 nornmalize 0;
#X obj 107 35 inlet;
#X obj 292 30 inlet;
#X obj 134 269 f;
#X obj 97 242 > 0;
#X obj 128 242 spigot;
#X floatatom 135 307 5 0 0 0 - - -;
#X obj 163 216 tgl 15 0 empty empty empty 17 7 0 10 -262144 -1 -1 0
1;
#X msg 111 212 0;
#X obj 254 268 f;
#X obj 248 242 spigot;
#X obj 193 242 < 100;
#X obj 270 209 tgl 15 0 empty empty empty 17 7 0 10 -262144 -1 -1 0
1;
#X floatatom 248 307 5 0 0 0 - - -;
#X msg 218 212 100;
#X obj 113 111 bng 15 250 50 0 empty empty empty 17 7 0 10 -262144
-1 -1;
#X obj 243 423 -;
#X obj 331 422 -;
#X obj 294 342 t b f;
#X obj 269 466 /;
#X floatatom 380 517 5 0 0 0 - - -;
#X obj 269 543 outlet;
#X obj 117 135 hsl 50 15 0 1 0 0 empty empty empty -2 -8 0 10 -262144
-1 -1 0 1;
#X text 138 113 reset;
#X connect 0 0 3 0;
#X connect 0 0 10 0;
#X connect 0 0 4 0;
#X connect 0 0 9 0;
#X connect 0 0 15 0;
#X connect 1 0 14 0;
#X connect 2 0 5 0;
#X connect 2 0 16 0;
#X connect 3 0 6 0;
#X connect 4 0 2 0;
#X connect 4 0 3 1;
#X connect 6 0 4 1;
#X connect 7 0 3 1;
#X connect 8 0 12 0;
#X connect 8 0 15 1;
#X connect 9 0 8 0;
#X connect 9 0 10 1;
#X connect 9 0 17 0;
#X connect 10 0 11 0;
#X connect 11 0 9 1;
#X connect 13 0 10 1;
#X connect 14 0 7 0;
#X connect 14 0 13 0;
#X connect 15 0 18 0;
#X connect 16 0 18 1;
#X connect 17 0 16 0;
#X connect 17 1 16 1;
#X connect 18 0 19 0;
#X connect 18 0 20 0;
#X connect 19 0 21 0;
#X coords 0 -1 1 1 85 60 1 100 100;
#X restore 1097 223 pd nornmalize;
#N canvas 0 23 674 564 nornmalize 0;
#X obj 107 35 inlet;
#X obj 292 30 inlet;
#X obj 134 269 f;
#X obj 97 242 > 0;
#X obj 128 242 spigot;
#X floatatom 135 307 5 0 0 0 - - -;
#X obj 163 216 tgl 15 0 empty empty empty 17 7 0 10 -262144 -1 -1 0
1;
#X msg 111 212 0;
#X obj 254 268 f;
#X obj 248 242 spigot;
#X obj 193 242 < 100;
#X obj 270 209 tgl 15 0 empty empty empty 17 7 0 10 -262144 -1 -1 0
1;
#X floatatom 248 307 5 0 0 0 - - -;
#X msg 218 212 100;
#X obj 113 111 bng 15 250 50 0 empty empty empty 17 7 0 10 -262144
-1 -1;
#X obj 243 423 -;
#X obj 331 422 -;
#X obj 294 342 t b f;
#X obj 269 466 /;
#X floatatom 380 517 5 0 0 0 - - -;
#X obj 269 543 outlet;
#X obj 117 135 hsl 50 15 0 1 0 0 empty empty empty -2 -8 0 10 -262144
-1 -1 413 1;
#X text 138 113 reset;
#X connect 0 0 3 0;
#X connect 0 0 10 0;
#X connect 0 0 4 0;
#X connect 0 0 9 0;
#X connect 0 0 15 0;
#X connect 1 0 14 0;
#X connect 2 0 5 0;
#X connect 2 0 16 0;
#X connect 3 0 6 0;
#X connect 4 0 2 0;
#X connect 4 0 3 1;
#X connect 6 0 4 1;
#X connect 7 0 3 1;
#X connect 8 0 12 0;
#X connect 8 0 15 1;
#X connect 9 0 8 0;
#X connect 9 0 10 1;
#X connect 9 0 17 0;
#X connect 10 0 11 0;
#X connect 11 0 9 1;
#X connect 13 0 10 1;
#X connect 14 0 7 0;
#X connect 14 0 13 0;
#X connect 15 0 18 0;
#X connect 16 0 18 1;
#X connect 17 0 16 0;
#X connect 17 1 16 1;
#X connect 18 0 19 0;
#X connect 18 0 20 0;
#X connect 19 0 21 0;
#X coords 0 -1 1 1 85 60 1 100 100;
#X restore 966 225 pd nornmalize;
#X obj 1335 137 channelAnalyser;
#X obj 1472 301 pack f f f f;
#N canvas 0 23 674 564 nornmalize 0;
#X obj 107 35 inlet;
#X obj 292 30 inlet;
#X obj 134 269 f;
#X obj 97 242 > 0;
#X obj 128 242 spigot;
#X floatatom 135 307 5 0 0 0 - - -;
#X obj 163 216 tgl 15 0 empty empty empty 17 7 0 10 -262144 -1 -1 0
1;
#X msg 111 212 0;
#X obj 254 268 f;
#X obj 248 242 spigot;
#X obj 193 242 < 100;
#X obj 270 209 tgl 15 0 empty empty empty 17 7 0 10 -262144 -1 -1 0
1;
#X floatatom 248 307 5 0 0 0 - - -;
#X msg 218 212 100;
#X obj 113 111 bng 15 250 50 0 empty empty empty 17 7 0 10 -262144
-1 -1;
#X obj 243 423 -;
#X obj 331 422 -;
#X obj 294 342 t b f;
#X obj 269 466 /;
#X floatatom 380 517 5 0 0 0 - - -;
#X obj 269 543 outlet;
#X obj 117 135 hsl 50 15 0 1 0 0 empty empty empty -2 -8 0 10 -262144
-1 -1 0 1;
#X text 138 113 reset;
#X connect 0 0 3 0;
#X connect 0 0 10 0;
#X connect 0 0 4 0;
#X connect 0 0 9 0;
#X connect 0 0 15 0;
#X connect 1 0 14 0;
#X connect 2 0 5 0;
#X connect 2 0 16 0;
#X connect 3 0 6 0;
#X connect 4 0 2 0;
#X connect 4 0 3 1;
#X connect 6 0 4 1;
#X connect 7 0 3 1;
#X connect 8 0 12 0;
#X connect 8 0 15 1;
#X connect 9 0 8 0;
#X connect 9 0 10 1;
#X connect 9 0 17 0;
#X connect 10 0 11 0;
#X connect 11 0 9 1;
#X connect 13 0 10 1;
#X connect 14 0 7 0;
#X connect 14 0 13 0;
#X connect 15 0 18 0;
#X connect 16 0 18 1;
#X connect 17 0 16 0;
#X connect 17 1 16 1;
#X connect 18 0 19 0;
#X connect 18 0 20 0;
#X connect 19 0 21 0;
#X coords 0 -1 1 1 85 60 1 100 100;
#X restore 1464 223 pd nornmalize;
#N canvas 0 23 674 564 nornmalize 0;
#X obj 107 35 inlet;
#X obj 292 30 inlet;
#X obj 134 269 f;
#X obj 97 242 > 0;
#X obj 128 242 spigot;
#X floatatom 135 307 5 0 0 0 - - -;
#X obj 163 216 tgl 15 0 empty empty empty 17 7 0 10 -262144 -1 -1 0
1;
#X msg 111 212 0;
#X obj 254 268 f;
#X obj 248 242 spigot;
#X obj 193 242 < 100;
#X obj 270 209 tgl 15 0 empty empty empty 17 7 0 10 -262144 -1 -1 0
1;
#X floatatom 248 307 5 0 0 0 - - -;
#X msg 218 212 100;
#X obj 113 111 bng 15 250 50 0 empty empty empty 17 7 0 10 -262144
-1 -1;
#X obj 243 423 -;
#X obj 331 422 -;
#X obj 294 342 t b f;
#X obj 269 466 /;
#X floatatom 380 517 5 0 0 0 - - -;
#X obj 269 543 outlet;
#X obj 117 135 hsl 50 15 0 1 0 0 empty empty empty -2 -8 0 10 -262144
-1 -1 0 1;
#X text 138 113 reset;
#X connect 0 0 3 0;
#X connect 0 0 10 0;
#X connect 0 0 4 0;
#X connect 0 0 9 0;
#X connect 0 0 15 0;
#X connect 1 0 14 0;
#X connect 2 0 5 0;
#X connect 2 0 16 0;
#X connect 3 0 6 0;
#X connect 4 0 2 0;
#X connect 4 0 3 1;
#X connect 6 0 4 1;
#X connect 7 0 3 1;
#X connect 8 0 12 0;
#X connect 8 0 15 1;
#X connect 9 0 8 0;
#X connect 9 0 10 1;
#X connect 9 0 17 0;
#X connect 10 0 11 0;
#X connect 11 0 9 1;
#X connect 13 0 10 1;
#X connect 14 0 7 0;
#X connect 14 0 13 0;
#X connect 15 0 18 0;
#X connect 16 0 18 1;
#X connect 17 0 16 0;
#X connect 17 1 16 1;
#X connect 18 0 19 0;
#X connect 18 0 20 0;
#X connect 19 0 21 0;
#X coords 0 -1 1 1 85 60 1 100 100;
#X restore 1333 225 pd nornmalize;
#X obj 612 75 adc~ 1;
#X obj 982 73 adc~ 2;
#X obj 1349 73 adc~ 3;
#X msg 947 330 sendtyped /ch2attack i 1;
#X msg 1108 330 sendtyped /ch2 ffi \$1 \$2 \$3;
#X msg 1476 330 sendtyped /ch3 ffi \$1 \$2 \$3;
#X msg 1314 330 sendtyped /ch3attack i 1;
#X connect 0 0 2 0;
#X connect 2 0 1 0;
#X connect 3 0 2 0;
#X connect 4 0 2 0;
#X connect 5 0 35 0;
#X connect 5 1 6 0;
#X connect 5 1 7 0;
#X connect 5 2 34 0;
#X connect 5 3 6 2;
#X connect 6 0 32 0;
#X connect 7 0 3 0;
#X connect 8 0 3 0;
#X connect 9 0 11 0;
#X connect 9 0 13 0;
#X connect 9 0 14 0;
#X connect 9 0 15 0;
#X connect 10 0 9 0;
#X connect 11 0 12 0;
#X connect 12 0 8 0;
#X connect 13 0 12 1;
#X connect 14 0 12 2;
#X connect 15 0 16 0;
#X connect 16 0 3 0;
#X connect 17 0 9 1;
#X connect 19 0 25 0;
#X connect 19 1 28 0;
#X connect 19 3 22 0;
#X connect 20 0 21 0;
#X connect 21 0 19 0;
#X connect 23 0 18 0;
#X connect 23 0 24 0;
#X connect 24 0 20 0;
#X connect 25 0 26 0;
#X connect 25 0 33 0;
#X connect 27 0 26 1;
#X connect 29 0 19 0;
#X connect 30 0 29 0;
#X connect 32 0 3 0;
#X connect 33 0 3 0;
#X connect 34 0 6 1;
#X connect 35 0 6 0;
#X connect 36 0 39 0;
#X connect 36 1 37 0;
#X connect 36 1 47 0;
#X connect 36 2 38 0;
#X connect 36 3 37 2;
#X connect 37 0 48 0;
#X connect 38 0 37 1;
#X connect 39 0 37 0;
#X connect 40 0 43 0;
#X connect 40 1 41 0;
#X connect 40 1 50 0;
#X connect 40 2 42 0;
#X connect 40 3 41 2;
#X connect 41 0 49 0;
#X connect 42 0 41 1;
#X connect 43 0 41 0;
#X connect 44 0 5 0;
#X connect 45 0 36 0;
#X connect 46 0 40 0;
#X connect 47 0 3 0;
#X connect 48 0 3 0;
#X connect 49 0 3 0;
#X connect 50 0 3 0;
