#N canvas 184 92 1467 997 10;
#X msg 530 586 disconnect;
#X obj 404 649 tgl 30 0 empty empty 1=connected 34 15 0 12 -4034 -258113
-1 0 1;
#X obj 404 620 mrpeach/udpsend;
#X obj 416 553 mrpeach/packOSC;
#X msg 543 553 connect 127.0.0.1 4243;
#X floatatom 728 336 5 0 0 0 - - -;
#X obj 596 218 channelAnalyser;
#X obj 744 376 pack f f f f;
#X msg 554 369 sendtyped /ch1attack i 1;
#X msg 109 448 sendtyped /ch2 ffi \$1 \$2 \$3;
#X obj 175 256 metro 500;
#X obj 190 222 tgl 15 0 empty empty empty 17 7 0 10 -262144 -1 -1 1
1;
#X obj 87 359 random 127;
#X obj 114 409 pack i i i;
#X obj 156 361 random 127;
#X obj 232 363 random 127;
#X obj 166 285 bng 15 250 50 0 empty empty empty 17 7 0 10 -262144
-1 -1;
#X msg 102 314 sendtyped /ch2attack i 1;
#X floatatom 236 220 5 0 0 0 - - -;
#X floatatom 963 301 5 0 0 0 - - -;
#X obj 972 208 channelAnalyser;
#X obj 979 341 pack f f f f;
#X msg 932 372 sendtyped /ch2attack i 1;
#X msg 938 416 sendtyped /ch2 ffi \$1 \$2 \$3;
#X obj 742 55 osc~ 280;
#X obj 612 75 adc~ 1 2 3;
#X floatatom 1259 301 5 0 0 0 - - -;
#X obj 1268 208 channelAnalyser;
#X obj 1275 341 pack f f f f;
#X msg 1227 372 sendtyped /ch3attack i 1;
#X msg 1234 416 sendtyped /ch3 ffi \$1 \$2 \$3;
#X msg 949 628 \; pd dsp 1;
#X obj 1029 712 abl_link~ 1 0 4 120;
#X obj 1030 659 tgl 15 0 empty empty empty 17 7 0 10 -262144 -1 -1
1 1;
#X msg 1030 680 connect \$1;
#X floatatom 1123 763 5 0 0 0 - - -;
#X obj 1046 591 loadbang;
#X msg 1033 632 1;
#X floatatom 1026 750 5 0 0 0 - - -;
#X obj 1027 794 spigot;
#X obj 1066 772 tgl 15 0 empty empty empty 17 7 0 10 -262144 -1 -1
0 1;
#X floatatom 1198 755 5 0 0 0 - - -;
#X msg 1123 634 tempo \$1;
#X floatatom 1129 596 5 0 0 2 tempo - -;
#X floatatom 1066 750 5 0 0 0 - - -;
#X msg 555 423 sendtyped /ch1 ffi \$1 \$2 \$3;
#X msg 964 836 sendtyped /measure i \$1;
#X connect 0 0 2 0;
#X connect 2 0 1 0;
#X connect 3 0 2 0;
#X connect 4 0 2 0;
#X connect 5 0 7 0;
#X connect 6 0 5 0;
#X connect 6 1 7 0;
#X connect 6 1 8 0;
#X connect 6 2 7 1;
#X connect 6 3 7 2;
#X connect 7 0 45 0;
#X connect 8 0 3 0;
#X connect 9 0 3 0;
#X connect 10 0 12 0;
#X connect 10 0 14 0;
#X connect 10 0 15 0;
#X connect 10 0 16 0;
#X connect 11 0 10 0;
#X connect 12 0 13 0;
#X connect 13 0 9 0;
#X connect 14 0 13 1;
#X connect 15 0 13 2;
#X connect 16 0 17 0;
#X connect 17 0 3 0;
#X connect 18 0 10 1;
#X connect 19 0 21 0;
#X connect 20 0 19 0;
#X connect 20 1 21 0;
#X connect 20 1 22 0;
#X connect 20 2 21 1;
#X connect 20 3 21 2;
#X connect 21 0 23 0;
#X connect 22 0 3 0;
#X connect 23 0 3 0;
#X connect 25 0 6 0;
#X connect 25 1 20 0;
#X connect 25 2 27 0;
#X connect 26 0 28 0;
#X connect 27 0 26 0;
#X connect 27 1 28 0;
#X connect 27 1 29 0;
#X connect 27 2 28 1;
#X connect 27 3 28 2;
#X connect 28 0 30 0;
#X connect 29 0 3 0;
#X connect 30 0 3 0;
#X connect 32 0 38 0;
#X connect 32 1 41 0;
#X connect 32 3 35 0;
#X connect 33 0 34 0;
#X connect 34 0 32 0;
#X connect 36 0 31 0;
#X connect 36 0 37 0;
#X connect 37 0 33 0;
#X connect 38 0 39 0;
#X connect 38 0 46 0;
#X connect 40 0 39 1;
#X connect 42 0 32 0;
#X connect 43 0 42 0;
#X connect 45 0 3 0;
#X connect 46 0 3 0;
