#N canvas -1916 732 1916 1154 12;
#X text 97 722 OSC messages;
#X text 48 52 connect stereo in connect launchControl XL on midi1 connect
circuit mono station on midi2;
#X obj 49 29 setup;
#X obj 242 363 hip~;
#X obj 54 87 adc~ 1;
#X obj 58 362 lop~ 250;
#X obj 78 139 vsl 15 128 0 127 0 0 empty empty LPfreq 0 -9 0 10 -262144
-1 -1 12700 1;
#X obj 77 281 * 4;
#X obj 77 308 + 100;
#X floatatom 77 334 5 0 0 0 - - -;
#X obj 157 141 vsl 15 128 0 127 0 0 empty empty BPfreq 0 -9 0 10 -262144
-1 -1 12700 1;
#X obj 159 282 * 4;
#X floatatom 159 335 5 0 0 0 - - -;
#X obj 159 309 + 600;
#X obj 268 142 vsl 15 128 0 127 0 0 empty empty HPfreq 0 -9 0 10 -262144
-1 -1 6100 1;
#X floatatom 268 334 5 0 0 0 - - -;
#X obj 268 308 + 2500;
#X obj 268 281 * 15;
#X obj 143 363 bp~ 2500 25;
#X obj 206 143 vsl 15 128 0 127 0 0 empty empty Q 0 -15 0 20 -262144
-1 -1 0 1;
#X obj 79 469 bng 15 250 50 0 empty empty empty 17 7 0 10 -262144 -1
-1;
#X obj 58 425 fiddle~ 512 1 20 3;
#X floatatom 115 468 5 0 0 0 - - -;
#X msg 446 116 amp-range 40 50;
#X obj 49 552 pack f f f;
#X obj 44 720 spigot;
#X obj 83 697 tgl 15 0 empty empty empty 17 7 0 10 -262144 -1 -1 1
1;
#X msg 172 873 disconnect;
#X obj 46 936 tgl 30 0 empty empty 1=connected 34 15 0 12 -4034 -258113
-1 0 1;
#X obj 46 907 mrpeach/udpsend;
#X obj 50 838 mrpeach/packOSC;
#X msg 185 842 connect 127.0.0.1 4243;
#X obj 1566 596 notein 1;
#X obj 1562 626 stripnote;
#X obj 1559 656 select 108;
#X obj 1558 686 spigot;
#X floatatom 1646 697 5 0 0 0 - - -;
#X obj 1557 718 bng 15 250 50 0 empty empty empty 17 7 0 10 -262144
-1 -1;
#X msg 1537 749 sendtyped /globaltrigger i 1;
#X obj 1476 102 stripnote;
#X floatatom 1479 136 5 0 0 0 - - -;
#X obj 1480 72 notein 19;
#X floatatom 1527 136 5 0 0 0 - - -;
#X text 795 717 OSC messages;
#X obj 940 358 hip~;
#X obj 733 362 lop~ 250;
#X obj 776 134 vsl 15 128 0 127 0 0 empty empty LPfreq 0 -9 0 10 -262144
-1 -1 12700 1;
#X obj 775 276 * 4;
#X obj 775 303 + 100;
#X floatatom 775 329 5 0 0 0 - - -;
#X obj 855 136 vsl 15 128 0 127 0 0 empty empty BPfreq 0 -9 0 10 -262144
-1 -1 0 1;
#X obj 857 277 * 4;
#X floatatom 857 330 5 0 0 0 - - -;
#X obj 857 304 + 600;
#X obj 966 137 vsl 15 128 0 127 0 0 empty empty HPfreq 0 -9 0 10 -262144
-1 -1 0 1;
#X floatatom 966 329 5 0 0 0 - - -;
#X obj 966 303 + 2500;
#X obj 966 276 * 15;
#X obj 838 361 bp~ 2500 25;
#X obj 904 138 vsl 15 128 0 127 0 0 empty empty Q 0 -15 0 20 -262144
-1 -1 0 1;
#X msg 1144 111 amp-range 40 50;
#X obj 742 715 spigot;
#X obj 776 682 tgl 15 0 empty empty empty 17 7 0 10 -262144 -1 -1 1
1;
#X floatatom 608 141 5 0 0 0 - - -;
#X obj 604 67 ctlin;
#X floatatom 622 116 5 0 0 0 - - -;
#X floatatom 636 94 5 0 0 0 - - -;
#X obj 117 87 ctlin 13 16;
#X obj 206 86 ctlin 14 16;
#X obj 296 84 ctlin 15 16;
#X obj 809 85 ctlin 16 16;
#X obj 898 84 ctlin 17 16;
#X obj 988 82 ctlin 18 16;
#X obj 754 83 adc~ 2;
#X obj 515 254 vu 15 120 empty empty -1 -8 0 10 -258048 -1 1 0;
#X obj 514 218 - 100;
#X obj 581 254 vu 15 120 empty empty -1 -8 0 10 -258048 -1 1 0;
#X obj 580 218 - 100;
#X obj 512 192 env~ 512;
#X obj 580 192 env~ 512;
#X obj 115 504 f 0, f 4;
#X obj 153 503 + 1;
#X msg 57 626 sendtyped /ch1attack i 1;
#X msg 46 589 sendtyped /ch1 ffi \$1 \$2 \$3;
#X floatatom 129 528 5 0 0 0 - - -;
#X obj 39 470 mtof;
#X floatatom 39 497 5 0 0 0 - - -;
#X msg 184 466 0;
#X obj 318 472 bng 15 250 50 0 empty empty empty 17 7 0 10 -262144
-1 -1;
#X obj 281 426 fiddle~ 512 1 20 3;
#X floatatom 353 470 5 0 0 0 - - -;
#X obj 272 553 pack f f f;
#X obj 338 505 f 0, f 4;
#X obj 376 504 + 1;
#X floatatom 352 529 5 0 0 0 - - -;
#X obj 275 473 mtof;
#X floatatom 274 506 5 0 0 0 - - -;
#X msg 407 467 0;
#X obj 535 470 bng 15 250 50 0 empty empty empty 17 7 0 10 -262144
-1 -1;
#X obj 498 424 fiddle~ 512 1 20 3;
#X floatatom 570 468 5 0 0 0 - - -;
#X obj 489 551 pack f f f;
#X obj 555 503 f 0, f 4;
#X obj 593 502 + 1;
#X floatatom 569 527 5 0 0 0 - - -;
#X obj 492 471 mtof;
#X floatatom 489 505 5 0 0 0 - - -;
#X msg 624 465 0;
#X obj 762 470 bng 15 250 50 0 empty empty empty 17 7 0 10 -262144
-1 -1;
#X obj 725 424 fiddle~ 512 1 20 3;
#X floatatom 797 468 5 0 0 0 - - -;
#X obj 716 551 pack f f f;
#X obj 782 503 f 0, f 4;
#X obj 820 502 + 1;
#X floatatom 796 527 5 0 0 0 - - -;
#X obj 719 471 mtof;
#X floatatom 719 507 5 0 0 0 - - -;
#X msg 851 465 0;
#X obj 994 470 bng 15 250 50 0 empty empty empty 17 7 0 10 -262144
-1 -1;
#X obj 957 424 fiddle~ 512 1 20 3;
#X floatatom 1029 468 5 0 0 0 - - -;
#X obj 948 551 pack f f f;
#X obj 1014 503 f 0, f 4;
#X obj 1052 502 + 1;
#X floatatom 1028 527 5 0 0 0 - - -;
#X obj 951 471 mtof;
#X floatatom 951 507 5 0 0 0 - - -;
#X msg 1083 465 0;
#X obj 1219 469 bng 15 250 50 0 empty empty empty 17 7 0 10 -262144
-1 -1;
#X obj 1182 423 fiddle~ 512 1 20 3;
#X floatatom 1254 467 5 0 0 0 - - -;
#X obj 1173 549 pack f f f;
#X obj 1239 502 f 0, f 4;
#X obj 1277 501 + 1;
#X floatatom 1253 526 5 0 0 0 - - -;
#X obj 1176 470 mtof;
#X floatatom 1176 501 5 0 0 0 - - -;
#X msg 1308 464 0;
#X msg 269 590 sendtyped /ch2 ffi \$1 \$2 \$3;
#X msg 280 627 sendtyped /ch2attack i 1;
#X msg 486 588 sendtyped /ch3 ffi \$1 \$2 \$3;
#X msg 497 625 sendtyped /ch3attack i 1;
#X msg 713 588 sendtyped /ch4 ffi \$1 \$2 \$3;
#X msg 710 620 sendtyped /ch4attack i 1;
#X msg 945 588 sendtyped /ch5 ffi \$1 \$2 \$3;
#X msg 956 625 sendtyped /ch5attack i 1;
#X msg 1170 587 sendtyped /ch6 ffi \$1 \$2 \$3;
#X msg 1168 623 sendtyped /ch6attack i 1;
#X obj 688 37 metro 100;
#X obj 688 12 tgl 15 0 empty empty empty 17 7 0 10 -262144 -1 -1 0
1;
#X obj 1534 212 f 0, f 4;
#X obj 1572 211 + 1;
#X floatatom 1548 236 5 0 0 0 - - -;
#X obj 1531 175 bng 15 250 50 0 empty empty empty 17 7 0 10 -262144
-1 -1;
#X obj 1464 318 pack f f i;
#X obj 1475 190 mtof;
#X msg 1462 352 sendtyped /ch7 ffi \$1 \$2 \$3;
#X obj 1699 101 stripnote;
#X floatatom 1702 135 5 0 0 0 - - -;
#X floatatom 1750 135 5 0 0 0 - - -;
#X obj 1755 220 f 0, f 4;
#X obj 1793 219 + 1;
#X floatatom 1769 244 5 0 0 0 - - -;
#X obj 1752 183 bng 15 250 50 0 empty empty empty 17 7 0 10 -262144
-1 -1;
#X obj 1687 317 pack f f i;
#X msg 1459 394 sendtyped /ch7attack i 1;
#X msg 1683 392 sendtyped /ch8attack i 1;
#X obj 1691 215 mtof;
#X text 1664 510 OSC messages;
#X obj 1611 508 spigot;
#X obj 1645 475 tgl 15 0 empty empty empty 17 7 0 10 -262144 -1 -1
1 1;
#X obj 1123 997 spigot;
#X obj 1173 966 tgl 15 0 empty empty empty 17 7 0 10 -262144 -1 -1
1 1;
#X obj 1130 1058 print stuff;
#X obj 1703 71 notein 20;
#X msg 1687 355 sendtyped /ch8 ffi \$1 \$2 \$3;
#X obj 1045 714 midipackerlight 1 13 29 49 77 41 73 1;
#X obj 1096 769 midipackerlight 2 14 30 50 78 42 74 1;
#X obj 1139 800 midipackerlight 3 15 31 51 79 43 75 1;
#X obj 1162 832 midipackerlight 4 16 32 52 80 44 76 1;
#X obj 1173 857 midipackerlight 5 17 33 53 81 57 89 1;
#X obj 1177 876 midipackerlight 6 18 34 54 82 58 90 1;
#X obj 1179 899 midipackerlight 7 19 35 55 83 59 91 1;
#X obj 1186 920 midipackerlight 8 20 36 56 84 60 92 1;
#X obj 83 496 bng 15 250 50 0 empty empty empty 17 7 0 10 -262144 -1
-1;
#X obj 320 511 bng 15 250 50 0 empty empty empty 17 7 0 10 -262144
-1 -1;
#X obj 763 509 bng 15 250 50 0 empty empty empty 17 7 0 10 -262144
-1 -1;
#X obj 533 506 bng 15 250 50 0 empty empty empty 17 7 0 10 -262144
-1 -1;
#X connect 3 0 99 0;
#X connect 4 0 5 0;
#X connect 4 0 3 0;
#X connect 4 0 18 0;
#X connect 4 0 78 0;
#X connect 5 0 21 0;
#X connect 6 0 7 0;
#X connect 7 0 8 0;
#X connect 8 0 9 0;
#X connect 9 0 5 1;
#X connect 10 0 11 0;
#X connect 11 0 13 0;
#X connect 12 0 18 1;
#X connect 13 0 12 0;
#X connect 14 0 17 0;
#X connect 15 0 3 1;
#X connect 16 0 15 0;
#X connect 17 0 16 0;
#X connect 18 0 89 0;
#X connect 19 0 18 2;
#X connect 20 0 82 0;
#X connect 20 0 80 0;
#X connect 21 0 85 0;
#X connect 21 1 20 0;
#X connect 21 3 22 0;
#X connect 22 0 24 1;
#X connect 22 0 184 0;
#X connect 23 0 21 0;
#X connect 24 0 83 0;
#X connect 25 0 30 0;
#X connect 26 0 25 1;
#X connect 27 0 29 0;
#X connect 29 0 28 0;
#X connect 30 0 29 0;
#X connect 31 0 29 0;
#X connect 32 0 33 0;
#X connect 32 1 33 1;
#X connect 33 0 34 0;
#X connect 33 1 36 0;
#X connect 33 1 35 1;
#X connect 34 0 35 0;
#X connect 35 0 37 0;
#X connect 35 0 38 0;
#X connect 38 0 30 0;
#X connect 39 0 40 0;
#X connect 39 1 42 0;
#X connect 40 0 155 0;
#X connect 40 0 153 0;
#X connect 41 0 39 0;
#X connect 41 1 39 1;
#X connect 42 0 154 1;
#X connect 44 0 129 0;
#X connect 45 0 109 0;
#X connect 46 0 47 0;
#X connect 47 0 48 0;
#X connect 48 0 49 0;
#X connect 49 0 45 1;
#X connect 50 0 51 0;
#X connect 51 0 53 0;
#X connect 52 0 58 1;
#X connect 53 0 52 0;
#X connect 54 0 57 0;
#X connect 55 0 44 1;
#X connect 56 0 55 0;
#X connect 57 0 56 0;
#X connect 58 0 119 0;
#X connect 59 0 58 2;
#X connect 61 0 30 0;
#X connect 62 0 61 1;
#X connect 64 0 63 0;
#X connect 64 1 65 0;
#X connect 64 2 66 0;
#X connect 67 0 6 0;
#X connect 68 0 10 0;
#X connect 69 0 14 0;
#X connect 70 0 46 0;
#X connect 71 0 50 0;
#X connect 72 0 54 0;
#X connect 73 0 45 0;
#X connect 73 0 44 0;
#X connect 73 0 58 0;
#X connect 73 0 79 0;
#X connect 75 0 74 0;
#X connect 77 0 76 0;
#X connect 78 0 75 0;
#X connect 79 0 77 0;
#X connect 80 0 81 0;
#X connect 80 0 84 0;
#X connect 80 0 24 2;
#X connect 81 0 80 1;
#X connect 82 0 25 0;
#X connect 83 0 25 0;
#X connect 85 0 86 0;
#X connect 86 0 24 0;
#X connect 87 0 80 1;
#X connect 88 0 139 0;
#X connect 88 0 92 0;
#X connect 89 0 95 0;
#X connect 89 1 88 0;
#X connect 89 3 90 0;
#X connect 90 0 91 1;
#X connect 90 0 185 0;
#X connect 91 0 138 0;
#X connect 92 0 93 0;
#X connect 92 0 94 0;
#X connect 92 0 91 2;
#X connect 93 0 92 1;
#X connect 95 0 96 0;
#X connect 96 0 91 0;
#X connect 97 0 92 1;
#X connect 98 0 141 0;
#X connect 98 0 102 0;
#X connect 99 0 105 0;
#X connect 99 1 98 0;
#X connect 99 3 100 0;
#X connect 100 0 101 1;
#X connect 100 0 187 0;
#X connect 101 0 140 0;
#X connect 102 0 103 0;
#X connect 102 0 104 0;
#X connect 102 0 101 2;
#X connect 103 0 102 1;
#X connect 105 0 106 0;
#X connect 106 0 101 0;
#X connect 107 0 102 1;
#X connect 108 0 143 0;
#X connect 108 0 112 0;
#X connect 109 0 115 0;
#X connect 109 1 108 0;
#X connect 109 3 110 0;
#X connect 110 0 111 1;
#X connect 110 0 186 0;
#X connect 111 0 142 0;
#X connect 112 0 113 0;
#X connect 112 0 114 0;
#X connect 112 0 111 2;
#X connect 113 0 112 1;
#X connect 115 0 116 0;
#X connect 116 0 111 0;
#X connect 117 0 112 1;
#X connect 118 0 122 0;
#X connect 118 0 145 0;
#X connect 119 0 125 0;
#X connect 119 1 118 0;
#X connect 119 3 120 0;
#X connect 120 0 121 1;
#X connect 121 0 144 0;
#X connect 122 0 123 0;
#X connect 122 0 124 0;
#X connect 122 0 121 2;
#X connect 123 0 122 1;
#X connect 125 0 126 0;
#X connect 126 0 121 0;
#X connect 127 0 122 1;
#X connect 128 0 147 0;
#X connect 128 0 132 0;
#X connect 129 0 135 0;
#X connect 129 1 128 0;
#X connect 129 3 130 0;
#X connect 130 0 131 1;
#X connect 131 0 146 0;
#X connect 132 0 133 0;
#X connect 132 0 134 0;
#X connect 132 0 131 2;
#X connect 133 0 132 1;
#X connect 135 0 136 0;
#X connect 136 0 131 0;
#X connect 137 0 132 1;
#X connect 138 0 25 0;
#X connect 139 0 25 0;
#X connect 140 0 25 0;
#X connect 141 0 25 0;
#X connect 142 0 61 0;
#X connect 143 0 61 0;
#X connect 144 0 61 0;
#X connect 145 0 61 0;
#X connect 146 0 61 0;
#X connect 147 0 61 0;
#X connect 148 0 24 0;
#X connect 148 0 91 0;
#X connect 148 0 101 0;
#X connect 148 0 111 0;
#X connect 148 0 121 0;
#X connect 148 0 131 0;
#X connect 149 0 148 0;
#X connect 150 0 151 0;
#X connect 150 0 152 0;
#X connect 150 0 154 2;
#X connect 151 0 150 1;
#X connect 153 0 150 0;
#X connect 153 0 165 0;
#X connect 154 0 156 0;
#X connect 155 0 154 0;
#X connect 156 0 169 0;
#X connect 157 0 158 0;
#X connect 157 1 159 0;
#X connect 158 0 163 0;
#X connect 158 0 167 0;
#X connect 159 0 164 1;
#X connect 160 0 161 0;
#X connect 160 0 162 0;
#X connect 160 0 164 2;
#X connect 161 0 160 1;
#X connect 163 0 160 0;
#X connect 163 0 166 0;
#X connect 164 0 175 0;
#X connect 165 0 169 0;
#X connect 166 0 169 0;
#X connect 167 0 164 0;
#X connect 169 0 30 0;
#X connect 170 0 169 1;
#X connect 171 0 30 0;
#X connect 172 0 171 1;
#X connect 174 0 157 0;
#X connect 174 1 157 1;
#X connect 175 0 169 0;
#X connect 176 0 171 0;
#X connect 177 0 171 0;
#X connect 178 0 171 0;
#X connect 179 0 171 0;
#X connect 180 0 171 0;
#X connect 181 0 171 0;
#X connect 182 0 171 0;
#X connect 183 0 171 0;
#X connect 184 0 24 0;
#X connect 185 0 91 0;
#X connect 186 0 111 0;
#X connect 187 0 101 0;
