#N canvas 175 65 1707 1060 10;
#X obj 674 176 inlet;
#X obj 805 815 outlet;
#X obj 766 316 bng 15 250 50 0 empty empty empty 17 7 0 10 -262144
-1 -1;
#X obj 1032 819 outlet;
#X obj 1029 392 select \$6;
#X obj 1358 396 select \$7;
#X obj 1364 823 outlet;
#X msg 1356 725 sendtyped /ch\$1render i 1;
#X floatatom 499 370 5 0 0 0 - - -;
#X obj 482 260 channelAnalyser;
#X text 667 198 flush;
#X text 784 196 audiobypass;
#X obj 786 178 inlet~;
#X obj 597 211 f \$1;
#X obj 515 410 pack f f f f;
#X msg 528 457 sendtyped /ch\$4 ffi \$1 \$2 \$3;
#X obj 760 372 pack f f f f f;
#X msg 765 418 sendtyped /ch\$5att iiii \$1 \$2 \$3 \$4;
#X obj 578 180 loadbang;
#X obj 758 260 ctlin \$2 \$8;
#X obj 783 284 ctlin \$3 \$8;
#X obj 807 308 ctlin \$4 \$8;
#X obj 828 327 ctlin \$5 \$8;
#X obj 1062 336 notein \$8;
#X obj 635 182 bng 15 250 50 0 empty empty empty 17 7 0 10 -262144
-1 -1;
#X obj 1357 701 f \$1;
#X obj 1029 685 f \$1;
#X text 909 193 midibypass;
#X obj 911 175 inlet;
#X obj 486 178 inlet~;
#X obj 592 677 noteout 1;
#X obj 582 646 f \$7;
#X obj 663 651 f 0;
#X obj 676 696 bng 15 250 50 0 empty empty empty 17 7 0 10 -262144
-1 -1;
#X obj 632 572 tgl 15 0 empty empty empty 17 7 0 10 -262144 -1 -1 0
1;
#X obj 635 598 select 1;
#X obj 621 630 f 100;
#X obj 710 387 f 1;
#X obj 659 106 metro 500;
#X obj 654 83 tgl 15 0 empty empty empty 17 7 0 10 -262144 -1 -1 0
1;
#X text 472 32 vizchannel;
#X text 383 30 arguments;
#X text 557 30 midiCC1;
#X text 611 29 midiCC2;
#X text 671 29 midiCC3;
#X text 735 28 midCC4;
#X text 790 27 midiNote1;
#X text 859 27 midinote2;
#X text 930 27 midiChannel;
#X text 571 16 \$2;
#X text 733 41 att :d;
#X text 613 42 att :b;
#X text 556 41 att :a;
#X text 622 15 \$3;
#X text 675 41 att :c;
#X text 684 15 \$4;
#X text 749 14 \$5;
#X text 801 41 debug;
#X text 865 41 render;
#X text 493 17 \$1;
#X text 805 15 \$6;
#X text 877 13 \$7;
#X text 943 14 \$8;
#X msg 597 530 sendtyped /ch\$1attack i 1;
#X floatatom 1442 397 5 0 0 0 - - -;
#X obj 1030 522 f 1;
#X obj 1031 547 + 1;
#X msg 1077 546 0;
#X obj 1029 496 bng 15 250 50 0 empty empty empty 17 7 0 10 -262144
-1 -1;
#X floatatom 1030 605 5 0 0 0 - - -;
#X obj 1030 633 select 1;
#X msg 1088 723 sendtyped /ch\$1debug i 0;
#X obj 1087 613 select 4;
#X obj 1030 658 bng 15 250 50 0 empty empty empty 17 7 0 10 -262144
-1 -1;
#X obj 1086 636 select 3;
#X obj 1086 660 bng 15 250 50 0 empty empty empty 17 7 0 10 -262144
-1 -1;
#X msg 1030 704 sendtyped /ch\$1debug i 1;
#X obj 1086 685 f \$1;
#X obj 1357 538 f 1;
#X obj 1358 563 + 1;
#X msg 1404 562 0;
#X obj 1356 512 bng 15 250 50 0 empty empty empty 17 7 0 10 -262144
-1 -1;
#X floatatom 1357 621 5 0 0 0 - - -;
#X obj 1357 649 select 1;
#X obj 1414 629 select 4;
#X obj 1357 678 bng 15 250 50 0 empty empty empty 17 7 0 10 -262144
-1 -1;
#X obj 1413 652 select 3;
#X obj 1413 676 bng 15 250 50 0 empty empty empty 17 7 0 10 -262144
-1 -1;
#X obj 1413 701 f \$1;
#X msg 1405 748 sendtyped /ch\$1render i 0;
#X obj 240 474 spigot;
#X obj 289 473 tgl 15 0 empty empty empty 17 7 0 10 -262144 -1 -1 0
1;
#X msg 273 496 1;
#X msg 241 496 0;
#X text 314 506 set minimum time between attacks;
#X obj 241 520 delay 200;
#X obj 174 688 + 1;
#X floatatom 193 718 5 0 0 0 - - -;
#X floatatom 245 722 5 0 0 0 - - -;
#X msg 234 616 0;
#X obj 131 688 f;
#X obj 246 660 f;
#X obj 300 660 + 1;
#X obj 209 570 bng 15 250 50 0 empty empty empty 17 7 0 10 -262144
-1 -1;
#X obj 511 205 adc~ \$1;
#X obj 1095 1024 outlet debugprint;
#X connect 0 0 16 0;
#X connect 2 0 16 0;
#X connect 4 0 3 0;
#X connect 4 0 68 0;
#X connect 5 0 6 0;
#X connect 5 0 81 0;
#X connect 7 0 1 0;
#X connect 9 0 8 0;
#X connect 9 1 14 0;
#X connect 9 1 13 0;
#X connect 9 1 90 0;
#X connect 9 1 101 0;
#X connect 9 2 14 1;
#X connect 9 3 14 2;
#X connect 12 0 9 0;
#X connect 13 0 63 0;
#X connect 13 0 14 3;
#X connect 13 0 16 4;
#X connect 13 0 25 1;
#X connect 13 0 26 1;
#X connect 13 0 88 1;
#X connect 14 0 15 0;
#X connect 15 0 1 0;
#X connect 16 0 17 0;
#X connect 17 0 1 0;
#X connect 17 0 105 0;
#X connect 18 0 13 0;
#X connect 19 0 16 0;
#X connect 20 0 2 0;
#X connect 20 0 16 1;
#X connect 21 0 2 0;
#X connect 21 0 16 2;
#X connect 22 0 2 0;
#X connect 22 0 16 3;
#X connect 23 0 4 0;
#X connect 23 0 5 0;
#X connect 23 1 64 0;
#X connect 24 0 13 0;
#X connect 25 0 7 0;
#X connect 26 0 76 0;
#X connect 29 0 9 0;
#X connect 31 0 30 0;
#X connect 32 0 33 0;
#X connect 32 0 30 1;
#X connect 34 0 35 0;
#X connect 35 0 36 0;
#X connect 35 1 32 0;
#X connect 36 0 30 1;
#X connect 37 0 63 0;
#X connect 38 0 37 0;
#X connect 38 0 34 0;
#X connect 38 0 31 0;
#X connect 38 0 24 0;
#X connect 39 0 38 0;
#X connect 63 0 1 0;
#X connect 65 0 66 0;
#X connect 66 0 69 0;
#X connect 66 0 65 1;
#X connect 66 0 72 0;
#X connect 67 0 65 1;
#X connect 68 0 65 0;
#X connect 69 0 70 0;
#X connect 69 0 74 0;
#X connect 70 0 73 0;
#X connect 71 0 1 0;
#X connect 71 0 105 0;
#X connect 72 0 67 0;
#X connect 73 0 26 0;
#X connect 74 0 75 0;
#X connect 75 0 77 0;
#X connect 76 0 1 0;
#X connect 76 0 105 0;
#X connect 77 0 71 0;
#X connect 78 0 79 0;
#X connect 79 0 82 0;
#X connect 79 0 78 1;
#X connect 79 0 84 0;
#X connect 80 0 78 1;
#X connect 81 0 78 0;
#X connect 82 0 83 0;
#X connect 82 0 86 0;
#X connect 83 0 85 0;
#X connect 84 0 80 0;
#X connect 85 0 25 0;
#X connect 86 0 87 0;
#X connect 87 0 88 0;
#X connect 88 0 89 0;
#X connect 89 0 1 0;
#X connect 90 0 93 0;
#X connect 90 0 95 0;
#X connect 90 0 103 0;
#X connect 91 0 90 1;
#X connect 92 0 91 0;
#X connect 93 0 91 0;
#X connect 95 0 92 0;
#X connect 95 0 63 0;
#X connect 95 0 31 0;
#X connect 96 0 97 0;
#X connect 96 0 100 1;
#X connect 99 0 100 1;
#X connect 99 0 101 1;
#X connect 100 0 96 0;
#X connect 101 0 102 0;
#X connect 102 0 98 0;
#X connect 102 0 101 1;
#X connect 103 0 100 0;
#X connect 104 0 9 0;
