#N canvas 233 242 1687 777 10;
#X obj 674 176 inlet;
#X obj 761 619 outlet;
#X obj 735 330 bng 15 250 50 0 empty empty empty 17 7 0 10 -262144
-1 -1;
#X obj 942 425 outlet;
#X obj 944 377 select \$6;
#X obj 1010 376 select \$7;
#X obj 1011 424 outlet;
#X msg 725 522 sendtyped /ch\$1attack i 1;
#X msg 748 547 sendtyped /ch\$1debug i 1;
#X msg 783 568 sendtyped /ch\$1render i 1;
#X floatatom 499 370 5 0 0 0 - - -, f 5;
#X obj 488 266 channelAnalyser;
#X obj 488 211 adc~ \$1;
#X text 667 198 flush;
#X text 784 196 audiobypass;
#X obj 786 178 inlet~;
#X obj 597 211 f \$1;
#X obj 515 410 pack f f f f;
#X msg 528 457 sendtyped /ch\$4 ffi \$1 \$2 \$3;
#X obj 495 601 print stuff;
#X obj 760 372 pack f f f f f;
#X msg 689 499 sendtyped /ch\$5att iiii \$1 \$2 \$3 \$4;
#X obj 578 180 loadbang;
#X obj 758 260 ctlin \$2 \$8;
#X obj 783 284 ctlin \$3 \$8;
#X obj 807 308 ctlin \$4 \$8;
#X obj 828 327 ctlin \$5 \$8;
#X obj 977 321 notein \$8;
#X obj 635 182 bng 15 250 50 0 empty empty empty 17 7 0 10 -262144
-1 -1;
#X obj 1010 464 bng 15 250 50 0 empty empty empty 17 7 0 10 -262144
-1 -1;
#X obj 1032 462 f \$1;
#X obj 904 460 bng 15 250 50 0 empty empty empty 17 7 0 10 -262144
-1 -1;
#X obj 922 459 f \$1;
#X text 909 193 midibypass;
#X obj 911 175 inlet;
#X connect 0 0 20 0;
#X connect 2 0 20 0;
#X connect 4 0 3 0;
#X connect 4 0 31 0;
#X connect 5 0 6 0;
#X connect 5 0 29 0;
#X connect 7 0 1 0;
#X connect 8 0 1 0;
#X connect 9 0 1 0;
#X connect 10 0 17 0;
#X connect 11 0 10 0;
#X connect 11 1 17 0;
#X connect 11 1 16 0;
#X connect 11 2 17 1;
#X connect 11 3 17 2;
#X connect 12 0 11 0;
#X connect 15 0 11 0;
#X connect 16 0 7 0;
#X connect 16 0 17 3;
#X connect 16 0 20 4;
#X connect 16 0 30 1;
#X connect 16 0 32 1;
#X connect 17 0 18 0;
#X connect 18 0 1 0;
#X connect 20 0 21 0;
#X connect 21 0 1 0;
#X connect 21 0 19 0;
#X connect 22 0 16 0;
#X connect 23 0 20 0;
#X connect 24 0 2 0;
#X connect 24 0 20 1;
#X connect 25 0 2 0;
#X connect 25 0 20 2;
#X connect 26 0 2 0;
#X connect 26 0 20 3;
#X connect 27 0 4 0;
#X connect 27 0 5 0;
#X connect 28 0 16 0;
#X connect 29 0 30 0;
#X connect 30 0 9 0;
#X connect 31 0 32 0;
#X connect 32 0 8 0;
