#N canvas 175 65 1707 1060 10;
#X obj 805 815 outlet;
#X obj 766 316 bng 15 250 50 0 empty empty empty 17 7 0 10 -262144
-1 -1;
#X obj 1032 819 outlet;
#X obj 1029 392 select \$6;
#X obj 1358 396 select \$7;
#X obj 1364 823 outlet;
#X msg 1356 725 sendtyped /ch\$1render i 1;
#X obj 1166 131 f \$1;
#X obj 760 372 pack f f f f f;
#X msg 765 418 sendtyped /ch\$5att iiii \$1 \$2 \$3 \$4;
#X obj 1147 100 loadbang;
#X obj 758 260 ctlin \$2 \$8;
#X obj 783 284 ctlin \$3 \$8;
#X obj 807 308 ctlin \$4 \$8;
#X obj 828 327 ctlin \$5 \$8;
#X obj 1062 336 notein \$8;
#X obj 1357 701 f \$1;
#X obj 1029 685 f \$1;
#X text 472 32 vizchannel;
#X text 383 30 arguments;
#X text 557 30 midiCC1;
#X text 611 29 midiCC2;
#X text 671 29 midiCC3;
#X text 735 28 midCC4;
#X text 790 27 midiNote1;
#X text 859 27 midinote2;
#X text 930 27 midiChannel;
#X text 571 16 \$2;
#X text 733 41 att :d;
#X text 613 42 att :b;
#X text 556 41 att :a;
#X text 622 15 \$3;
#X text 675 41 att :c;
#X text 684 15 \$4;
#X text 749 14 \$5;
#X text 801 41 debug;
#X text 865 41 render;
#X text 493 17 \$1;
#X text 805 15 \$6;
#X text 877 13 \$7;
#X text 943 14 \$8;
#X floatatom 1442 397 5 0 0 0 - - -;
#X obj 1030 522 f 1;
#X obj 1031 547 + 1;
#X msg 1077 546 0;
#X obj 1029 496 bng 15 250 50 0 empty empty empty 17 7 0 10 -262144
-1 -1;
#X floatatom 1030 605 5 0 0 0 - - -;
#X obj 1030 633 select 1;
#X msg 1088 723 sendtyped /ch\$1debug i 0;
#X obj 1087 613 select 4;
#X obj 1030 658 bng 15 250 50 0 empty empty empty 17 7 0 10 -262144
-1 -1;
#X obj 1086 636 select 3;
#X obj 1086 660 bng 15 250 50 0 empty empty empty 17 7 0 10 -262144
-1 -1;
#X msg 1030 704 sendtyped /ch\$1debug i 1;
#X obj 1086 685 f \$1;
#X obj 1357 538 f 1;
#X obj 1358 563 + 1;
#X msg 1404 562 0;
#X obj 1356 512 bng 15 250 50 0 empty empty empty 17 7 0 10 -262144
-1 -1;
#X floatatom 1357 621 5 0 0 0 - - -;
#X obj 1357 649 select 1;
#X obj 1414 629 select 4;
#X obj 1357 678 bng 15 250 50 0 empty empty empty 17 7 0 10 -262144
-1 -1;
#X obj 1413 652 select 3;
#X obj 1413 676 bng 15 250 50 0 empty empty empty 17 7 0 10 -262144
-1 -1;
#X obj 1413 701 f \$1;
#X msg 1405 748 sendtyped /ch\$1render i 0;
#X obj 1538 825 outlet debugprint;
#X connect 1 0 8 0;
#X connect 3 0 2 0;
#X connect 3 0 45 0;
#X connect 4 0 5 0;
#X connect 4 0 58 0;
#X connect 6 0 0 0;
#X connect 7 0 8 4;
#X connect 7 0 16 1;
#X connect 7 0 17 1;
#X connect 7 0 65 1;
#X connect 8 0 9 0;
#X connect 9 0 0 0;
#X connect 9 0 67 0;
#X connect 10 0 7 0;
#X connect 11 0 8 0;
#X connect 12 0 1 0;
#X connect 12 0 8 1;
#X connect 13 0 1 0;
#X connect 13 0 8 2;
#X connect 14 0 1 0;
#X connect 14 0 8 3;
#X connect 15 0 3 0;
#X connect 15 0 4 0;
#X connect 15 1 41 0;
#X connect 16 0 6 0;
#X connect 17 0 53 0;
#X connect 42 0 43 0;
#X connect 43 0 46 0;
#X connect 43 0 42 1;
#X connect 43 0 49 0;
#X connect 44 0 42 1;
#X connect 45 0 42 0;
#X connect 46 0 47 0;
#X connect 46 0 51 0;
#X connect 47 0 50 0;
#X connect 48 0 0 0;
#X connect 48 0 67 0;
#X connect 49 0 44 0;
#X connect 50 0 17 0;
#X connect 51 0 52 0;
#X connect 52 0 54 0;
#X connect 53 0 0 0;
#X connect 53 0 67 0;
#X connect 54 0 48 0;
#X connect 55 0 56 0;
#X connect 56 0 59 0;
#X connect 56 0 55 1;
#X connect 56 0 61 0;
#X connect 57 0 55 1;
#X connect 58 0 55 0;
#X connect 59 0 60 0;
#X connect 59 0 63 0;
#X connect 60 0 62 0;
#X connect 61 0 57 0;
#X connect 62 0 16 0;
#X connect 63 0 64 0;
#X connect 64 0 65 0;
#X connect 65 0 66 0;
#X connect 66 0 0 0;
