#N canvas 233 45 1687 777 10;
#X obj 758 260 ctlin \$2 \$1;
#X obj 807 308 ctlin \$4 \$1;
#X obj 827 327 ctlin \$5 \$1;
#X obj 784 284 ctlin \$3 \$1;
#X obj 674 176 inlet;
#X obj 761 619 outlet;
#X obj 735 330 bng 15 250 50 0 empty empty empty 17 7 0 10 -262144
-1 -1;
#X obj 942 425 outlet;
#X obj 977 321 notein \$1;
#X obj 944 377 select \$6;
#X obj 1010 376 select \$7;
#X obj 1011 424 outlet;
#X msg 725 522 sendtyped /ch\$1attack i 1;
#X msg 748 547 sendtyped /ch\$1debug i 1;
#X msg 783 568 sendtyped /ch\$1render i 1;
#X floatatom 499 370 5 0 0 0 - - -, f 5;
#X obj 488 266 channelAnalyser;
#X obj 488 211 adc~ \$1;
#X text 667 198 flush;
#X text 784 196 audiobypass;
#X obj 786 178 inlet~;
#X obj 585 215 f \$1;
#X obj 515 410 pack f f f f;
#X msg 528 457 sendtyped /ch\$4 ffi \$1 \$2 \$3;
#X obj 495 601 print stuff;
#X obj 760 372 pack f f f f f;
#X msg 689 499 sendtyped /ch\$5att iiii \$1 \$2 \$3 \$4;
#X obj 578 180 loadbang;
#X connect 0 0 25 0;
#X connect 1 0 6 0;
#X connect 1 0 25 2;
#X connect 2 0 6 0;
#X connect 2 0 25 3;
#X connect 3 0 6 0;
#X connect 3 0 25 1;
#X connect 4 0 25 0;
#X connect 6 0 25 0;
#X connect 8 0 9 0;
#X connect 8 0 10 0;
#X connect 9 0 7 0;
#X connect 9 0 13 0;
#X connect 10 0 11 0;
#X connect 10 0 14 0;
#X connect 12 0 5 0;
#X connect 13 0 5 0;
#X connect 14 0 5 0;
#X connect 15 0 22 0;
#X connect 16 0 15 0;
#X connect 16 1 22 0;
#X connect 16 1 21 0;
#X connect 16 2 22 1;
#X connect 16 3 22 2;
#X connect 17 0 16 0;
#X connect 20 0 16 0;
#X connect 21 0 12 0;
#X connect 21 0 22 3;
#X connect 21 0 25 4;
#X connect 22 0 23 0;
#X connect 23 0 5 0;
#X connect 25 0 26 0;
#X connect 26 0 5 0;
#X connect 27 0 21 0;
