#N canvas 180 129 1740 998 10;
#X msg 172 784 disconnect;
#X obj 169 690 tgl 15 0 empty empty 1=connected 20 8 0 8 -4034 -257985
-1 0 1;
#X obj 172 808 mrpeach/udpsend;
#X obj 166 718 mrpeach/packOSC;
#X obj 179 128 adc~ 1;
#X obj 495 137 adc~ 2;
#X msg 543 328 sendtyped /ch2attack i 1;
#X obj 767 131 adc~ 3;
#X msg 840 340 sendtyped /ch3attack i 1;
#X msg 1107 339 sendtyped /ch4attack i 1;
#X obj 1035 130 adc~ 4;
#X obj 1296 146 adc~ 5;
#X obj 1568 140 adc~ 6;
#X msg 1360 337 sendtyped /ch5attack i 1;
#X msg 1617 340 sendtyped /ch6attack i 1;
#X obj 1833 146 adc~ 7;
#X obj 2379 142 adc~ 9;
#X obj 2107 148 adc~ 8;
#X msg 1892 349 sendtyped /ch7attack i 1;
#X msg 2169 347 sendtyped /ch8attack i 1;
#X msg 2437 347 sendtyped /ch9attack i 1;
#X obj 2250 279 bng 15 250 50 0 empty empty empty 17 7 0 10 -262144
-1 -1;
#X floatatom 181 285 5 0 0 0 - - -, f 5;
#X obj 2687 147 adc~ 10;
#X msg 2732 345 sendtyped /ch10attack i 1;
#X floatatom 477 283 5 0 0 0 - - -, f 5;
#X floatatom 766 279 5 0 0 0 - - -, f 5;
#X obj 2012 657 print stuff;
#X floatatom 1165 282 5 0 0 0 - - -, f 5;
#X msg 431 781 connect 127.0.0.1 4243;
#X msg 22 502 sendtyped /ch1 ffi \$1 \$2 \$3;
#X obj 182 307 pack f f f;
#X text 179 107 loop 1;
#X text 497 115 loop 2;
#X text 759 109 kick1;
#X text 1037 108 kick2;
#X text 1296 123 snare;
#X text 1567 114 hh;
#X text 1839 121 perc;
#X text 2116 130 cymbal;
#X text 2383 122 bass;
#X text 2686 125 chords;
#X obj 468 330 pack f f f;
#X obj 764 339 pack f f f;
#X msg 469 355 sendtyped /ch2 ffi \$1 \$2 \$3;
#X msg 765 364 sendtyped /ch3 ffi \$1 \$2 \$3;
#X obj 1020 340 pack f f f;
#X floatatom 1030 287 5 0 0 0 - - -, f 5;
#X obj 1277 335 pack f f f;
#X floatatom 1287 282 5 0 0 0 - - -, f 5;
#X msg 1026 366 sendtyped /ch4 ffi \$1 \$2 \$3;
#X msg 1278 360 sendtyped /ch5 ffi \$1 \$2 \$3;
#X obj 1538 343 pack f f f;
#X floatatom 1548 290 5 0 0 0 - - -, f 5;
#X obj 1543 194 channelAnalyser;
#X obj 1800 345 pack f f f;
#X msg 1539 368 sendtyped /ch6 ffi \$1 \$2 \$3;
#X msg 1801 370 sendtyped /ch7 ffi \$1 \$2 \$3;
#X obj 1938 272 bng 15 250 50 0 empty empty empty 17 7 0 10 -262144
-1 -1;
#X obj 2084 348 pack f f f;
#X msg 2085 373 sendtyped /ch8 ffi \$1 \$2 \$3;
#X obj 2359 349 pack f f f;
#X msg 2357 371 sendtyped /ch9 ffi \$1 \$2 \$3;
#X obj 2554 289 bng 15 250 50 0 empty empty empty 17 7 0 10 -262144
-1 -1;
#X obj 2654 345 pack f f f;
#X obj 2867 286 bng 15 250 50 0 empty empty empty 17 7 0 10 -262144
-1 -1;
#X msg 2655 370 sendtyped /ch10 ffi \$1 \$2 \$3;
#X obj 1777 187 channelAnalyser;
#X obj 179 183 channelAnalyser;
#X obj 477 178 channelAnalyser;
#X obj 765 191 channelAnalyser;
#X obj 1029 197 channelAnalyser;
#X obj 1280 191 channelAnalyser;
#X obj 2060 183 channelAnalyser;
#X obj 2354 196 channelAnalyser;
#X obj 2662 201 channelAnalyser;
#X floatatom 391 69 3 0 0 0 - - -, f 3;
#X floatatom 361 68 3 0 0 0 - - -, f 3;
#X obj 361 43 ctlin;
#X obj 361 90 bng 20 250 50 0 empty empty empty 17 7 0 10 -262144 -1
-1;
#X obj 286 117 loadbang;
#X msg 205 563 sendtyped /ch1att iiii \$1 \$2 \$3 \$4;
#X msg 241 586 sendtyped /ch1attack i 1;
#X obj 272 367 midipacker 1 13 29 49 77 41 73;
#X msg 264 611 sendtyped /ch1debug i 1;
#X msg 299 632 sendtyped /ch1render i 1;
#X msg 354 290 100 100 10 10;
#X obj 270 844 print chatt1;
#X obj 853 780 print blah;
#X floatatom 851 673 5 0 0 0 - - -, f 5;
#X msg 853 730 send ch\$1attack i 1;
#X connect 0 0 2 0;
#X connect 2 0 1 0;
#X connect 3 0 2 0;
#X connect 4 0 68 0;
#X connect 5 0 69 0;
#X connect 7 0 70 0;
#X connect 8 0 3 0;
#X connect 9 0 3 0;
#X connect 10 0 71 0;
#X connect 11 0 72 0;
#X connect 12 0 54 0;
#X connect 13 0 3 0;
#X connect 14 0 3 0;
#X connect 15 0 67 0;
#X connect 16 0 74 0;
#X connect 17 0 73 0;
#X connect 18 0 3 0;
#X connect 19 0 3 0;
#X connect 20 0 3 0;
#X connect 21 0 59 0;
#X connect 22 0 31 0;
#X connect 23 0 75 0;
#X connect 24 0 3 0;
#X connect 25 0 42 0;
#X connect 26 0 43 0;
#X connect 28 0 46 1;
#X connect 29 0 2 0;
#X connect 30 0 3 0;
#X connect 31 0 30 0;
#X connect 42 0 44 0;
#X connect 43 0 45 0;
#X connect 44 0 3 0;
#X connect 45 0 3 0;
#X connect 46 0 50 0;
#X connect 47 0 46 0;
#X connect 48 0 51 0;
#X connect 49 0 48 0;
#X connect 50 0 3 0;
#X connect 51 0 3 0;
#X connect 52 0 56 0;
#X connect 53 0 52 0;
#X connect 54 0 53 0;
#X connect 54 1 14 0;
#X connect 54 2 52 1;
#X connect 54 3 52 2;
#X connect 55 0 57 0;
#X connect 56 0 3 0;
#X connect 57 0 3 0;
#X connect 58 0 55 0;
#X connect 59 0 60 0;
#X connect 60 0 3 0;
#X connect 61 0 62 0;
#X connect 62 0 3 0;
#X connect 63 0 61 0;
#X connect 64 0 66 0;
#X connect 65 0 64 0;
#X connect 66 0 3 0;
#X connect 67 0 55 0;
#X connect 67 1 18 0;
#X connect 67 2 55 1;
#X connect 67 3 55 2;
#X connect 67 3 58 0;
#X connect 68 0 22 0;
#X connect 68 1 31 0;
#X connect 68 1 82 0;
#X connect 68 2 31 1;
#X connect 68 3 31 2;
#X connect 69 0 25 0;
#X connect 69 1 42 0;
#X connect 69 2 42 1;
#X connect 69 3 42 2;
#X connect 70 0 26 0;
#X connect 70 1 8 0;
#X connect 70 1 43 0;
#X connect 70 2 43 1;
#X connect 70 3 43 2;
#X connect 71 0 47 0;
#X connect 71 1 9 0;
#X connect 71 1 46 0;
#X connect 71 2 28 0;
#X connect 71 3 46 2;
#X connect 72 0 49 0;
#X connect 72 1 13 0;
#X connect 72 1 48 0;
#X connect 72 2 48 1;
#X connect 72 3 48 2;
#X connect 73 0 59 0;
#X connect 73 1 19 0;
#X connect 73 2 59 1;
#X connect 73 3 21 0;
#X connect 73 3 59 2;
#X connect 74 0 61 0;
#X connect 74 1 20 0;
#X connect 74 2 61 1;
#X connect 74 3 61 2;
#X connect 74 3 63 0;
#X connect 75 0 64 0;
#X connect 75 1 24 0;
#X connect 75 2 64 1;
#X connect 75 3 64 2;
#X connect 75 3 65 0;
#X connect 77 0 79 0;
#X connect 78 0 77 0;
#X connect 78 1 76 0;
#X connect 80 0 83 0;
#X connect 81 0 3 0;
#X connect 81 0 87 0;
#X connect 82 0 3 0;
#X connect 83 0 81 0;
#X connect 83 1 84 0;
#X connect 83 2 85 0;
#X connect 84 0 3 0;
#X connect 85 0 3 0;
#X connect 86 0 81 0;
#X connect 89 0 90 0;
#X connect 90 0 88 0;
