#N canvas 403 192 1116 720 10;
#X msg 274 489 disconnect;
#X obj 281 551 tgl 15 0 empty empty 1=connected 20 8 0 8 -4034 -257985
-1 1 1;
#X obj 281 516 mrpeach/udpsend;
#X msg 168 331 sendtyped /ch1 ffi \$1 \$2 \$3;
#X text 433 232 https://aubio.org/pd-aubio/;
#X obj 276 431 mrpeach/packOSC;
#X msg 247 360 sendtyped /ch1attack i 1;
#X obj 234 121 adc~ 1;
#X obj 238 258 channelAnalyser;
#X obj 498 300 channelAnalyser;
#X obj 495 137 adc~ 2;
#X msg 491 363 sendtyped /ch2attack i 1;
#X msg 412 334 sendtyped /ch2 ffi \$1 \$2 \$3;
#X text 705 226 https://aubio.org/pd-aubio/;
#X obj 770 294 channelAnalyser;
#X obj 767 131 adc~ 3;
#X msg 684 328 sendtyped /ch3 ffi \$1 \$2 \$3;
#X msg 763 357 sendtyped /ch3attack i 1;
#X text 1234 241 https://aubio.org/pd-aubio/;
#X obj 1055 306 channelAnalyser;
#X obj 1299 309 channelAnalyser;
#X text 1506 235 https://aubio.org/pd-aubio/;
#X obj 1571 303 channelAnalyser;
#X msg 969 340 sendtyped /ch4 ffi \$1 \$2 \$3;
#X msg 1048 369 sendtyped /ch4attack i 1;
#X obj 1035 130 adc~ 4;
#X obj 1296 146 adc~ 5;
#X obj 1568 140 adc~ 6;
#X msg 1213 343 sendtyped /ch5 ffi \$1 \$2 \$3;
#X msg 1292 372 sendtyped /ch5attack i 1;
#X msg 1485 337 sendtyped /ch6 ffi \$1 \$2 \$3;
#X msg 1564 366 sendtyped /ch6attack i 1;
#X text 2045 243 https://aubio.org/pd-aubio/;
#X obj 1805 296 channelAnalyser;
#X obj 2110 311 channelAnalyser;
#X text 2317 237 https://aubio.org/pd-aubio/;
#X obj 2382 305 channelAnalyser;
#X obj 1833 146 adc~ 7;
#X obj 2379 142 adc~ 9;
#X obj 2107 148 adc~ 8;
#X msg 1761 344 sendtyped /ch7 ffi \$1 \$2 \$3;
#X msg 1840 373 sendtyped /ch7attack i 1;
#X msg 2024 345 sendtyped /ch8 ffi \$1 \$2 \$3;
#X msg 2103 374 sendtyped /ch8attack i 1;
#X msg 2296 339 sendtyped /ch9 ffi \$1 \$2 \$3;
#X msg 2375 368 sendtyped /ch9attack i 1;
#X obj 356 299 bng 15 250 50 0 empty empty empty 17 7 0 10 -262144
-1 -1;
#X obj 600 301 bng 15 250 50 0 empty empty empty 17 7 0 10 -262144
-1 -1;
#X obj 888 317 bng 15 250 50 0 empty empty empty 17 7 0 10 -262144
-1 -1;
#X obj 1157 306 bng 15 250 50 0 empty empty empty 17 7 0 10 -262144
-1 -1;
#X obj 1401 311 bng 15 250 50 0 empty empty empty 17 7 0 10 -262144
-1 -1;
#X obj 1675 301 bng 15 250 50 0 empty empty empty 17 7 0 10 -262144
-1 -1;
#X obj 1907 299 bng 15 250 50 0 empty empty empty 17 7 0 10 -262144
-1 -1;
#X obj 2212 312 bng 15 250 50 0 empty empty empty 17 7 0 10 -262144
-1 -1;
#X obj 2484 309 bng 15 250 50 0 empty empty empty 17 7 0 10 -262144
-1 -1;
#X msg 251 465 connect 127.0.0.1 4243;
#X msg 433 450 sendtyped /line/add i 1;
#X msg 540 489 connect 127.0.0.1 1238;
#X connect 0 0 2 0;
#X connect 2 0 1 0;
#X connect 3 0 5 0;
#X connect 5 0 2 0;
#X connect 6 0 5 0;
#X connect 7 0 8 0;
#X connect 8 0 3 0;
#X connect 8 1 6 0;
#X connect 8 1 46 0;
#X connect 8 1 56 0;
#X connect 9 0 12 0;
#X connect 9 1 11 0;
#X connect 9 1 47 0;
#X connect 10 0 9 0;
#X connect 11 0 5 0;
#X connect 12 0 5 0;
#X connect 14 0 16 0;
#X connect 14 1 17 0;
#X connect 14 1 48 0;
#X connect 15 0 14 0;
#X connect 16 0 5 0;
#X connect 17 0 5 0;
#X connect 19 0 23 0;
#X connect 19 1 24 0;
#X connect 19 1 49 0;
#X connect 20 0 28 0;
#X connect 20 1 29 0;
#X connect 20 1 50 0;
#X connect 22 0 30 0;
#X connect 22 1 31 0;
#X connect 22 1 51 0;
#X connect 23 0 5 0;
#X connect 24 0 5 0;
#X connect 25 0 19 0;
#X connect 26 0 20 0;
#X connect 27 0 22 0;
#X connect 28 0 5 0;
#X connect 29 0 5 0;
#X connect 30 0 5 0;
#X connect 31 0 5 0;
#X connect 33 0 40 0;
#X connect 33 1 41 0;
#X connect 33 1 52 0;
#X connect 34 0 42 0;
#X connect 34 1 43 0;
#X connect 34 1 53 0;
#X connect 36 0 44 0;
#X connect 36 1 45 0;
#X connect 36 1 54 0;
#X connect 37 0 33 0;
#X connect 38 0 36 0;
#X connect 39 0 34 0;
#X connect 40 0 5 0;
#X connect 41 0 5 0;
#X connect 42 0 5 0;
#X connect 43 0 5 0;
#X connect 44 0 5 0;
#X connect 45 0 5 0;
#X connect 55 0 2 0;
#X connect 56 0 5 0;
#X connect 57 0 2 0;
