#N canvas -1863 1331 1294 655 10;
#X msg 244 443 disconnect;
#X obj 118 506 tgl 30 0 empty empty 1=connected 34 15 0 12 -4034 -258113
-1 1 1;
#X obj 118 477 mrpeach/udpsend;
#X obj 130 410 mrpeach/packOSC;
#X msg 257 410 connect 127.0.0.1 4243;
#X obj 55 70 bng 50 250 50 0 empty empty empty 17 7 0 10 -99865 -258113
-1;
#X obj 225 592 print debug;
#X obj 44 145 midipacker 1 13 29 49 77 44 73 1;
#X obj 78 175 midipacker 2 14 30 50 78 46 74 1;
#X obj 121 206 midipacker 3 15 31 51 79 49 75 1;
#X obj 144 238 midipacker 4 16 32 52 80 51 76 1;
#X obj 168 277 midipacker 5 17 33 53 81 54 77 1;
#X obj 172 296 midipacker 6 18 34 54 82 56 78 1;
#X obj 176 318 midipacker 7 19 35 55 83 58 79 1;
#X obj 181 340 midipacker 8 20 36 56 84 61 80 1;
#X obj 487 341 notein 1;
#X obj 483 371 stripnote;
#X obj 480 401 select 108;
#X obj 479 431 spigot;
#X floatatom 567 442 5 0 0 0 - - -;
#X obj 478 463 bng 15 250 50 0 empty empty empty 17 7 0 10 -262144
-1 -1;
#X msg 405 533 sendtyped /globaltrigger i 1;
#X obj 664 359 stripnote;
#X floatatom 653 419 5 0 0 0 - - -;
#X obj 668 329 notein 19;
#X obj 811 365 stripnote;
#X floatatom 802 392 5 0 0 0 - - -;
#X obj 686 456 pack f f f f;
#X floatatom 724 389 5 0 0 0 - - -;
#X msg 669 509 sendtyped /ch3 ffi \$1 \$2 \$3;
#X msg 680 559 sendtyped /ch3attack i 1;
#X obj 880 463 pack f f f f;
#X msg 885 543 sendtyped /ch4 ffi \$1 \$2 \$3;
#X msg 886 577 sendtyped /ch4attack i 1;
#X floatatom 873 395 5 0 0 0 - - -;
#X obj 811 330 notein 20;
#X connect 0 0 2 0;
#X connect 2 0 1 0;
#X connect 3 0 2 0;
#X connect 4 0 2 0;
#X connect 7 0 3 0;
#X connect 8 0 3 0;
#X connect 8 3 6 0;
#X connect 9 0 3 0;
#X connect 10 0 3 0;
#X connect 15 0 16 0;
#X connect 15 1 16 1;
#X connect 16 0 17 0;
#X connect 16 1 19 0;
#X connect 16 1 18 1;
#X connect 17 0 18 0;
#X connect 18 0 20 0;
#X connect 18 0 21 0;
#X connect 21 0 6 0;
#X connect 21 0 3 0;
#X connect 22 0 23 0;
#X connect 22 1 28 0;
#X connect 23 0 27 0;
#X connect 23 0 30 0;
#X connect 24 0 22 0;
#X connect 24 1 22 1;
#X connect 25 0 26 0;
#X connect 25 1 34 0;
#X connect 26 0 31 0;
#X connect 26 0 33 0;
#X connect 27 0 29 0;
#X connect 28 0 27 1;
#X connect 29 0 3 0;
#X connect 30 0 3 0;
#X connect 31 0 32 0;
#X connect 32 0 3 0;
#X connect 33 0 3 0;
#X connect 34 0 31 1;
#X connect 35 0 25 0;
#X connect 35 1 25 1;
